<?xml version="1.0" standalone="no"?>
<!DOCTYPE svg PUBLIC "-//W3C//DTD SVG 20010904//EN"
 "http://www.w3.org/TR/2001/REC-SVG-20010904/DTD/svg10.dtd">
<svg version="1.0" xmlns="http://www.w3.org/2000/svg"
 width="3000.000000pt" height="3000.000000pt" viewBox="0 0 3000.000000 3000.000000"
 preserveAspectRatio="xMidYMid meet">
<metadata>
Created by potrace 1.11, written by Peter Selinger 2001-2013
</metadata>
<g transform="translate(0.000000,3000.000000) scale(0.100000,-0.100000)"
fill="#000000" stroke="none">
<path d="M18425 26401 c-3 -2 -987 -5 -2187 -7 -5684 -7 -12770 -24 -12779
-30 -5 -2 -6 -11 -2 -20 3 -8 -2 -23 -11 -33 -9 -10 -14 -20 -12 -22 2 -2 7
-35 10 -74 11 -117 16 -168 21 -215 2 -25 7 -79 11 -120 4 -41 8 -88 10 -105
1 -16 5 -62 8 -101 3 -39 8 -86 10 -105 3 -19 8 -70 12 -114 15 -179 24 -282
29 -320 2 -16 7 -64 10 -105 3 -41 8 -91 10 -110 3 -19 7 -66 10 -105 2 -38 7
-88 9 -110 4 -37 12 -118 22 -225 2 -25 6 -70 9 -100 11 -114 14 -147 20 -215
3 -38 8 -88 10 -110 3 -22 7 -62 9 -90 6 -64 17 -190 21 -235 2 -19 5 -57 9
-85 3 -27 8 -81 11 -120 3 -38 8 -86 10 -105 3 -31 12 -131 20 -225 2 -16 6
-66 10 -110 3 -44 8 -91 10 -105 2 -14 7 -59 10 -100 3 -41 8 -91 10 -110 2
-19 7 -69 10 -110 3 -41 8 -86 10 -100 2 -14 7 -63 10 -110 3 -47 8 -96 10
-110 2 -14 7 -60 9 -102 3 -42 7 -89 10 -105 2 -15 7 -64 11 -108 4 -44 9 -96
10 -115 2 -19 6 -66 9 -105 4 -38 8 -88 11 -110 2 -22 7 -71 10 -110 3 -38 8
-88 10 -110 2 -22 7 -70 10 -107 3 -37 7 -85 10 -105 2 -21 7 -69 10 -106 3
-37 7 -82 10 -100 2 -18 7 -68 10 -112 3 -44 8 -91 10 -105 2 -14 6 -65 10
-114 4 -50 8 -98 10 -108 2 -10 6 -55 10 -101 3 -45 7 -96 9 -113 3 -16 7 -64
11 -105 3 -41 8 -90 10 -109 7 -75 16 -176 20 -234 3 -34 7 -74 9 -91 3 -16 8
-66 11 -110 3 -44 8 -91 10 -105 2 -14 7 -65 10 -115 4 -49 9 -102 11 -117 2
-15 7 -58 9 -95 3 -38 7 -84 10 -103 5 -41 15 -147 20 -205 9 -115 17 -203 20
-225 3 -14 7 -68 11 -120 3 -52 8 -104 10 -115 2 -11 7 -55 10 -97 3 -43 7
-86 9 -96 2 -10 6 -58 10 -108 4 -49 8 -100 10 -114 2 -14 6 -59 10 -100 3
-41 8 -91 10 -110 3 -19 7 -71 10 -115 4 -44 8 -91 10 -105 3 -14 7 -58 10
-99 3 -40 7 -90 10 -110 6 -52 15 -147 20 -216 3 -33 7 -82 10 -110 7 -62 12
-117 20 -220 3 -44 8 -97 11 -118 3 -21 7 -63 9 -94 3 -31 7 -75 9 -97 2 -23
7 -75 11 -116 3 -41 8 -91 10 -110 3 -19 7 -64 10 -100 3 -36 7 -85 10 -110 3
-25 7 -74 10 -110 8 -90 14 -157 20 -210 2 -25 9 -99 15 -165 6 -66 12 -138
15 -160 2 -22 7 -71 10 -110 3 -38 8 -88 10 -110 13 -127 16 -155 20 -205 9
-116 15 -186 20 -225 8 -78 21 -210 30 -325 3 -30 7 -77 10 -105 2 -27 7 -77
10 -110 3 -33 10 -103 15 -155 5 -52 12 -124 15 -160 3 -36 8 -85 10 -110 3
-25 7 -71 10 -103 3 -33 7 -80 10 -105 2 -26 7 -74 10 -107 3 -33 7 -85 10
-115 3 -30 8 -79 10 -107 3 -29 7 -77 10 -105 3 -29 7 -78 10 -108 3 -30 7
-82 10 -115 3 -33 8 -81 10 -107 3 -25 7 -72 10 -105 3 -32 7 -82 10 -110 3
-29 7 -77 10 -105 3 -29 9 -98 15 -153 5 -55 12 -127 15 -160 3 -33 7 -80 10
-105 3 -25 7 -76 10 -115 3 -38 7 -86 10 -105 2 -19 7 -66 10 -105 3 -38 7
-92 10 -120 3 -27 7 -77 10 -109 3 -33 7 -71 9 -85 3 -14 7 -66 11 -114 4 -49
8 -98 10 -110 2 -12 6 -62 10 -111 4 -50 8 -97 10 -105 1 -9 6 -56 10 -106 3
-49 8 -103 10 -120 4 -27 9 -75 20 -210 2 -22 6 -69 9 -105 10 -100 15 -149
21 -220 3 -36 8 -83 10 -105 7 -66 14 -146 20 -215 4 -36 8 -87 11 -115 3 -27
7 -75 10 -105 2 -30 6 -73 9 -95 2 -22 7 -76 10 -120 4 -44 8 -91 10 -105 2
-14 7 -61 10 -105 3 -44 8 -96 10 -115 5 -38 13 -122 20 -210 3 -30 7 -75 10
-100 2 -25 7 -72 10 -105 3 -33 7 -80 10 -105 2 -25 7 -76 10 -115 3 -38 8
-88 10 -110 2 -22 7 -71 10 -110 3 -38 8 -88 10 -110 2 -22 7 -71 10 -108 4
-37 8 -76 10 -85 1 -9 6 -60 9 -112 4 -52 9 -108 11 -125 5 -32 13 -127 20
-221 3 -32 7 -79 10 -104 2 -25 7 -72 10 -105 3 -33 7 -80 10 -105 7 -73 14
-141 20 -210 3 -36 8 -85 10 -110 3 -25 7 -74 10 -110 3 -36 8 -81 10 -100 3
-19 7 -66 10 -105 3 -38 7 -90 10 -115 3 -25 7 -70 10 -100 5 -67 14 -160 20
-220 3 -25 8 -79 11 -120 3 -41 7 -86 9 -100 2 -14 7 -61 10 -105 3 -44 8 -96
10 -115 2 -19 7 -66 10 -105 3 -38 8 -89 11 -112 2 -23 7 -68 9 -100 8 -93 16
-156 20 -163 2 -3 212 -5 467 -4 255 2 770 4 1145 6 376 2 683 3 683 4 0 1 27
102 61 225 33 123 62 232 64 241 2 9 49 187 105 395 56 208 115 430 132 493
17 63 44 164 60 224 16 59 31 115 33 125 2 9 11 41 20 71 8 30 17 68 20 84 3
16 8 32 10 35 3 6 8 23 130 481 40 151 98 367 128 480 31 113 72 266 91 340
20 74 45 169 56 210 17 62 91 337 105 390 2 8 15 56 28 105 13 50 39 144 56
210 45 169 268 1005 292 1095 34 125 106 393 179 670 28 102 57 210 65 240 24
87 104 384 135 505 28 107 72 269 125 465 14 52 30 117 36 143 6 27 13 46 16
43 4 -4 41 -145 58 -221 3 -11 25 -101 49 -200 25 -99 82 -326 126 -505 45
-179 85 -343 90 -365 4 -22 22 -96 40 -165 17 -69 33 -132 35 -140 2 -8 11
-44 20 -80 8 -36 17 -72 20 -81 2 -9 49 -200 105 -425 56 -225 103 -416 105
-424 1 -8 26 -109 55 -225 29 -115 54 -218 56 -227 7 -31 11 -48 88 -358 42
-168 78 -314 81 -325 2 -11 29 -121 60 -245 31 -124 58 -232 60 -240 2 -8 29
-116 59 -240 31 -124 58 -234 61 -245 2 -11 16 -67 30 -125 15 -58 28 -113 30
-123 2 -10 7 -27 10 -37 3 -10 8 -27 10 -37 2 -10 8 -38 14 -63 7 -25 14 -54
16 -65 3 -11 47 -191 99 -400 98 -396 196 -789 201 -815 5 -22 215 -873 220
-890 4 -13 30 -15 147 -16 414 -4 1763 -16 1956 -17 l222 -3 1 26 c1 14 3 34
5 45 1 11 5 49 8 85 4 36 11 101 16 145 5 44 12 109 15 145 3 36 8 76 10 90 2
14 7 54 10 90 3 36 8 83 11 104 3 22 7 62 9 89 2 27 7 70 10 96 6 50 10 90 20
191 3 36 8 81 10 100 3 19 7 60 10 90 3 30 8 73 10 95 3 22 7 65 10 95 3 30 7
71 10 90 2 19 7 64 10 100 3 36 8 76 10 90 4 22 12 100 20 195 2 17 5 53 9 80
3 28 8 75 11 105 11 112 17 166 20 190 2 14 7 57 11 95 4 39 8 81 9 95 2 14 6
59 9 100 4 41 9 86 11 100 4 25 10 80 20 180 8 85 16 161 21 200 4 34 9 86 19
185 3 28 8 73 11 100 3 28 7 66 9 85 4 44 14 143 20 195 5 41 10 86 20 185 6
55 12 113 20 180 4 34 7 58 20 200 4 36 8 76 10 90 2 14 6 57 10 95 3 39 7 81
10 95 2 14 7 52 10 85 3 33 8 78 10 100 2 22 7 67 10 100 8 83 22 208 30 275
2 19 7 64 10 100 4 36 8 78 10 93 2 15 6 60 10 100 3 40 8 83 10 97 2 14 6 54
10 90 4 36 8 76 10 90 3 14 7 59 10 99 3 41 7 86 10 100 2 15 6 53 10 86 3 33
8 85 12 115 7 64 8 79 18 179 4 41 8 82 10 91 2 10 6 53 10 96 4 43 8 90 10
104 2 14 7 52 10 85 3 33 8 76 10 95 3 19 7 60 10 90 3 30 7 73 10 95 12 124
16 155 21 200 16 149 22 209 30 285 3 36 7 72 9 80 1 8 6 51 10 94 4 43 8 86
10 95 1 9 6 52 10 96 3 44 8 91 10 105 2 14 7 54 10 90 4 36 9 67 12 70 5 5
3804 0 3813 -5 3 -2 4 -1795 2 -3984 -2 -2190 0 -3981 5 -3982 16 -1 232 -7
483 -13 339 -8 642 -16 825 -21 83 -2 284 -7 448 -11 l299 -6 -6 683 c-15
1809 -20 3223 -21 5198 l0 2155 645 2 c355 1 704 5 775 8 72 3 218 8 325 11
275 8 469 16 510 20 19 2 78 6 130 9 52 4 109 8 125 10 17 2 75 7 130 11 165
10 171 11 700 167 l510 150 355 178 c596 299 589 295 697 383 55 45 119 98
143 117 24 19 62 51 85 70 33 27 205 168 315 257 307 249 379 313 440 394 734
975 635 830 860 1264 34 66 93 179 130 250 59 113 92 200 245 655 l176 525 50
285 c27 157 51 294 53 305 6 33 14 79 56 320 22 127 42 242 45 258 18 101 25
154 30 247 4 58 8 121 10 140 2 19 7 89 11 155 3 66 8 131 9 145 2 14 6 86 10
160 4 74 8 137 10 140 2 3 7 68 11 145 11 167 10 427 0 580 -8 116 -11 158
-21 320 -3 55 -8 132 -10 170 -3 39 -7 113 -10 165 -3 52 -7 122 -10 155 -2
33 -7 110 -10 170 -8 132 1 79 -84 531 -39 204 -72 384 -75 400 -3 16 -17 90
-31 164 -38 198 -60 315 -95 500 -33 178 -36 186 -135 395 -37 77 -82 172
-100 210 -18 39 -56 120 -85 180 -29 61 -70 148 -92 195 -141 297 -137 291
-390 621 l-243 316 -200 178 c-110 98 -202 181 -205 184 -3 3 -28 26 -55 51
-28 25 -87 77 -130 116 -44 39 -96 84 -115 101 -20 17 -80 46 -140 68 -58 20
-163 59 -235 85 -71 26 -227 82 -345 124 -118 43 -255 92 -305 110 -49 19
-117 36 -150 40 -33 3 -105 10 -160 16 -55 6 -116 12 -135 14 -19 3 -64 8
-100 11 -36 4 -76 8 -90 10 -31 4 -117 13 -190 20 -68 6 -212 13 -435 20 -93
3 -215 8 -270 12 -116 7 -4954 11 -4960 4z m-8850 -2276 c2162 -6 2799 -13
4000 -41 160 -4 305 -7 323 -7 l34 1 -7 -72 c-4 -39 -8 -82 -10 -96 -2 -14 -6
-63 -10 -110 -4 -47 -8 -92 -10 -100 -2 -8 -6 -44 -9 -80 -13 -126 -27 -266
-32 -320 -3 -30 -7 -70 -9 -88 -3 -18 -7 -60 -10 -95 -3 -34 -7 -78 -10 -97
-2 -19 -7 -64 -10 -100 -3 -36 -8 -81 -10 -100 -3 -19 -7 -62 -10 -95 -3 -33
-7 -80 -10 -105 -3 -25 -7 -70 -10 -100 -3 -30 -7 -75 -10 -100 -3 -25 -7 -72
-10 -105 -3 -33 -8 -71 -10 -85 -2 -14 -6 -60 -10 -103 -3 -43 -8 -86 -10 -97
-2 -10 -7 -56 -11 -102 -3 -45 -7 -92 -9 -103 -1 -11 -5 -56 -10 -100 -4 -44
-9 -87 -10 -96 -2 -9 -6 -52 -10 -95 -4 -43 -8 -90 -10 -104 -2 -14 -7 -61
-11 -105 -3 -44 -8 -87 -9 -95 -2 -8 -6 -51 -10 -95 -4 -44 -8 -91 -10 -105
-3 -14 -7 -56 -10 -95 -3 -38 -8 -81 -10 -96 -3 -14 -7 -56 -10 -95 -3 -38 -8
-82 -9 -99 -2 -16 -7 -66 -11 -110 -3 -44 -8 -87 -10 -95 -2 -8 -7 -51 -10
-95 -4 -44 -8 -91 -10 -105 -2 -14 -7 -56 -10 -95 -3 -38 -8 -86 -10 -105 -3
-19 -7 -57 -9 -85 -3 -27 -10 -95 -16 -150 -15 -147 -20 -194 -25 -250 -3 -27
-7 -71 -10 -97 -3 -27 -7 -72 -10 -100 -6 -61 -12 -122 -20 -193 -3 -27 -7
-75 -10 -105 -3 -30 -7 -75 -10 -100 -3 -25 -8 -70 -10 -100 -3 -30 -7 -71
-10 -90 -2 -19 -7 -71 -11 -114 -3 -44 -7 -87 -9 -96 -2 -9 -6 -50 -9 -91 -4
-41 -9 -90 -11 -109 -6 -49 -13 -123 -20 -200 -3 -36 -8 -76 -10 -90 -2 -14
-7 -58 -11 -99 -3 -41 -7 -82 -9 -90 -1 -9 -6 -56 -10 -105 -4 -50 -8 -98 -10
-108 -2 -10 -7 -51 -11 -91 -3 -39 -7 -83 -9 -97 -1 -14 -6 -56 -9 -95 -4 -38
-9 -88 -11 -110 -2 -22 -7 -65 -10 -95 -5 -51 -10 -101 -20 -190 -2 -19 -9
-89 -15 -155 -6 -66 -13 -131 -15 -145 -2 -14 -7 -63 -10 -110 -4 -47 -8 -87
-10 -90 -2 -3 -6 -48 -10 -100 -4 -52 -8 -97 -10 -100 -2 -3 -6 -48 -10 -100
-4 -52 -9 -103 -10 -112 -2 -9 -7 -48 -11 -85 -3 -37 -10 -71 -15 -74 -5 -3
-1000 -5 -2212 -4 -1211 1 -2208 -1 -2214 -3 -7 -2 -13 -13 -13 -23 0 -13 -7
-19 -24 -19 -21 0 -26 -7 -39 -62 -8 -35 -53 -202 -101 -373 -48 -170 -89
-320 -91 -332 -3 -12 -24 -89 -46 -170 -22 -81 -81 -294 -130 -473 -50 -179
-92 -336 -95 -350 -2 -14 -7 -32 -10 -40 -6 -15 -193 -692 -199 -720 -4 -15
-123 -452 -150 -550 -9 -30 -20 -71 -25 -90 -5 -19 -18 -66 -29 -105 -11 -38
-49 -178 -85 -310 -36 -132 -75 -272 -86 -310 -11 -39 -22 -79 -25 -90 -2 -11
-40 -153 -85 -315 -45 -162 -87 -317 -95 -345 -7 -27 -65 -239 -129 -470 -63
-231 -138 -503 -166 -605 -27 -102 -61 -225 -75 -275 -14 -49 -58 -211 -99
-360 -42 -150 -76 -257 -77 -240 0 17 -2 44 -4 60 -1 17 -5 66 -9 110 -4 44
-9 94 -11 110 -2 17 -7 66 -10 110 -4 44 -8 94 -10 110 -2 17 -7 66 -10 110
-3 44 -8 94 -10 110 -2 17 -7 62 -9 100 -3 39 -8 90 -10 115 -3 25 -8 77 -11
115 -3 39 -8 90 -10 115 -5 49 -12 129 -20 230 -3 36 -8 85 -10 110 -3 25 -7
77 -10 115 -4 39 -8 86 -10 105 -3 19 -7 67 -10 105 -3 39 -8 90 -10 115 -3
25 -7 77 -11 115 -3 39 -7 86 -9 105 -14 148 -20 212 -29 335 -4 50 -9 101
-11 115 -3 23 -8 77 -19 210 -6 62 -16 176 -22 230 -2 25 -6 74 -9 110 -3 36
-7 85 -10 110 -2 25 -7 81 -11 125 -4 44 -8 91 -9 105 -2 14 -6 57 -9 95 -4
39 -8 93 -11 120 -2 28 -7 82 -10 120 -3 39 -8 90 -10 115 -11 100 -20 208
-30 325 -3 44 -8 96 -10 115 -2 19 -7 67 -10 105 -6 67 -10 112 -20 220 -3 28
-7 75 -10 105 -2 30 -9 105 -15 165 -5 61 -12 139 -15 175 -3 36 -7 85 -10
110 -2 25 -7 74 -10 110 -3 36 -7 85 -10 110 -2 25 -9 101 -15 170 -6 69 -13
145 -15 170 -6 68 -13 148 -20 225 -10 118 -15 177 -20 209 -2 17 -7 67 -10
111 -3 44 -8 96 -10 115 -1 19 -6 69 -10 110 -3 41 -8 93 -10 115 -5 48 -14
148 -20 230 -4 56 -10 116 -20 210 -2 22 -7 69 -10 105 -3 36 -14 166 -25 290
-11 124 -22 254 -25 290 -3 36 -8 83 -10 105 -3 22 -7 72 -10 110 -3 39 -8 90
-10 115 -3 25 -8 72 -10 105 -7 87 -15 175 -20 215 -2 19 -7 71 -10 115 -9
110 -12 149 -20 230 -4 39 -9 86 -10 105 -8 103 -16 189 -20 220 -3 19 -7 69
-11 110 -3 41 -7 91 -9 110 -5 51 -15 165 -21 240 -2 36 -7 85 -10 110 -2 25
-7 72 -9 105 -3 33 -7 80 -10 105 -2 25 -6 72 -9 105 -17 183 -22 247 -31 345
-3 30 -8 82 -10 115 -3 33 -7 80 -10 105 -12 116 -15 150 -20 215 -3 39 -7 90
-10 115 -5 48 -14 155 -21 230 -4 47 -12 135 -19 210 -3 25 -7 79 -10 120 -3
41 -7 91 -10 110 -2 19 -7 66 -10 103 -3 38 -8 94 -10 125 -5 61 -12 139 -19
212 -3 25 -8 77 -11 115 -3 39 -8 88 -10 110 -2 22 -7 72 -10 110 -9 104 -15
175 -20 225 -3 25 -8 79 -11 120 -3 41 -7 89 -10 105 -2 17 -6 62 -9 100 -6
76 -12 152 -20 230 -3 28 -7 77 -10 110 -9 105 -15 169 -19 215 -3 25 -8 81
-12 125 -4 44 -8 94 -9 110 -2 17 -6 66 -10 110 -3 44 -8 96 -10 115 -2 19 -6
62 -9 95 -3 33 -8 87 -11 120 -3 33 -7 87 -10 120 -3 33 -7 80 -10 105 -2 25
-7 77 -10 115 -3 39 -8 86 -10 105 -3 19 -7 69 -10 110 -3 41 -7 86 -9 100
l-3 26 1196 -3 c658 -1 1970 -5 2916 -8z m7290 -70 c857 -7 1503 -13 1540 -14
l21 -1 -3 -3097 c-2 -1704 -5 -3532 -6 -4063 l-2 -965 -1783 -1 -1784 0 7 65
c3 36 8 82 10 101 2 19 7 60 10 90 3 30 8 71 10 90 2 19 7 67 10 105 3 39 7
81 10 95 2 14 7 57 10 95 4 39 8 86 10 105 2 19 7 62 10 95 8 70 10 87 19 180
4 39 10 95 13 125 8 75 10 94 17 180 4 41 9 86 11 100 4 27 10 87 20 190 4 36
8 76 10 90 2 14 6 54 10 90 13 144 16 166 20 200 2 19 7 64 10 99 4 35 8 75
10 90 1 14 6 55 9 91 19 189 27 263 31 290 2 14 6 59 10 100 4 41 8 86 10 100
2 14 7 59 11 100 3 41 7 86 9 100 2 14 6 52 9 85 4 33 9 76 11 95 3 19 7 64
10 99 3 36 8 81 10 100 3 20 7 65 10 101 3 36 8 83 11 105 9 71 13 109 19 170
8 88 35 345 39 380 3 17 7 64 11 105 3 41 8 86 10 100 2 14 7 59 11 100 3 41
8 89 9 105 12 100 15 126 20 185 3 36 8 76 10 90 2 14 7 59 10 100 3 41 8 86
10 100 2 14 7 57 10 95 3 39 8 84 10 100 4 33 13 111 20 190 3 28 7 68 10 90
3 22 7 65 10 95 3 30 8 78 10 105 3 28 8 75 11 105 3 30 7 69 9 85 2 17 6 53
9 80 3 28 8 77 11 110 4 33 8 78 10 100 7 75 16 166 20 183 1 9 6 53 10 97 4
44 9 91 10 105 1 14 5 54 9 90 4 36 9 81 11 100 3 19 7 62 10 95 3 33 7 76 10
95 2 19 7 61 10 93 10 114 16 173 21 207 2 19 7 64 10 100 3 36 7 76 9 90 2
14 7 57 10 95 4 39 8 81 10 95 2 14 7 59 10 100 3 41 8 82 10 90 2 8 7 53 10
100 4 47 8 92 10 100 1 8 6 49 10 90 4 41 11 77 16 80 4 3 77 5 161 3 84 -1
536 -5 1003 -8z m5320 -21 c1098 -11 1079 -10 1280 -50 176 -35 279 -72 1038
-370 104 -41 193 -74 199 -74 7 0 59 -48 116 -107 57 -60 190 -195 294 -302
118 -121 196 -210 207 -235 10 -23 92 -212 181 -421 89 -209 173 -404 186
-432 13 -29 26 -68 29 -85 3 -18 8 -41 11 -50 6 -20 9 -35 34 -173 29 -164 29
-165 40 -235 12 -69 17 -102 24 -135 2 -11 7 -45 10 -76 4 -31 8 -65 10 -75 2
-11 7 -48 11 -84 4 -36 9 -78 11 -95 2 -16 6 -68 10 -115 3 -47 7 -101 9 -120
5 -49 17 -363 18 -452 0 -71 -10 -218 -18 -248 -2 -8 -7 -42 -10 -74 -3 -33
-8 -73 -10 -90 -5 -36 -23 -180 -30 -248 -10 -92 -15 -133 -19 -158 -3 -14 -7
-50 -10 -80 -6 -58 -12 -108 -21 -175 -2 -22 -7 -62 -10 -90 -9 -76 -10 -83
-111 -495 -145 -590 -165 -671 -178 -694 -6 -11 -42 -74 -81 -139 -38 -64 -74
-125 -80 -135 -5 -10 -88 -148 -183 -307 -144 -243 -184 -303 -248 -370 -503
-526 -571 -595 -584 -595 -6 0 -27 -10 -48 -23 -112 -70 -472 -254 -597 -305
-97 -39 -264 -91 -410 -128 -38 -9 -166 -34 -205 -40 -19 -3 -46 -7 -60 -9
-14 -2 -52 -7 -85 -11 -33 -4 -76 -8 -95 -11 -19 -2 -565 -5 -1212 -7 -834 -2
-1178 1 -1178 8 -1 14 -1 8049 0 8094 l0 34 623 -6 c342 -3 856 -9 1142 -12z
m-9351 -10689 c-2 -16 -6 -55 -9 -85 -3 -30 -8 -68 -10 -85 -5 -31 -13 -115
-20 -195 -3 -25 -7 -65 -10 -90 -6 -51 -11 -97 -20 -190 -4 -36 -8 -76 -10
-90 -2 -14 -6 -52 -10 -85 -11 -114 -17 -170 -20 -195 -2 -14 -7 -54 -10 -90
-3 -36 -8 -82 -10 -102 -3 -21 -7 -55 -10 -75 -2 -21 -7 -65 -10 -98 -3 -33
-8 -78 -10 -100 -8 -71 -14 -129 -20 -180 -3 -27 -7 -70 -10 -95 -7 -69 -14
-134 -20 -192 -3 -29 -8 -69 -10 -88 -5 -37 -9 -78 -21 -195 -3 -38 -8 -78
-10 -89 -2 -10 -6 -53 -10 -94 -3 -42 -7 -84 -9 -93 -2 -10 -7 -49 -11 -86 -9
-94 -11 -110 -18 -173 -9 -80 -15 -137 -21 -205 -3 -33 -8 -71 -10 -85 -2 -14
-7 -54 -10 -90 -3 -36 -8 -81 -10 -100 -15 -132 -20 -171 -40 -380 -2 -19 -6
-57 -9 -85 -4 -27 -9 -72 -12 -100 -3 -27 -7 -61 -9 -75 -6 -42 -18 -174 -17
-192 1 -28 -5 -21 -16 15 -28 96 -150 544 -164 602 -5 22 -21 81 -35 130 -13
50 -27 97 -29 105 -6 25 -50 188 -89 330 -20 74 -39 144 -42 155 -6 23 -158
586 -204 755 -53 195 -75 274 -159 585 -44 165 -96 356 -115 425 -19 69 -42
152 -51 185 -8 33 -20 76 -25 95 -5 19 -11 42 -13 50 -3 8 -30 110 -61 225
-51 188 -67 245 -79 295 -2 8 -13 47 -24 85 l-19 70 782 0 782 0 -3 -30z"/>
</g>
</svg>
