<svg id="svg" version="1.1" xmlns="http://www.w3.org/2000/svg" xmlns:xlink="http://www.w3.org/1999/xlink" width="800" height="800" viewBox="0, 0, 400,400"><g id="svgg"><path id="path0" d="M47.760 50.958 C 47.832 51.706,48.036 53.888,48.826 62.375 C 49.011 64.369,49.315 67.632,49.500 69.625 C 49.686 71.619,49.986 74.844,50.167 76.792 C 50.348 78.740,50.646 81.946,50.830 83.917 C 51.013 85.888,51.313 89.113,51.496 91.084 C 51.680 93.055,51.978 96.261,52.159 98.209 C 52.340 100.156,52.640 103.381,52.825 105.375 C 53.011 107.369,53.315 110.632,53.500 112.625 C 53.686 114.619,53.988 117.862,54.171 119.833 C 54.355 121.804,54.655 125.029,54.838 127.000 C 55.021 128.971,55.319 132.177,55.500 134.125 C 55.681 136.073,55.980 139.280,56.163 141.250 C 56.346 143.221,56.646 146.446,56.830 148.417 C 57.013 150.388,57.313 153.613,57.496 155.584 C 57.680 157.555,57.978 160.761,58.159 162.709 C 58.340 164.656,58.640 167.881,58.825 169.875 C 59.363 175.648,59.795 180.298,60.168 184.333 C 60.359 186.396,60.659 189.621,60.835 191.500 C 61.011 193.379,61.311 196.604,61.502 198.667 C 61.693 200.729,61.993 203.954,62.169 205.833 C 62.345 207.713,62.644 210.938,62.835 213.000 C 63.025 215.063,63.325 218.287,63.500 220.167 C 63.675 222.046,63.975 225.271,64.167 227.333 C 64.358 229.396,64.658 232.621,64.833 234.500 C 65.009 236.379,65.309 239.604,65.500 241.667 C 65.691 243.729,65.991 246.954,66.167 248.833 C 66.342 250.713,66.642 253.938,66.833 256.000 C 67.025 258.063,67.325 261.287,67.501 263.167 C 67.677 265.046,67.976 268.271,68.165 270.333 C 68.354 272.396,68.654 275.621,68.831 277.500 C 69.009 279.379,69.310 282.604,69.499 284.667 C 69.689 286.729,69.993 290.010,70.174 291.958 C 70.355 293.906,70.654 297.112,70.837 299.083 C 71.020 301.054,71.320 304.279,71.504 306.250 C 71.687 308.220,71.989 311.464,72.174 313.458 C 72.360 315.452,72.658 318.658,72.837 320.583 C 73.017 322.508,73.210 324.601,73.268 325.233 L 73.372 326.383 75.728 326.276 C 77.023 326.216,83.234 326.168,89.529 326.167 L 100.974 326.167 101.151 325.625 C 101.249 325.327,101.475 324.521,101.655 323.833 C 101.834 323.146,102.092 322.171,102.228 321.667 C 102.523 320.571,103.042 318.634,103.500 316.917 C 103.683 316.229,103.983 315.104,104.167 314.417 C 104.350 313.729,104.656 312.585,104.846 311.875 C 105.036 311.165,105.292 310.208,105.414 309.750 C 105.536 309.292,107.974 300.179,110.831 289.500 C 113.688 278.821,116.170 269.540,116.346 268.875 C 116.522 268.210,116.817 267.104,117.000 266.417 C 117.183 265.729,117.483 264.604,117.667 263.917 C 118.092 262.321,118.579 260.503,118.895 259.333 C 119.190 258.238,119.709 256.301,120.167 254.583 C 120.350 253.896,120.656 252.752,120.846 252.042 C 121.036 251.331,121.291 250.375,121.413 249.917 C 122.324 246.481,128.203 224.517,128.278 224.265 C 128.421 223.785,128.567 224.147,129.079 226.250 C 129.325 227.258,130.499 232.021,131.688 236.833 C 132.878 241.646,134.518 248.283,135.333 251.583 C 136.149 254.883,137.677 261.071,138.731 265.333 C 139.784 269.596,141.330 275.858,142.167 279.250 C 143.004 282.642,144.624 289.204,145.768 293.833 C 146.912 298.462,148.607 305.325,149.534 309.083 C 150.462 312.842,151.796 318.242,152.499 321.083 L 153.777 326.250 167.652 326.389 C 175.284 326.465,181.568 326.488,181.617 326.439 C 181.712 326.344,181.938 324.454,182.499 319.083 C 182.902 315.215,183.380 310.670,183.831 306.417 C 184.006 304.767,184.306 301.917,184.498 300.083 C 184.691 298.250,184.992 295.400,185.167 293.750 C 185.343 292.100,185.641 289.287,185.829 287.500 C 186.018 285.712,186.319 282.862,186.499 281.167 C 186.867 277.701,187.343 273.202,187.838 268.500 C 188.021 266.759,188.321 263.909,188.504 262.167 C 188.688 260.425,188.990 257.557,189.176 255.792 C 189.362 254.027,189.664 251.158,189.847 249.417 C 190.030 247.675,190.323 244.900,190.498 243.250 C 190.673 241.600,190.973 238.750,191.165 236.917 C 191.357 235.083,191.659 232.233,191.835 230.583 C 192.011 228.933,192.272 226.458,192.416 225.083 C 192.559 223.708,192.717 222.377,192.768 222.125 L 192.860 221.667 182.943 221.667 L 173.026 221.667 172.932 222.125 C 172.880 222.377,172.724 223.708,172.585 225.083 C 172.446 226.458,172.224 228.558,172.091 229.750 C 171.957 230.942,171.691 233.379,171.499 235.167 C 171.308 236.954,171.005 239.767,170.826 241.417 C 170.648 243.067,170.462 244.829,170.413 245.333 C 170.363 245.838,170.213 247.225,170.079 248.417 C 169.944 249.608,169.687 251.971,169.507 253.667 C 168.944 258.975,168.497 263.143,168.168 266.167 C 167.994 267.771,167.699 270.508,167.513 272.250 C 167.327 273.992,167.058 276.467,166.916 277.750 C 166.774 279.033,166.544 281.246,166.405 282.667 C 166.081 285.974,165.972 286.361,165.680 285.241 C 165.562 284.788,165.366 284.079,165.245 283.667 C 165.123 283.254,164.523 281.042,163.912 278.750 C 163.301 276.458,162.664 274.096,162.497 273.500 C 162.187 272.392,162.020 271.777,160.423 265.833 C 159.919 263.954,159.358 261.892,159.178 261.250 C 158.998 260.608,158.391 258.358,157.829 256.250 C 157.267 254.142,156.705 252.079,156.582 251.667 C 156.458 251.254,155.857 249.042,155.247 246.750 C 154.636 244.458,154.002 242.096,153.836 241.500 C 153.479 240.214,152.998 238.440,151.757 233.833 C 151.251 231.954,150.681 229.854,150.491 229.167 C 150.300 228.479,149.681 226.217,149.114 224.139 L 148.083 220.361 132.360 204.584 C 123.712 195.907,116.619 188.832,116.598 188.862 C 116.576 188.892,116.391 189.554,116.186 190.333 C 115.980 191.112,115.562 192.650,115.256 193.750 C 114.658 195.897,114.304 197.187,112.990 202.000 C 112.527 203.696,111.807 206.321,111.392 207.833 C 110.976 209.346,110.535 210.958,110.411 211.417 C 110.119 212.501,109.065 216.348,108.083 219.917 C 107.654 221.475,107.202 223.125,107.079 223.583 C 106.956 224.042,106.247 226.629,105.503 229.333 C 104.759 232.037,104.000 234.813,103.816 235.500 C 103.632 236.188,103.260 237.537,102.989 238.500 C 102.562 240.017,101.581 243.602,100.502 247.583 C 100.328 248.225,99.578 250.963,98.835 253.667 C 98.092 256.371,97.342 259.108,97.168 259.750 C 96.995 260.392,96.245 263.129,95.501 265.833 C 94.758 268.537,94.000 271.313,93.816 272.000 C 93.632 272.688,93.260 274.037,92.989 275.000 C 92.718 275.962,92.119 278.137,91.657 279.833 C 91.196 281.529,90.662 283.479,90.471 284.167 C 90.280 284.854,90.087 285.585,90.042 285.792 C 89.868 286.599,89.707 286.088,89.598 284.375 C 89.535 283.390,89.414 281.946,89.330 281.167 C 89.246 280.387,89.060 278.400,88.917 276.750 C 88.634 273.495,88.344 270.247,87.837 264.667 C 87.658 262.696,87.356 259.358,87.167 257.250 C 86.977 255.142,86.677 251.804,86.500 249.833 C 86.323 247.862,86.023 244.525,85.833 242.417 C 85.644 240.308,85.344 236.971,85.167 235.000 C 84.989 233.029,84.689 229.692,84.500 227.583 C 83.148 212.541,82.834 209.053,82.575 206.250 C 82.439 204.783,82.292 203.133,82.246 202.583 C 82.167 201.618,81.770 197.223,81.246 191.500 C 81.107 189.987,80.957 188.300,80.912 187.750 C 80.835 186.793,80.452 182.549,79.912 176.667 C 79.774 175.154,79.624 173.467,79.579 172.917 C 79.501 171.959,79.118 167.716,78.579 161.833 C 78.440 160.321,78.290 158.633,78.246 158.083 C 78.201 157.533,78.017 155.471,77.837 153.500 C 77.658 151.529,77.356 148.192,77.166 146.083 C 76.569 139.428,76.188 135.200,75.839 131.333 C 75.652 129.271,75.349 125.896,75.165 123.833 C 74.981 121.771,74.681 118.433,74.498 116.417 C 74.316 114.400,74.016 111.063,73.832 109.000 C 73.321 103.282,72.848 98.036,72.575 95.083 C 72.439 93.617,72.292 91.967,72.247 91.417 C 72.165 90.414,71.777 86.152,71.232 80.270 L 70.941 77.122 69.429 75.338 C 68.597 74.356,66.117 71.464,63.917 68.910 C 59.144 63.371,52.158 55.246,49.629 52.292 C 47.532 49.843,47.660 49.934,47.760 50.958 M187.614 78.958 C 187.574 79.027,187.453 79.983,187.345 81.083 C 187.237 82.183,187.005 84.471,186.829 86.167 C 186.654 87.862,186.361 90.750,186.178 92.583 C 185.996 94.417,185.691 97.454,185.500 99.333 C 185.310 101.212,185.010 104.175,184.833 105.917 C 184.657 107.658,184.357 110.621,184.167 112.500 C 183.976 114.379,183.676 117.342,183.500 119.083 C 183.323 120.825,183.026 123.787,182.838 125.667 C 182.651 127.546,182.350 130.508,182.171 132.250 C 181.991 133.992,181.695 136.917,181.512 138.750 C 181.329 140.583,181.024 143.621,180.834 145.500 C 180.643 147.379,180.343 150.342,180.167 152.083 C 179.990 153.825,179.690 156.787,179.500 158.667 C 179.310 160.546,179.010 163.508,178.833 165.250 C 178.657 166.992,178.358 169.954,178.170 171.833 C 177.796 175.575,177.307 180.373,176.858 184.708 L 176.569 187.500 186.360 187.500 L 196.152 187.500 196.237 186.958 C 196.331 186.366,196.648 183.412,197.173 178.250 C 197.359 176.417,197.657 173.529,197.834 171.833 C 198.012 170.137,198.312 167.250,198.502 165.417 C 198.692 163.583,198.992 160.696,199.169 159.000 C 199.346 157.304,199.646 154.417,199.835 152.583 C 200.025 150.750,200.325 147.862,200.502 146.167 C 200.679 144.471,200.979 141.583,201.168 139.750 C 201.994 131.763,203.089 121.215,203.833 114.083 C 204.014 112.342,204.316 109.417,204.504 107.583 C 204.691 105.750,204.990 102.862,205.167 101.167 C 205.472 98.259,205.641 96.632,206.501 88.333 C 206.696 86.454,206.998 83.608,207.172 82.008 C 207.346 80.408,207.472 79.087,207.452 79.073 C 207.317 78.972,187.672 78.859,187.614 78.958 M115.667 188.232 C 115.667 188.360,115.785 188.510,115.930 188.566 C 116.428 188.756,116.551 188.666,116.250 188.333 C 115.898 187.944,115.667 187.904,115.667 188.232 " stroke="none" fill="#fbfbfb" fill-rule="evenodd"></path><path id="path1" d="M194.333 48.185 C 165.962 48.260,121.037 48.375,94.500 48.441 C 67.962 48.506,46.381 48.589,46.542 48.625 C 47.167 48.766,46.865 49.188,46.225 49.068 L 45.617 48.954 45.717 49.602 C 45.773 49.958,45.862 50.850,45.917 51.583 C 45.971 52.317,46.158 54.417,46.333 56.250 C 46.507 58.083,46.805 61.271,46.996 63.333 C 47.186 65.396,47.487 68.621,47.665 70.500 C 47.842 72.379,48.143 75.604,48.333 77.667 C 48.523 79.729,48.824 82.992,49.003 84.917 C 49.182 86.842,49.481 90.067,49.668 92.083 C 49.854 94.100,50.155 97.325,50.335 99.250 C 50.516 101.175,50.816 104.400,51.002 106.417 C 51.397 110.690,51.865 115.721,52.332 120.708 C 52.667 124.291,53.049 128.404,53.668 135.083 C 53.854 137.100,54.156 140.344,54.337 142.292 C 54.518 144.240,54.817 147.446,55.000 149.417 C 55.183 151.387,55.483 154.612,55.667 156.583 C 55.850 158.554,56.150 161.779,56.333 163.750 C 56.517 165.721,56.817 168.946,57.000 170.917 C 57.183 172.887,57.483 176.112,57.667 178.083 C 57.850 180.054,58.150 183.279,58.333 185.250 C 58.517 187.221,58.817 190.446,59.000 192.417 C 57.136 172.381,65.798 265.492,60.333 206.750 C 60.517 208.721,60.817 211.946,61.000 213.917 C 61.183 215.887,61.483 219.112,61.667 221.083 C 61.850 223.054,62.150 226.279,62.333 228.250 C 62.517 230.221,62.817 233.446,63.000 235.417 C 63.183 237.387,63.483 240.612,63.667 242.583 C 63.850 244.554,64.150 247.779,64.333 249.750 C 64.517 251.721,64.817 254.946,65.000 256.917 C 65.183 258.887,65.485 262.131,65.670 264.125 C 66.195 269.788,66.627 274.432,66.995 278.375 C 67.181 280.369,67.483 283.612,67.667 285.583 C 67.850 287.554,68.150 290.779,68.333 292.750 C 68.517 294.721,68.817 297.946,69.000 299.917 C 69.183 301.887,69.482 305.094,69.663 307.042 C 69.844 308.990,70.149 312.271,70.339 314.333 C 70.530 316.396,70.829 319.546,71.003 321.333 C 71.177 323.121,71.366 325.301,71.423 326.178 C 71.480 327.056,71.586 327.870,71.659 327.988 C 71.838 328.277,102.499 328.060,102.580 327.769 C 102.743 327.177,103.795 323.245,104.323 321.250 C 104.492 320.608,104.792 319.483,104.989 318.750 C 105.186 318.017,105.496 316.854,105.679 316.167 C 105.861 315.479,106.158 314.373,106.338 313.708 C 106.519 313.044,106.817 311.938,107.000 311.250 C 107.183 310.563,107.479 309.456,107.656 308.792 C 107.834 308.127,108.136 306.983,108.328 306.250 C 108.520 305.517,108.824 304.373,109.005 303.708 C 109.186 303.044,109.483 301.938,109.667 301.250 C 109.850 300.563,110.148 299.456,110.328 298.792 C 110.509 298.127,110.814 296.983,111.005 296.250 C 111.496 294.375,111.972 292.599,112.325 291.333 C 112.492 290.737,112.793 289.612,112.996 288.833 C 113.199 288.054,113.498 286.929,113.661 286.333 C 113.824 285.737,114.121 284.612,114.321 283.833 C 114.522 283.054,114.831 281.892,115.008 281.250 C 115.415 279.776,115.855 278.144,116.335 276.333 C 116.541 275.554,116.843 274.429,117.007 273.833 C 117.170 273.237,117.471 272.112,117.676 271.333 C 118.250 269.151,118.640 267.693,118.991 266.417 C 119.168 265.775,119.470 264.650,119.663 263.917 C 120.029 262.525,120.427 261.025,120.990 258.914 C 121.173 258.226,121.473 257.101,121.657 256.414 C 121.840 255.726,122.140 254.601,122.323 253.914 C 122.507 253.226,122.811 252.083,123.000 251.374 C 123.189 250.664,123.486 249.558,123.661 248.917 C 123.836 248.275,124.132 247.168,124.318 246.457 C 124.784 244.679,125.281 242.812,125.672 241.375 C 125.852 240.710,126.150 239.604,126.333 238.917 C 127.221 235.588,127.378 235.008,127.663 234.000 C 127.831 233.404,128.016 232.638,128.074 232.298 C 128.219 231.447,128.462 231.363,128.588 232.120 C 128.645 232.467,128.832 233.275,129.001 233.917 C 129.171 234.558,129.471 235.758,129.667 236.583 C 130.110 238.447,130.911 241.684,131.666 244.667 C 131.840 245.354,132.289 247.192,132.663 248.750 C 133.037 250.308,133.491 252.165,133.672 252.875 C 133.852 253.585,134.147 254.748,134.327 255.458 C 134.507 256.169,135.260 259.225,135.999 262.250 C 137.266 267.435,137.561 268.625,138.334 271.667 C 138.508 272.354,139.105 274.792,139.660 277.083 C 140.215 279.375,140.816 281.832,140.996 282.543 C 141.176 283.254,141.474 284.436,141.657 285.169 C 141.841 285.903,142.137 287.083,142.315 287.793 C 142.494 288.503,142.802 289.758,142.999 290.583 C 143.196 291.408,143.502 292.665,143.679 293.375 C 143.855 294.085,144.154 295.285,144.341 296.042 C 144.529 296.798,144.825 297.979,145.000 298.667 C 145.174 299.354,145.772 301.792,146.329 304.083 C 146.885 306.375,147.493 308.850,147.678 309.583 C 148.488 312.781,148.684 313.570,149.333 316.250 C 149.711 317.808,150.162 319.646,150.335 320.333 C 150.509 321.021,150.808 322.221,151.000 323.000 C 151.192 323.779,151.494 324.979,151.671 325.667 C 151.848 326.354,152.040 327.198,152.098 327.542 L 152.204 328.167 153.727 328.167 C 154.565 328.167,161.542 328.247,169.233 328.345 C 179.421 328.475,183.247 328.473,183.330 328.339 C 183.392 328.238,183.573 326.939,183.732 325.453 C 183.890 323.966,184.161 321.438,184.334 319.833 C 184.507 318.229,184.805 315.417,184.996 313.583 C 185.188 311.750,185.489 308.900,185.665 307.250 C 185.842 305.600,186.136 302.825,186.319 301.083 C 186.784 296.672,187.279 291.977,187.674 288.250 C 187.859 286.508,188.158 283.677,188.338 281.958 C 188.519 280.240,188.814 277.427,188.995 275.708 C 189.500 270.902,189.956 266.571,190.333 263.000 C 190.522 261.212,190.827 258.325,191.011 256.583 C 191.488 252.055,191.964 247.544,192.331 244.083 C 192.505 242.433,192.806 239.583,193.000 237.750 C 193.194 235.917,193.495 233.104,193.669 231.500 C 193.843 229.896,194.157 226.978,194.367 225.015 L 194.749 221.448 207.750 221.556 C 214.900 221.616,226.360 221.666,233.216 221.666 L 245.683 221.667 245.633 274.746 L 245.583 327.825 246.250 327.906 C 246.849 327.978,251.416 328.092,267.732 328.442 L 272.881 328.552 272.765 317.818 C 272.592 301.676,272.340 254.121,272.336 236.814 L 272.333 221.544 281.458 221.447 C 299.274 221.259,309.212 220.672,312.583 219.610 C 313.592 219.292,316.517 218.420,319.083 217.671 L 323.750 216.310 330.125 213.114 L 336.500 209.917 343.321 204.333 L 350.142 198.750 354.782 192.583 C 359.918 185.757,359.660 186.137,361.289 183.000 C 361.932 181.762,363.034 179.646,363.738 178.296 C 364.866 176.134,365.303 174.995,367.412 168.713 L 369.805 161.583 371.313 152.833 C 372.143 148.021,372.863 143.408,372.914 142.583 C 372.964 141.758,373.168 138.908,373.367 136.250 C 373.830 130.049,373.831 124.744,373.369 117.917 C 373.177 115.075,372.974 111.888,372.917 110.833 C 372.827 109.136,372.512 107.184,371.342 101.083 C 370.947 99.023,370.568 97.013,369.485 91.250 L 368.639 86.750 366.834 82.917 C 365.842 80.808,364.526 78.033,363.911 76.750 C 363.295 75.467,362.580 73.949,362.321 73.378 C 361.382 71.308,355.613 64.016,353.200 61.849 C 352.036 60.803,350.446 59.371,349.667 58.666 C 346.002 55.351,345.372 54.831,344.750 54.602 C 344.383 54.467,341.158 53.303,337.583 52.016 L 331.083 49.674 328.167 49.346 C 321.370 48.581,320.213 48.480,316.167 48.304 C 310.541 48.059,260.212 48.010,194.333 48.185 M48.011 50.214 C 48.155 50.325,49.104 51.406,50.120 52.615 C 51.136 53.824,52.135 54.986,52.339 55.198 C 52.543 55.410,53.457 56.475,54.370 57.565 C 55.284 58.656,56.183 59.706,56.367 59.899 C 56.552 60.092,57.461 61.150,58.388 62.250 C 59.315 63.350,60.386 64.587,60.769 65.000 C 61.153 65.412,62.050 66.462,62.763 67.333 C 63.477 68.204,64.257 69.109,64.497 69.345 C 64.738 69.581,65.678 70.668,66.587 71.762 C 67.496 72.855,68.406 73.917,68.609 74.122 C 69.513 75.033,71.019 76.941,71.074 77.247 C 71.108 77.432,71.297 79.421,71.494 81.667 C 71.944 86.773,72.414 92.028,72.835 96.667 C 73.015 98.638,73.314 101.975,73.502 104.083 C 73.689 106.192,73.989 109.529,74.168 111.500 C 74.348 113.471,74.648 116.808,74.836 118.917 C 75.023 121.025,75.324 124.362,75.504 126.333 C 75.684 128.304,75.984 131.642,76.170 133.750 C 76.357 135.858,76.657 139.196,76.837 141.167 C 77.016 143.137,77.315 146.438,77.499 148.500 C 77.933 153.343,78.408 158.629,78.831 163.333 C 79.017 165.396,79.320 168.771,79.505 170.833 C 79.690 172.896,79.989 176.196,80.168 178.167 C 80.348 180.137,80.648 183.475,80.835 185.583 C 81.023 187.692,81.323 191.029,81.502 193.000 C 81.681 194.971,81.981 198.308,82.168 200.417 C 82.356 202.525,82.656 205.862,82.835 207.833 C 83.014 209.804,83.315 213.142,83.502 215.250 C 83.690 217.358,83.990 220.696,84.170 222.667 C 84.350 224.637,84.650 227.975,84.837 230.083 C 85.024 232.192,85.324 235.529,85.504 237.500 C 85.684 239.471,85.984 242.808,86.170 244.917 C 86.357 247.025,86.657 250.362,86.837 252.333 C 87.016 254.304,87.315 257.604,87.499 259.667 C 88.236 267.886,88.522 271.069,88.833 274.500 C 89.518 282.052,89.873 285.752,89.920 285.803 C 89.946 285.832,90.049 285.495,90.149 285.053 C 90.330 284.254,90.492 283.647,91.501 280.000 C 91.792 278.946,92.132 277.708,92.256 277.250 C 93.101 274.134,94.212 270.061,94.496 269.042 C 94.682 268.377,94.992 267.252,95.185 266.542 C 95.379 265.831,95.636 264.912,95.755 264.500 C 95.875 264.087,96.175 263.000,96.421 262.083 C 96.667 261.167,97.003 259.929,97.167 259.333 C 97.330 258.737,97.666 257.500,97.912 256.583 C 98.159 255.667,98.460 254.579,98.581 254.167 C 98.703 253.754,99.003 252.667,99.248 251.750 C 99.493 250.833,99.792 249.746,99.912 249.333 C 100.032 248.921,100.297 247.946,100.500 247.167 C 100.703 246.387,100.968 245.412,101.088 245.000 C 101.208 244.588,101.507 243.500,101.752 242.583 C 101.997 241.667,102.297 240.579,102.419 240.167 C 102.540 239.754,102.834 238.704,103.071 237.833 C 103.308 236.963,103.880 234.862,104.343 233.167 C 104.806 231.471,105.286 229.708,105.410 229.250 C 105.534 228.792,105.875 227.554,106.167 226.500 C 106.458 225.446,106.798 224.208,106.921 223.750 C 107.044 223.292,107.496 221.642,107.925 220.083 C 108.354 218.525,108.763 217.025,108.833 216.750 C 108.904 216.475,109.203 215.387,109.496 214.333 C 109.790 213.279,110.131 212.042,110.255 211.583 C 110.378 211.125,110.829 209.475,111.258 207.917 C 111.687 206.358,112.096 204.858,112.167 204.583 C 112.238 204.308,112.536 203.221,112.830 202.167 C 113.124 201.112,113.465 199.875,113.588 199.417 C 113.711 198.958,114.163 197.308,114.592 195.750 C 115.020 194.192,115.430 192.692,115.501 192.417 C 115.573 192.142,115.820 191.229,116.050 190.387 C 116.482 188.811,116.477 188.667,115.993 188.667 C 115.836 188.667,115.614 188.554,115.500 188.417 C 115.248 188.113,114.845 188.090,114.762 188.375 C 114.345 189.815,113.968 191.170,113.662 192.333 C 113.457 193.112,113.158 194.200,112.997 194.750 C 112.836 195.300,112.543 196.350,112.347 197.083 C 112.011 198.339,111.707 199.451,111.001 202.000 C 110.836 202.596,110.534 203.721,110.329 204.500 C 110.124 205.279,109.824 206.367,109.663 206.917 C 109.502 207.467,109.210 208.517,109.014 209.250 C 108.587 210.843,108.121 212.561,107.667 214.208 C 107.484 214.873,107.181 215.979,106.994 216.667 C 106.807 217.354,106.499 218.479,106.309 219.167 C 106.120 219.854,105.831 220.904,105.667 221.500 C 105.503 222.096,105.213 223.146,105.024 223.833 C 104.834 224.521,104.526 225.646,104.339 226.333 C 104.152 227.021,103.849 228.127,103.666 228.792 C 102.979 231.285,102.660 232.452,102.333 233.667 C 102.148 234.354,101.848 235.442,101.667 236.083 C 101.485 236.725,101.185 237.813,101.000 238.500 C 100.673 239.715,100.354 240.882,99.667 243.375 C 99.350 244.528,99.071 245.551,98.314 248.333 C 98.127 249.021,97.838 250.071,97.672 250.667 C 97.507 251.262,97.212 252.331,97.019 253.042 C 96.825 253.752,96.517 254.877,96.334 255.542 C 96.016 256.695,95.737 257.717,94.981 260.500 C 94.794 261.188,94.503 262.237,94.334 262.833 C 94.166 263.429,93.862 264.554,93.659 265.333 C 93.456 266.112,93.158 267.200,92.997 267.750 C 92.836 268.300,92.543 269.350,92.347 270.083 C 91.825 272.036,91.386 273.607,91.023 274.833 L 90.702 275.917 90.683 275.000 C 90.672 274.496,90.549 273.071,90.409 271.833 C 90.269 270.596,90.084 268.608,89.997 267.417 C 89.911 266.225,89.729 264.125,89.594 262.750 C 89.459 261.375,89.192 258.487,89.002 256.333 C 88.812 254.179,88.512 250.842,88.335 248.917 C 88.159 246.992,87.859 243.654,87.668 241.500 C 87.478 239.346,87.176 235.971,86.998 234.000 C 86.689 230.596,86.460 228.052,85.665 219.250 C 85.475 217.142,85.175 213.804,84.998 211.833 C 84.822 209.862,84.522 206.525,84.331 204.417 C 84.141 202.308,83.841 198.971,83.665 197.000 C 83.028 189.896,82.660 185.868,82.399 183.167 C 82.253 181.654,82.074 179.554,82.001 178.500 C 81.929 177.446,81.750 175.383,81.605 173.917 C 81.459 172.450,81.187 169.525,81.001 167.417 C 80.815 165.308,80.510 161.896,80.324 159.833 C 80.138 157.771,79.838 154.433,79.657 152.417 C 79.476 150.400,79.179 147.100,78.997 145.083 C 78.815 143.067,78.514 139.729,78.329 137.667 C 77.760 131.323,77.363 126.913,77.010 123.000 C 76.592 118.372,76.119 113.118,75.667 108.083 C 75.477 105.975,75.177 102.638,75.000 100.667 C 74.823 98.696,74.523 95.358,74.333 93.250 C 74.144 91.142,73.843 87.804,73.666 85.833 C 73.488 83.862,73.269 81.422,73.180 80.410 C 73.090 79.398,72.974 78.458,72.921 78.321 C 72.709 77.770,185.074 78.338,185.609 78.890 C 185.640 78.922,185.449 80.928,185.006 85.250 C 184.544 89.753,184.058 94.542,183.663 98.500 C 183.475 100.379,183.173 103.379,182.992 105.167 C 181.751 117.368,181.427 120.585,180.997 124.917 C 180.807 126.842,180.507 129.804,180.331 131.500 C 180.156 133.196,179.856 136.158,179.665 138.083 C 179.474 140.008,179.174 142.971,178.998 144.667 C 178.822 146.362,178.522 149.325,178.331 151.250 C 178.140 153.175,177.840 156.137,177.665 157.833 C 177.489 159.529,177.189 162.492,176.997 164.417 C 176.805 166.342,176.507 169.304,176.333 171.000 C 176.160 172.696,175.860 175.658,175.667 177.583 C 175.474 179.508,175.169 182.433,174.988 184.083 C 174.808 185.733,174.661 187.289,174.663 187.541 L 174.667 187.999 145.429 188.041 L 116.192 188.083 132.245 204.250 C 147.354 219.467,148.307 220.461,148.462 221.167 C 148.552 221.579,149.016 223.342,149.494 225.083 C 149.971 226.825,150.468 228.644,150.598 229.125 C 150.727 229.606,150.950 230.431,151.093 230.958 C 151.236 231.485,151.492 232.442,151.662 233.083 C 151.833 233.725,152.210 235.112,152.501 236.167 C 152.792 237.221,153.136 238.477,153.265 238.958 C 153.394 239.440,153.617 240.265,153.760 240.792 C 153.902 241.319,154.159 242.275,154.330 242.917 C 154.501 243.558,155.028 245.508,155.501 247.250 C 155.974 248.992,156.468 250.810,156.598 251.292 C 156.727 251.773,156.939 252.560,157.069 253.042 C 157.199 253.523,157.693 255.342,158.167 257.083 C 158.641 258.825,159.134 260.644,159.264 261.125 C 159.394 261.606,159.617 262.431,159.760 262.958 C 159.902 263.485,160.159 264.442,160.330 265.083 C 160.501 265.725,161.028 267.675,161.501 269.417 C 161.974 271.158,162.468 272.977,162.598 273.458 C 162.727 273.940,162.939 274.727,163.069 275.208 C 163.315 276.122,164.779 281.507,165.369 283.667 C 165.556 284.354,165.762 285.142,165.826 285.417 C 165.920 285.826,165.963 285.705,166.061 284.750 C 166.220 283.190,167.213 273.926,167.821 268.333 C 168.005 266.637,168.312 263.787,168.503 262.000 C 168.694 260.212,168.993 257.438,169.167 255.833 C 169.341 254.229,169.638 251.454,169.828 249.667 C 170.169 246.457,170.530 243.105,171.164 237.250 C 171.343 235.600,171.645 232.787,171.836 231.000 C 172.027 229.213,172.329 226.463,172.508 224.891 C 172.687 223.319,172.833 221.912,172.833 221.766 C 172.833 221.525,173.787 221.500,182.833 221.500 L 192.833 221.500 192.833 221.847 C 192.833 222.037,192.760 222.881,192.671 223.722 C 192.461 225.703,191.911 230.917,191.495 234.875 C 191.077 238.854,190.592 243.457,190.162 247.542 C 189.976 249.306,189.674 252.175,189.491 253.917 C 189.308 255.658,189.010 258.471,188.829 260.167 C 188.647 261.862,188.460 263.662,188.411 264.167 C 188.362 264.671,188.214 266.058,188.082 267.250 C 187.949 268.442,187.692 270.842,187.511 272.583 C 187.202 275.542,187.001 277.455,186.164 285.375 C 185.982 287.094,185.683 289.925,185.500 291.667 C 185.317 293.408,185.017 296.258,184.833 298.000 C 184.650 299.742,184.350 302.592,184.167 304.333 C 183.983 306.075,183.685 308.906,183.504 310.625 C 183.323 312.344,183.018 315.250,182.826 317.083 C 182.634 318.917,182.332 321.703,182.155 323.276 C 181.978 324.848,181.833 326.241,181.833 326.372 C 181.833 326.631,154.065 326.601,153.786 326.343 C 153.714 326.276,153.165 324.240,152.566 321.819 C 150.058 311.675,146.372 296.750,139.490 268.875 C 138.568 265.140,137.026 258.896,136.063 255.000 C 132.691 241.351,130.970 234.376,129.812 229.667 C 128.477 224.232,128.491 224.287,128.405 224.373 C 128.355 224.423,125.609 234.602,122.988 244.458 C 122.811 245.123,122.517 246.229,122.333 246.917 C 122.150 247.604,121.850 248.729,121.667 249.417 C 121.241 251.012,120.754 252.831,120.439 254.000 C 120.143 255.096,119.625 257.033,119.167 258.750 C 118.983 259.438,118.683 260.563,118.500 261.250 C 118.317 261.938,118.017 263.063,117.833 263.750 C 117.375 265.467,116.857 267.404,116.561 268.500 C 116.095 270.228,115.450 272.641,114.679 275.542 C 114.502 276.206,112.921 282.112,111.167 288.667 C 109.412 295.221,107.832 301.127,107.655 301.792 C 107.478 302.456,107.183 303.563,107.000 304.250 C 106.817 304.938,106.517 306.063,106.333 306.750 C 106.150 307.438,105.850 308.563,105.667 309.250 C 105.483 309.938,105.183 311.063,105.000 311.750 C 104.575 313.345,104.087 315.164,103.772 316.333 C 103.302 318.079,102.480 321.151,101.756 323.878 C 101.518 324.773,101.252 325.692,101.165 325.920 L 101.008 326.335 87.129 326.293 L 73.250 326.250 73.049 324.083 C 72.938 322.892,72.691 320.229,72.500 318.167 C 72.309 316.104,72.009 312.879,71.834 311.000 C 71.658 309.121,71.358 305.896,71.167 303.833 C 70.975 301.771,70.675 298.546,70.500 296.667 C 70.325 294.787,70.025 291.563,69.833 289.500 C 69.642 287.438,69.342 284.212,69.167 282.333 C 68.991 280.454,68.691 277.229,68.500 275.167 C 68.309 273.104,68.009 269.879,67.833 268.000 C 67.658 266.121,67.358 262.896,67.167 260.833 C 66.975 258.771,66.675 255.546,66.500 253.667 C 66.325 251.787,66.026 248.563,65.836 246.500 C 65.451 242.322,64.984 237.308,64.501 232.167 C 64.324 230.287,64.024 227.063,63.835 225.000 C 63.645 222.938,63.342 219.656,63.160 217.709 C 62.978 215.761,62.680 212.555,62.496 210.584 C 62.313 208.613,62.013 205.388,61.830 203.417 C 61.646 201.446,61.346 198.221,61.163 196.250 C 60.980 194.280,60.681 191.073,60.500 189.125 C 60.320 187.177,60.020 183.952,59.834 181.959 C 59.404 177.344,58.919 172.134,58.500 167.625 C 58.320 165.677,58.018 162.433,57.830 160.417 C 57.641 158.400,57.340 155.156,57.159 153.209 C 56.978 151.261,56.681 148.073,56.500 146.125 C 56.320 144.177,56.020 140.952,55.834 138.959 C 55.383 134.114,55.062 130.659,53.829 117.375 C 53.454 113.338,52.986 108.309,52.496 103.042 C 52.310 101.048,52.012 97.842,51.833 95.917 C 51.655 93.992,51.355 90.767,51.167 88.750 C 50.979 86.733,50.679 83.508,50.500 81.583 C 50.321 79.658,50.023 76.452,49.838 74.458 C 49.652 72.465,49.352 69.240,49.171 67.292 C 48.633 61.503,48.176 56.588,47.911 53.750 C 47.774 52.283,47.622 50.840,47.573 50.542 C 47.479 49.966,47.588 49.885,48.011 50.214 M207.427 78.903 C 207.550 78.946,207.541 79.537,207.396 80.858 C 207.281 81.898,207.032 84.287,206.841 86.167 C 206.650 88.046,206.347 90.971,206.167 92.667 C 205.988 94.362,205.687 97.250,205.500 99.083 C 205.313 100.917,205.013 103.804,204.835 105.500 C 204.657 107.196,204.357 110.083,204.169 111.917 C 203.981 113.750,203.681 116.638,203.502 118.333 C 203.323 120.029,203.024 122.917,202.836 124.750 C 202.648 126.583,202.349 129.471,202.171 131.167 C 201.993 132.862,201.693 135.750,201.504 137.583 C 200.967 142.792,200.515 147.144,200.164 150.500 C 199.986 152.196,199.687 155.083,199.500 156.917 C 199.313 158.750,199.013 161.637,198.833 163.333 C 198.654 165.029,198.354 167.917,198.167 169.750 C 197.979 171.583,197.679 174.471,197.500 176.167 C 197.321 177.862,197.021 180.750,196.834 182.583 C 196.647 184.417,196.452 186.310,196.402 186.792 L 196.309 187.667 186.405 187.667 C 177.819 187.667,176.500 187.634,176.500 187.423 C 176.500 187.288,176.575 186.445,176.666 185.548 C 176.757 184.651,176.980 182.454,177.160 180.667 C 177.341 178.879,177.645 175.879,177.835 174.000 C 178.026 172.121,178.326 169.158,178.502 167.417 C 178.678 165.675,178.978 162.712,179.169 160.833 C 179.722 155.385,180.132 151.337,180.501 147.667 C 180.689 145.787,180.995 142.750,181.180 140.917 C 181.365 139.083,181.660 136.158,181.836 134.417 C 182.011 132.675,182.311 129.712,182.502 127.833 C 182.693 125.954,182.993 122.992,183.169 121.250 C 183.345 119.508,183.645 116.546,183.835 114.667 C 184.416 108.948,184.807 105.082,185.167 101.500 C 185.355 99.621,185.655 96.658,185.833 94.917 C 186.012 93.175,186.313 90.175,186.504 88.250 C 186.953 83.712,187.317 80.253,187.433 79.417 L 187.525 78.750 197.388 78.795 C 202.812 78.820,207.330 78.869,207.427 78.903 M241.958 79.271 L 245.833 79.371 245.833 96.310 C 245.833 105.627,245.783 130.069,245.722 150.625 L 245.611 188.000 221.788 188.000 L 197.964 188.000 198.053 187.625 C 198.145 187.242,198.372 185.204,198.996 179.167 C 199.190 177.287,199.494 174.362,199.671 172.667 C 199.848 170.971,200.147 168.083,200.335 166.250 C 200.524 164.417,200.822 161.529,200.999 159.833 C 201.176 158.137,201.476 155.250,201.667 153.417 C 201.857 151.583,202.157 148.696,202.333 147.000 C 202.510 145.304,202.810 142.417,203.000 140.583 C 203.190 138.750,203.490 135.862,203.667 134.167 C 203.843 132.471,204.139 129.621,204.324 127.833 C 204.510 126.046,204.810 123.158,204.991 121.417 C 205.172 119.675,205.476 116.750,205.666 114.917 C 206.261 109.168,206.639 105.530,206.998 102.083 C 207.610 96.211,207.976 92.668,208.333 89.167 C 208.524 87.287,208.830 84.475,209.011 82.917 C 209.193 81.358,209.340 79.833,209.337 79.526 L 209.333 78.969 223.708 79.071 C 231.615 79.126,239.827 79.217,241.958 79.271 M302.000 79.504 C 313.363 79.678,312.957 79.606,321.417 82.920 C 323.708 83.817,326.521 84.914,327.667 85.356 L 329.750 86.161 333.611 90.122 L 337.472 94.083 340.223 100.500 C 343.157 107.345,343.042 106.985,343.989 112.333 C 345.322 119.863,345.813 127.671,345.245 132.326 C 345.105 133.476,344.844 135.617,344.665 137.083 C 343.526 146.436,343.938 144.336,340.542 158.083 C 340.070 159.991,334.349 170.200,332.696 172.083 C 332.374 172.450,330.531 174.390,328.601 176.395 C 326.670 178.400,325.014 180.135,324.920 180.249 C 324.420 180.862,317.122 184.619,314.750 185.484 C 311.270 186.754,307.690 187.519,303.767 187.830 C 300.528 188.086,271.707 188.059,271.967 187.800 C 272.121 187.645,272.167 175.325,272.167 133.363 L 272.167 79.126 282.542 79.246 C 288.248 79.312,297.004 79.428,302.000 79.504 M171.103 221.759 C 170.995 222.042,170.850 223.237,170.331 228.167 C 170.143 229.954,169.842 232.767,169.664 234.417 C 169.197 238.729,168.725 243.112,168.334 246.750 C 167.839 251.365,167.357 255.846,167.000 259.167 C 166.827 260.771,166.526 263.583,166.330 265.417 C 166.135 267.250,165.831 269.950,165.654 271.417 C 165.478 272.883,165.333 274.482,165.333 274.968 C 165.333 276.020,165.125 275.982,164.840 274.879 C 164.727 274.442,164.482 273.521,164.296 272.833 C 164.110 272.146,163.817 271.058,163.644 270.417 C 163.471 269.775,163.181 268.706,162.998 268.042 C 162.465 266.097,162.035 264.510,161.655 263.083 C 161.264 261.614,160.840 260.052,160.333 258.208 C 160.150 257.544,159.850 256.438,159.667 255.750 C 159.483 255.063,159.186 253.956,159.005 253.292 C 158.824 252.627,158.514 251.483,158.316 250.750 C 158.118 250.017,157.813 248.892,157.638 248.250 C 157.463 247.608,157.173 246.540,156.994 245.875 C 156.814 245.210,156.519 244.123,156.338 243.458 C 156.158 242.794,155.855 241.669,155.667 240.960 C 155.141 238.983,154.659 237.195,154.330 236.000 C 154.166 235.404,153.869 234.317,153.670 233.583 C 153.471 232.850,153.202 231.869,153.071 231.404 C 152.941 230.938,152.677 229.963,152.485 229.237 C 151.448 225.318,150.588 222.225,150.415 221.792 C 150.304 221.516,150.862 221.500,160.750 221.500 C 170.130 221.500,171.192 221.527,171.103 221.759 " stroke="none" fill="#043363" fill-rule="evenodd"></path><path id="path2" d="M167.417 48.009 C 124.425 48.069,79.519 48.129,67.625 48.142 L 46.000 48.167 46.000 48.583 C 46.000 48.813,46.075 49.000,46.167 49.000 C 46.258 49.000,46.333 48.897,46.333 48.771 C 46.333 48.578,53.741 48.526,93.792 48.436 C 119.894 48.378,175.713 48.245,217.833 48.142 C 293.538 47.956,307.380 47.981,316.000 48.318 C 320.205 48.482,321.361 48.580,328.167 49.346 L 331.083 49.674 337.583 52.016 C 341.158 53.303,344.383 54.467,344.750 54.602 C 345.372 54.831,346.002 55.351,349.667 58.666 C 350.446 59.371,352.036 60.803,353.200 61.849 C 355.613 64.016,361.382 71.308,362.321 73.378 C 362.580 73.949,363.295 75.467,363.911 76.750 C 364.526 78.033,365.842 80.808,366.834 82.917 L 368.639 86.750 369.485 91.250 C 370.568 97.013,370.947 99.023,371.342 101.083 C 372.512 107.184,372.827 109.136,372.917 110.833 C 372.974 111.888,373.177 115.075,373.369 117.917 C 373.831 124.744,373.830 130.049,373.367 136.250 C 373.168 138.908,372.964 141.758,372.914 142.583 C 372.863 143.408,372.143 148.021,371.313 152.833 L 369.805 161.583 367.412 168.713 C 365.303 174.995,364.866 176.134,363.738 178.296 C 363.034 179.646,361.932 181.762,361.289 183.000 C 359.660 186.137,359.918 185.757,354.782 192.583 L 350.142 198.750 343.321 204.333 L 336.500 209.917 330.125 213.114 L 323.750 216.310 319.083 217.671 C 316.517 218.420,313.592 219.292,312.583 219.610 C 309.212 220.672,299.274 221.259,281.458 221.447 L 272.333 221.544 272.336 236.814 C 272.340 254.121,272.592 301.676,272.765 317.818 L 272.881 328.552 267.732 328.442 C 251.416 328.092,246.849 327.978,246.250 327.906 L 245.583 327.825 245.633 274.746 L 245.683 221.667 233.216 221.666 C 226.360 221.666,214.881 221.616,207.708 221.556 C 197.867 221.474,194.667 221.494,194.667 221.640 C 194.667 221.785,197.487 221.833,205.875 221.833 C 212.040 221.834,223.440 221.883,231.208 221.944 L 245.333 222.055 245.333 275.111 L 245.333 328.167 246.003 328.167 C 246.371 328.167,250.327 328.275,254.794 328.408 C 259.262 328.540,265.219 328.684,268.033 328.728 L 273.149 328.807 273.069 323.028 C 272.859 307.787,272.665 271.800,272.666 248.062 L 272.667 221.708 282.875 221.605 C 295.493 221.478,302.567 221.268,305.500 220.931 C 306.737 220.789,308.291 220.672,308.952 220.670 C 309.689 220.668,310.495 220.547,311.035 220.357 C 311.520 220.186,312.517 219.877,313.250 219.670 C 313.983 219.463,315.052 219.153,315.625 218.980 C 316.198 218.808,317.135 218.526,317.708 218.353 C 318.281 218.181,319.350 217.872,320.083 217.668 C 320.817 217.464,321.837 217.155,322.350 216.982 C 322.864 216.809,323.389 216.666,323.517 216.666 C 323.727 216.665,327.802 214.665,330.708 213.136 C 330.915 213.028,332.323 212.320,333.839 211.564 C 336.275 210.349,340.584 207.350,341.333 206.349 C 341.417 206.237,346.252 202.305,347.667 201.198 C 348.079 200.876,348.492 200.529,348.583 200.427 C 348.675 200.325,349.112 199.949,349.555 199.590 C 350.005 199.226,351.474 197.460,352.880 195.594 C 354.265 193.755,356.412 190.903,357.651 189.256 C 358.891 187.609,360.160 185.772,360.471 185.173 C 360.783 184.574,361.620 182.958,362.331 181.583 C 363.042 180.208,363.974 178.420,364.402 177.608 C 364.830 176.797,365.292 175.822,365.428 175.442 C 365.622 174.902,367.754 168.603,369.188 164.333 C 369.296 164.012,369.516 163.375,369.677 162.917 C 369.951 162.139,370.151 161.133,371.000 156.250 C 371.183 155.196,371.483 153.471,371.667 152.417 C 371.850 151.362,372.147 149.656,372.328 148.625 C 373.075 144.344,373.167 143.654,373.259 141.583 C 373.312 140.392,373.508 137.542,373.695 135.250 C 374.129 129.908,374.128 124.953,373.691 118.917 C 373.505 116.350,373.307 113.125,373.249 111.750 C 373.150 109.350,373.053 108.621,372.341 104.917 C 372.164 104.000,371.862 102.388,371.668 101.333 C 371.474 100.279,371.169 98.648,370.991 97.708 C 370.542 95.344,370.046 92.724,369.673 90.750 C 368.954 86.951,368.818 86.420,368.274 85.278 C 367.961 84.621,367.351 83.333,366.920 82.417 C 366.488 81.500,365.804 80.056,365.400 79.208 C 364.997 78.360,364.320 76.935,363.897 76.042 C 362.225 72.511,361.835 71.838,360.244 69.749 C 359.337 68.558,358.226 67.096,357.776 66.500 C 357.325 65.904,356.892 65.392,356.812 65.361 C 356.732 65.331,356.667 65.202,356.667 65.075 C 356.667 64.808,354.246 62.326,352.686 60.993 C 352.100 60.493,351.500 59.963,351.352 59.816 C 351.048 59.513,347.884 56.670,347.009 55.913 C 346.693 55.640,346.281 55.261,346.092 55.070 C 345.770 54.745,345.109 54.449,342.922 53.654 C 342.418 53.471,341.593 53.171,341.089 52.987 C 340.584 52.804,339.759 52.504,339.255 52.321 C 338.751 52.137,337.944 51.845,337.461 51.672 C 336.978 51.498,336.152 51.201,335.625 51.012 C 335.098 50.822,334.235 50.511,333.708 50.322 C 333.181 50.132,332.374 49.832,331.913 49.655 C 331.453 49.478,330.891 49.334,330.663 49.336 C 330.436 49.337,329.012 49.192,327.500 49.013 C 316.290 47.690,331.055 47.782,167.417 48.009 M72.833 78.175 C 72.833 78.232,88.602 78.331,107.875 78.396 C 147.216 78.529,174.175 78.749,180.990 78.994 C 185.165 79.144,185.860 79.135,185.653 78.932 C 185.180 78.467,72.833 77.714,72.833 78.175 M209.333 79.151 C 209.333 79.281,211.882 79.333,218.139 79.333 C 222.982 79.333,231.120 79.383,236.223 79.444 L 245.500 79.555 245.500 107.833 C 245.500 123.386,245.450 147.712,245.389 161.890 L 245.278 187.669 221.639 187.626 C 202.816 187.592,198.000 187.626,198.000 187.792 C 198.000 187.957,202.872 188.000,221.806 188.000 L 245.611 188.000 245.722 150.625 C 245.783 130.069,245.833 105.627,245.833 96.310 L 245.833 79.371 241.958 79.271 C 233.491 79.054,209.333 78.965,209.333 79.151 M272.167 133.363 C 272.167 175.325,272.121 187.645,271.967 187.800 C 271.707 188.059,300.528 188.086,303.767 187.830 C 307.690 187.519,311.270 186.754,314.750 185.484 C 317.122 184.619,324.420 180.862,324.920 180.249 C 325.014 180.135,326.670 178.400,328.601 176.395 C 330.531 174.390,332.374 172.450,332.696 172.083 C 334.349 170.200,340.070 159.991,340.542 158.083 C 343.524 146.014,343.633 145.523,343.983 142.667 C 344.180 141.063,344.487 138.550,344.665 137.083 C 344.844 135.617,345.105 133.476,345.245 132.326 C 345.813 127.671,345.322 119.863,343.989 112.333 C 343.042 106.985,343.157 107.345,340.223 100.500 L 337.472 94.083 333.611 90.122 L 329.750 86.161 327.667 85.356 C 326.521 84.914,323.708 83.817,321.417 82.920 C 312.160 79.294,315.703 79.629,282.542 79.246 L 272.167 79.126 272.167 133.363 M294.667 79.672 C 302.321 79.762,309.183 79.876,309.917 79.927 C 312.279 80.088,316.047 81.064,318.917 82.258 C 319.192 82.372,319.942 82.666,320.583 82.910 C 321.225 83.154,322.125 83.508,322.583 83.696 C 324.066 84.306,324.897 84.634,325.917 85.013 C 326.467 85.217,327.235 85.522,327.623 85.692 C 328.012 85.861,328.424 86.000,328.540 86.001 C 328.975 86.002,329.845 86.688,331.192 88.092 C 331.957 88.890,333.610 90.588,334.865 91.865 C 337.131 94.172,337.325 94.446,338.252 96.667 C 338.660 97.644,338.841 98.062,339.587 99.750 C 339.709 100.025,340.010 100.737,340.256 101.333 C 340.503 101.929,340.837 102.717,340.999 103.083 C 342.678 106.883,342.841 107.434,343.649 112.083 C 345.089 120.365,345.593 127.601,345.030 131.917 C 344.838 133.383,344.524 135.896,344.331 137.500 C 343.363 145.558,343.325 145.785,342.350 149.371 C 342.158 150.080,342.000 150.775,342.000 150.917 C 342.000 151.058,341.853 151.716,341.674 152.379 C 341.494 153.041,341.189 154.221,340.996 155.000 C 340.803 155.779,340.500 156.954,340.323 157.611 C 340.145 158.267,339.999 158.942,339.998 159.111 C 339.996 159.279,339.887 159.604,339.755 159.833 C 339.622 160.063,339.437 160.400,339.343 160.583 C 339.249 160.767,338.985 161.217,338.757 161.583 C 338.528 161.950,338.188 162.512,338.000 162.833 C 337.812 163.154,337.472 163.717,337.243 164.083 C 337.015 164.450,336.755 164.900,336.667 165.083 C 336.578 165.267,336.319 165.717,336.090 166.083 C 335.862 166.450,335.521 167.012,335.333 167.333 C 335.145 167.654,334.843 168.160,334.662 168.458 C 334.481 168.756,334.185 169.244,334.004 169.542 C 333.823 169.840,333.531 170.346,333.355 170.667 C 332.990 171.333,332.814 171.529,329.008 175.500 C 327.471 177.104,325.832 178.833,325.367 179.341 C 324.902 179.850,324.310 180.375,324.052 180.508 C 323.794 180.641,323.133 181.002,322.583 181.310 C 321.784 181.757,319.499 182.978,317.833 183.848 C 317.604 183.968,317.217 184.138,315.474 184.885 C 313.740 185.628,310.517 186.545,308.083 186.986 C 304.639 187.612,302.958 187.667,287.458 187.667 L 272.333 187.667 272.333 133.495 L 272.333 79.323 276.542 79.416 C 278.856 79.466,287.012 79.582,294.667 79.672 M115.353 188.042 C 115.363 188.250,115.402 188.306,115.440 188.167 C 115.501 187.945,118.912 187.922,145.088 187.960 C 164.937 187.989,174.667 187.948,174.667 187.835 C 174.667 187.722,164.880 187.667,145.000 187.667 L 115.333 187.667 115.353 188.042 M150.333 221.667 C 150.333 221.776,153.917 221.833,160.750 221.833 C 167.583 221.833,171.167 221.776,171.167 221.667 C 171.167 221.557,167.583 221.500,160.750 221.500 C 153.917 221.500,150.333 221.557,150.333 221.667 " stroke="none" fill="#040912" fill-rule="evenodd"></path><path id="path3" d="M47.705 51.167 C 47.705 51.487,47.740 51.619,47.782 51.458 C 47.823 51.298,47.823 51.035,47.782 50.875 C 47.740 50.715,47.705 50.846,47.705 51.167 M50.475 53.301 C 50.966 53.870,51.454 54.387,51.559 54.451 C 51.664 54.514,51.349 54.101,50.858 53.532 C 50.367 52.964,49.880 52.446,49.775 52.383 C 49.669 52.319,49.985 52.732,50.475 53.301 M55.064 58.625 C 55.873 59.565,56.570 60.333,56.613 60.333 C 56.720 60.333,54.207 57.405,53.867 57.135 C 53.716 57.015,54.255 57.685,55.064 58.625 M48.372 58.333 C 48.372 58.654,48.406 58.785,48.448 58.625 C 48.490 58.465,48.490 58.202,48.448 58.042 C 48.406 57.881,48.372 58.012,48.372 58.333 M57.833 61.885 C 57.833 61.914,58.077 62.158,58.375 62.427 L 58.917 62.917 58.427 62.375 C 57.971 61.870,57.833 61.757,57.833 61.885 M59.642 63.968 C 60.133 64.536,60.620 65.054,60.725 65.117 C 60.831 65.181,60.515 64.768,60.025 64.199 C 59.534 63.630,59.046 63.113,58.941 63.049 C 58.836 62.986,59.151 63.399,59.642 63.968 M49.039 65.500 C 49.039 65.821,49.073 65.952,49.115 65.792 C 49.157 65.631,49.157 65.369,49.115 65.208 C 49.073 65.048,49.039 65.179,49.039 65.500 M61.833 66.552 C 61.833 66.581,62.077 66.825,62.375 67.094 L 62.917 67.583 62.427 67.042 C 61.971 66.537,61.833 66.423,61.833 66.552 M63.729 68.716 C 64.267 69.331,64.743 69.833,64.787 69.833 C 64.897 69.833,63.177 67.859,62.941 67.715 C 62.836 67.651,63.190 68.101,63.729 68.716 M49.705 72.667 C 49.705 72.987,49.740 73.119,49.782 72.958 C 49.823 72.798,49.823 72.535,49.782 72.375 C 49.740 72.215,49.705 72.346,49.705 72.667 M67.500 73.083 C 67.811 73.404,68.096 73.667,68.132 73.667 C 68.272 73.667,67.243 72.523,67.092 72.512 C 67.006 72.505,67.189 72.762,67.500 73.083 M197.375 78.958 C 199.094 78.985,201.906 78.985,203.625 78.958 C 205.344 78.931,203.938 78.909,200.500 78.909 C 197.063 78.909,195.656 78.931,197.375 78.958 M50.372 79.833 C 50.372 80.154,50.406 80.285,50.448 80.125 C 50.490 79.965,50.490 79.702,50.448 79.542 C 50.406 79.381,50.372 79.512,50.372 79.833 M71.539 83.667 C 71.539 83.987,71.573 84.119,71.615 83.958 C 71.657 83.798,71.657 83.535,71.615 83.375 C 71.573 83.215,71.539 83.346,71.539 83.667 M51.039 87.000 C 51.039 87.321,51.073 87.452,51.115 87.292 C 51.157 87.131,51.157 86.869,51.115 86.708 C 51.073 86.548,51.039 86.679,51.039 87.000 M51.705 94.167 C 51.705 94.487,51.740 94.619,51.782 94.458 C 51.823 94.298,51.823 94.035,51.782 93.875 C 51.740 93.715,51.705 93.846,51.705 94.167 M72.872 98.500 C 72.872 98.821,72.906 98.952,72.948 98.792 C 72.990 98.631,72.990 98.369,72.948 98.208 C 72.906 98.048,72.872 98.179,72.872 98.500 M52.372 101.333 C 52.372 101.654,52.406 101.785,52.448 101.625 C 52.490 101.465,52.490 101.202,52.448 101.042 C 52.406 100.881,52.372 101.013,52.372 101.333 M53.039 108.500 C 53.039 108.821,53.073 108.952,53.115 108.792 C 53.157 108.631,53.157 108.369,53.115 108.208 C 53.073 108.048,53.039 108.179,53.039 108.500 M74.205 113.333 C 74.205 113.654,74.240 113.785,74.282 113.625 C 74.323 113.465,74.323 113.202,74.282 113.042 C 74.240 112.881,74.205 113.013,74.205 113.333 M53.705 115.667 C 53.705 115.987,53.740 116.119,53.782 115.958 C 53.823 115.798,53.823 115.535,53.782 115.375 C 53.740 115.215,53.705 115.346,53.705 115.667 M54.372 122.833 C 54.372 123.154,54.406 123.285,54.448 123.125 C 54.490 122.965,54.490 122.702,54.448 122.542 C 54.406 122.381,54.372 122.513,54.372 122.833 M75.539 128.167 C 75.539 128.487,75.573 128.619,75.615 128.458 C 75.657 128.298,75.657 128.035,75.615 127.875 C 75.573 127.715,75.539 127.846,75.539 128.167 M55.039 130.000 C 55.039 130.321,55.073 130.452,55.115 130.292 C 55.157 130.131,55.157 129.869,55.115 129.708 C 55.073 129.548,55.039 129.679,55.039 130.000 M55.705 137.167 C 55.705 137.487,55.740 137.619,55.782 137.458 C 55.823 137.298,55.823 137.035,55.782 136.875 C 55.740 136.715,55.705 136.846,55.705 137.167 M76.872 143.000 C 76.872 143.321,76.906 143.452,76.948 143.292 C 76.990 143.131,76.990 142.869,76.948 142.708 C 76.906 142.548,76.872 142.679,76.872 143.000 M56.372 144.333 C 56.372 144.654,56.406 144.785,56.448 144.625 C 56.490 144.465,56.490 144.202,56.448 144.042 C 56.406 143.881,56.372 144.012,56.372 144.333 M77.539 150.333 C 77.539 150.654,77.573 150.785,77.615 150.625 C 77.657 150.465,77.657 150.202,77.615 150.042 C 77.573 149.881,77.539 150.012,77.539 150.333 M57.039 151.500 C 57.039 151.821,57.073 151.952,57.115 151.792 C 57.157 151.631,57.157 151.369,57.115 151.208 C 57.073 151.048,57.039 151.179,57.039 151.500 M57.705 158.667 C 57.705 158.987,57.740 159.119,57.782 158.958 C 57.823 158.798,57.823 158.535,57.782 158.375 C 57.740 158.215,57.705 158.346,57.705 158.667 M78.872 165.167 C 78.872 165.487,78.906 165.619,78.948 165.458 C 78.990 165.298,78.990 165.035,78.948 164.875 C 78.906 164.715,78.872 164.846,78.872 165.167 M58.372 165.833 C 58.372 166.154,58.406 166.285,58.448 166.125 C 58.490 165.965,58.490 165.702,58.448 165.542 C 58.406 165.381,58.372 165.512,58.372 165.833 M59.039 173.000 C 59.039 173.321,59.073 173.452,59.115 173.292 C 59.157 173.131,59.157 172.869,59.115 172.708 C 59.073 172.548,59.039 172.679,59.039 173.000 M80.205 180.000 C 80.205 180.321,80.240 180.452,80.282 180.292 C 80.323 180.131,80.323 179.869,80.282 179.708 C 80.240 179.548,80.205 179.679,80.205 180.000 M59.705 180.167 C 59.705 180.487,59.740 180.619,59.782 180.458 C 59.823 180.298,59.823 180.035,59.782 179.875 C 59.740 179.715,59.705 179.846,59.705 180.167 M60.372 187.333 C 60.372 187.654,60.406 187.785,60.448 187.625 C 60.490 187.465,60.490 187.202,60.448 187.042 C 60.406 186.881,60.372 187.012,60.372 187.333 M196.167 187.221 C 196.167 187.475,195.361 187.501,186.292 187.542 L 176.417 187.586 186.297 187.626 C 196.460 187.668,196.867 187.644,196.271 187.048 C 196.213 186.991,196.167 187.069,196.167 187.221 M116.284 188.411 C 116.449 188.638,116.653 188.825,116.737 188.828 C 116.822 188.831,116.715 188.646,116.500 188.417 C 116.000 187.885,115.899 187.882,116.284 188.411 M134.862 207.125 C 142.165 214.435,148.178 220.567,148.226 220.750 C 148.301 221.044,148.308 221.040,148.281 220.720 C 148.252 220.380,122.013 193.833,121.707 193.833 C 121.639 193.833,127.559 199.815,134.862 207.125 M61.039 194.500 C 61.039 194.821,61.073 194.952,61.115 194.792 C 61.157 194.631,61.157 194.369,61.115 194.208 C 61.073 194.048,61.039 194.179,61.039 194.500 M81.539 194.833 C 81.539 195.154,81.573 195.285,81.615 195.125 C 81.657 194.965,81.657 194.702,81.615 194.542 C 81.573 194.381,81.539 194.512,81.539 194.833 M61.705 201.667 C 61.705 201.987,61.740 202.119,61.782 201.958 C 61.823 201.798,61.823 201.535,61.782 201.375 C 61.740 201.215,61.705 201.346,61.705 201.667 M62.372 208.833 C 62.372 209.154,62.406 209.285,62.448 209.125 C 62.490 208.965,62.490 208.702,62.448 208.542 C 62.406 208.381,62.372 208.512,62.372 208.833 M82.872 209.667 C 82.872 209.987,82.906 210.119,82.948 209.958 C 82.990 209.798,82.990 209.535,82.948 209.375 C 82.906 209.215,82.872 209.346,82.872 209.667 M63.039 216.000 C 63.039 216.321,63.073 216.452,63.115 216.292 C 63.157 216.131,63.157 215.869,63.115 215.708 C 63.073 215.548,63.039 215.679,63.039 216.000 M172.891 221.757 C 172.837 221.899,172.839 222.061,172.896 222.118 C 172.953 222.175,173.000 222.098,173.000 221.946 C 173.000 221.692,173.812 221.666,182.958 221.625 L 192.917 221.581 182.953 221.540 C 174.102 221.505,172.979 221.529,172.891 221.757 M63.705 223.167 C 63.705 223.487,63.740 223.619,63.782 223.458 C 63.823 223.298,63.823 223.035,63.782 222.875 C 63.740 222.715,63.705 222.846,63.705 223.167 M84.205 224.500 C 84.205 224.821,84.240 224.952,84.282 224.792 C 84.323 224.631,84.323 224.369,84.282 224.208 C 84.240 224.048,84.205 224.179,84.205 224.500 M64.372 230.333 C 64.372 230.654,64.406 230.785,64.448 230.625 C 64.490 230.465,64.490 230.202,64.448 230.042 C 64.406 229.881,64.372 230.012,64.372 230.333 M65.039 237.500 C 65.039 237.821,65.073 237.952,65.115 237.792 C 65.157 237.631,65.157 237.369,65.115 237.208 C 65.073 237.048,65.039 237.179,65.039 237.500 M85.539 239.333 C 85.539 239.654,85.573 239.785,85.615 239.625 C 85.657 239.465,85.657 239.202,85.615 239.042 C 85.573 238.881,85.539 239.012,85.539 239.333 M65.705 244.667 C 65.705 244.987,65.740 245.119,65.782 244.958 C 65.823 244.798,65.823 244.535,65.782 244.375 C 65.740 244.215,65.705 244.346,65.705 244.667 M66.372 251.833 C 66.372 252.154,66.406 252.285,66.448 252.125 C 66.490 251.965,66.490 251.702,66.448 251.542 C 66.406 251.381,66.372 251.512,66.372 251.833 M86.872 254.167 C 86.872 254.487,86.906 254.619,86.948 254.458 C 86.990 254.298,86.990 254.035,86.948 253.875 C 86.906 253.715,86.872 253.846,86.872 254.167 M67.039 259.000 C 67.039 259.321,67.073 259.452,67.115 259.292 C 67.157 259.131,67.157 258.869,67.115 258.708 C 67.073 258.548,67.039 258.679,67.039 259.000 M87.539 261.500 C 87.539 261.821,87.573 261.952,87.615 261.792 C 87.657 261.631,87.657 261.369,87.615 261.208 C 87.573 261.048,87.539 261.179,87.539 261.500 M67.705 266.167 C 67.705 266.487,67.740 266.619,67.782 266.458 C 67.823 266.298,67.823 266.035,67.782 265.875 C 67.740 265.715,67.705 265.846,67.705 266.167 M88.872 276.333 C 88.872 276.654,88.906 276.785,88.948 276.625 C 88.990 276.465,88.990 276.202,88.948 276.042 C 88.906 275.881,88.872 276.012,88.872 276.333 M69.039 280.500 C 69.039 280.821,69.073 280.952,69.115 280.792 C 69.157 280.631,69.157 280.369,69.115 280.208 C 69.073 280.048,69.039 280.179,69.039 280.500 M89.667 285.750 C 89.667 285.979,89.731 286.167,89.810 286.167 C 89.889 286.167,89.918 285.979,89.874 285.750 C 89.830 285.521,89.766 285.333,89.731 285.333 C 89.695 285.333,89.667 285.521,89.667 285.750 M181.667 326.212 C 181.667 326.399,181.477 326.500,181.042 326.545 L 180.417 326.611 181.047 326.639 C 181.645 326.665,182.054 326.332,181.771 326.048 C 181.713 325.991,181.667 326.065,181.667 326.212 M81.292 326.292 C 83.973 326.317,88.360 326.317,91.042 326.292 C 93.723 326.266,91.529 326.245,86.167 326.245 C 80.804 326.245,78.610 326.266,81.292 326.292 M163.801 326.458 C 164.929 326.487,166.729 326.487,167.801 326.458 C 168.873 326.429,167.950 326.405,165.750 326.405 C 163.550 326.405,162.673 326.429,163.801 326.458 " stroke="none" fill="#849cb4" fill-rule="evenodd"></path><path id="path4" d="M52.500 55.552 C 52.500 55.581,52.744 55.825,53.042 56.094 L 53.583 56.583 53.094 56.042 C 52.638 55.537,52.500 55.423,52.500 55.552 M61.500 65.999 C 61.883 66.458,62.284 66.886,62.390 66.951 C 62.496 67.016,62.218 66.642,61.771 66.118 C 61.325 65.595,60.924 65.167,60.881 65.167 C 60.838 65.167,61.116 65.541,61.500 65.999 M64.839 69.786 C 64.842 69.858,65.198 70.295,65.630 70.758 C 66.433 71.616,66.321 71.417,65.366 70.286 C 65.073 69.939,64.836 69.714,64.839 69.786 M68.837 74.453 C 68.840 74.524,69.233 75.000,69.712 75.509 C 70.559 76.409,70.458 76.247,69.366 74.953 C 69.073 74.606,68.835 74.381,68.837 74.453 M187.708 78.782 C 187.869 78.823,188.131 78.823,188.292 78.782 C 188.452 78.740,188.321 78.705,188.000 78.705 C 187.679 78.705,187.548 78.740,187.708 78.782 M206.667 78.898 C 206.667 78.933,206.888 78.995,207.158 79.034 C 207.428 79.074,207.611 79.045,207.565 78.970 C 207.482 78.836,206.667 78.771,206.667 78.898 M71.705 84.833 C 71.705 85.154,71.740 85.285,71.782 85.125 C 71.823 84.965,71.823 84.702,71.782 84.542 C 71.740 84.381,71.705 84.512,71.705 84.833 M73.039 99.667 C 73.039 99.987,73.073 100.119,73.115 99.958 C 73.157 99.798,73.157 99.535,73.115 99.375 C 73.073 99.215,73.039 99.346,73.039 99.667 M74.372 114.500 C 74.372 114.821,74.406 114.952,74.448 114.792 C 74.490 114.631,74.490 114.369,74.448 114.208 C 74.406 114.048,74.372 114.179,74.372 114.500 M75.705 129.333 C 75.705 129.654,75.740 129.785,75.782 129.625 C 75.823 129.465,75.823 129.202,75.782 129.042 C 75.740 128.881,75.705 129.012,75.705 129.333 M80.372 181.167 C 80.372 181.487,80.406 181.619,80.448 181.458 C 80.490 181.298,80.490 181.035,80.448 180.875 C 80.406 180.715,80.372 180.846,80.372 181.167 M81.705 196.000 C 81.705 196.321,81.740 196.452,81.782 196.292 C 81.823 196.131,81.823 195.869,81.782 195.708 C 81.740 195.548,81.705 195.679,81.705 196.000 M83.039 210.833 C 83.039 211.154,83.073 211.285,83.115 211.125 C 83.157 210.965,83.157 210.702,83.115 210.542 C 83.073 210.381,83.039 210.512,83.039 210.833 M84.372 225.667 C 84.372 225.987,84.406 226.119,84.448 225.958 C 84.490 225.798,84.490 225.535,84.448 225.375 C 84.406 225.215,84.372 225.346,84.372 225.667 M89.039 277.500 C 89.039 277.821,89.073 277.952,89.115 277.792 C 89.157 277.631,89.157 277.369,89.115 277.208 C 89.073 277.048,89.039 277.179,89.039 277.500 M97.133 326.291 C 97.894 326.322,99.094 326.322,99.800 326.290 C 100.506 326.259,99.883 326.234,98.417 326.234 C 96.950 326.234,96.372 326.260,97.133 326.291 M155.792 326.458 C 156.915 326.487,158.752 326.487,159.875 326.458 C 160.998 326.429,160.079 326.405,157.833 326.405 C 155.587 326.405,154.669 326.429,155.792 326.458 M177.458 326.623 C 178.031 326.656,178.969 326.656,179.542 326.623 C 180.115 326.591,179.646 326.564,178.500 326.564 C 177.354 326.564,176.885 326.591,177.458 326.623 " stroke="none" fill="#5f7e9d" fill-rule="evenodd"></path></g></svg>