<svg id="svg" version="1.1" xmlns="http://www.w3.org/2000/svg" xmlns:xlink="http://www.w3.org/1999/xlink" width="400" height="400" viewBox="0, 0, 400,400"><g id="svgg"><path id="path0" d="M37.901 65.417 C 37.999 66.240,38.160 67.907,38.834 75.083 C 39.024 77.100,39.325 80.287,39.503 82.167 C 39.682 84.046,39.980 87.196,40.165 89.167 C 40.786 95.761,41.701 105.464,42.163 110.333 C 42.341 112.212,42.643 115.400,42.833 117.417 C 43.384 123.266,43.815 127.826,44.163 131.500 C 44.341 133.379,44.643 136.567,44.833 138.583 C 45.023 140.600,45.324 143.787,45.502 145.667 C 45.680 147.546,45.980 150.733,46.169 152.750 C 46.358 154.767,46.658 157.954,46.837 159.833 C 47.387 165.614,47.810 170.088,48.169 173.917 C 48.358 175.933,48.658 179.121,48.837 181.000 C 49.179 184.607,49.597 189.024,50.167 195.083 C 50.357 197.100,50.658 200.287,50.837 202.167 C 51.015 204.046,51.313 207.196,51.498 209.167 C 52.119 215.761,53.035 225.464,53.497 230.333 C 53.675 232.213,53.976 235.400,54.166 237.417 C 54.356 239.433,54.657 242.621,54.835 244.500 C 55.013 246.379,55.313 249.567,55.502 251.583 C 55.691 253.600,55.994 256.806,56.175 258.708 C 56.657 263.779,57.113 268.599,57.502 272.750 C 57.691 274.767,57.992 277.954,58.170 279.833 C 58.513 283.440,58.930 287.857,59.500 293.917 C 59.690 295.933,59.992 299.121,60.170 301.000 C 60.513 304.607,60.930 309.024,61.500 315.083 C 61.829 318.570,62.043 320.844,62.837 329.250 C 63.028 331.267,63.314 334.267,63.473 335.917 L 63.763 338.917 77.418 338.866 C 84.928 338.839,91.106 338.783,91.147 338.742 C 91.187 338.702,91.350 338.162,91.509 337.542 C 91.667 336.923,91.998 335.667,92.243 334.750 C 92.489 333.833,92.835 332.540,93.012 331.875 C 93.189 331.210,93.483 330.104,93.667 329.417 C 91.487 337.590,99.087 309.091,95.000 324.417 C 95.183 323.729,95.483 322.604,95.667 321.917 C 95.850 321.229,96.150 320.104,96.333 319.417 C 96.517 318.729,96.817 317.604,97.000 316.917 C 97.183 316.229,97.483 315.104,97.667 314.417 C 97.850 313.729,98.150 312.604,98.333 311.917 C 98.517 311.229,98.817 310.104,99.000 309.417 C 99.183 308.729,99.483 307.604,99.667 306.917 C 99.850 306.229,100.150 305.104,100.333 304.417 C 100.517 303.729,100.817 302.604,101.000 301.917 C 101.183 301.229,101.483 300.104,101.667 299.417 C 101.850 298.729,102.150 297.604,102.333 296.917 C 102.517 296.229,102.817 295.104,103.000 294.417 C 103.183 293.729,103.483 292.604,103.667 291.917 C 103.850 291.229,104.150 290.104,104.333 289.417 C 104.517 288.729,104.817 287.604,105.000 286.917 C 105.798 283.925,106.005 283.139,106.495 281.250 C 106.780 280.150,107.113 278.912,107.235 278.500 C 107.356 278.087,107.623 277.112,107.827 276.333 C 108.031 275.554,108.341 274.392,108.515 273.750 C 108.953 272.130,110.591 265.963,111.170 263.750 C 111.434 262.742,112.034 260.492,112.505 258.750 C 112.975 257.008,113.496 255.058,113.663 254.417 C 115.369 247.855,118.560 236.055,118.657 235.952 C 118.780 235.820,118.958 236.496,120.838 244.250 C 121.394 246.542,122.178 249.767,122.582 251.417 C 122.985 253.067,123.662 255.842,124.085 257.583 C 125.727 264.349,126.223 266.387,127.167 270.250 C 127.704 272.450,128.416 275.375,128.749 276.750 C 129.081 278.125,129.719 280.750,130.166 282.583 C 130.613 284.417,131.288 287.192,131.666 288.750 C 132.043 290.308,132.719 293.083,133.167 294.917 C 134.161 298.985,135.413 304.126,136.332 307.917 C 136.710 309.475,137.422 312.400,137.915 314.417 C 138.407 316.433,139.111 319.321,139.478 320.833 C 140.902 326.693,141.889 330.745,142.878 334.792 L 143.907 339.000 158.004 339.000 L 172.102 339.000 172.478 335.208 C 172.685 333.123,173.037 329.542,173.261 327.250 C 173.484 324.958,173.775 322.033,173.907 320.750 C 174.039 319.467,174.192 317.892,174.247 317.250 C 174.302 316.608,174.456 315.033,174.587 313.750 C 174.719 312.467,174.980 309.842,175.167 307.917 C 175.353 305.992,175.656 302.917,175.839 301.083 C 176.022 299.250,176.208 297.337,176.252 296.833 C 176.296 296.329,176.443 294.829,176.579 293.500 C 176.715 292.171,176.979 289.508,177.166 287.583 C 177.746 281.605,178.160 277.381,178.506 273.917 C 178.689 272.083,178.875 270.171,178.919 269.667 C 178.963 269.162,179.110 267.662,179.246 266.333 C 179.383 265.004,179.647 262.342,179.833 260.417 C 180.020 258.492,180.323 255.417,180.506 253.583 C 180.689 251.750,180.875 249.838,180.919 249.333 C 180.963 248.829,181.110 247.329,181.246 246.000 C 181.682 241.739,182.153 236.775,182.202 235.917 L 182.250 235.083 172.787 235.040 C 165.302 235.006,163.309 235.041,163.251 235.207 C 163.211 235.322,163.024 236.692,162.835 238.250 C 162.646 239.808,162.346 242.283,162.168 243.750 C 161.755 247.157,161.276 251.135,160.834 254.833 C 159.996 261.842,159.528 265.729,158.849 271.333 C 158.666 272.846,158.359 275.396,158.167 277.000 C 157.527 282.356,157.162 285.394,156.836 288.083 C 156.659 289.550,156.353 292.137,156.157 293.833 C 155.677 297.977,155.682 297.973,154.928 295.000 C 154.800 294.496,154.539 293.502,154.348 292.792 C 154.156 292.081,153.856 290.956,153.679 290.292 C 153.503 289.627,151.321 281.471,148.830 272.167 C 146.340 262.862,144.202 254.875,144.080 254.417 C 143.958 253.958,143.703 253.002,143.512 252.292 C 143.322 251.581,143.011 250.419,142.821 249.708 C 142.631 248.998,142.364 248.004,142.228 247.500 C 142.092 246.996,141.840 246.058,141.669 245.417 C 141.497 244.775,141.156 243.500,140.910 242.583 C 140.664 241.667,140.333 240.429,140.175 239.833 C 140.017 239.237,139.634 237.798,139.324 236.634 L 138.762 234.518 122.415 218.167 L 106.069 201.816 105.618 203.450 C 105.371 204.348,104.753 206.621,104.245 208.500 C 103.737 210.379,103.137 212.592,102.910 213.417 C 102.684 214.242,102.084 216.454,101.577 218.333 C 101.070 220.213,100.470 222.425,100.244 223.250 C 100.018 224.075,99.419 226.287,98.912 228.167 C 98.406 230.046,97.806 232.258,97.579 233.083 C 97.352 233.908,96.752 236.121,96.246 238.000 C 94.721 243.659,94.484 244.534,94.149 245.750 C 93.453 248.268,91.508 255.452,91.170 256.750 C 91.098 257.025,90.498 259.237,89.835 261.667 C 89.172 264.096,88.572 266.308,88.502 266.583 C 88.431 266.858,87.831 269.071,87.168 271.500 C 86.505 273.929,85.905 276.142,85.835 276.417 C 85.764 276.692,85.164 278.904,84.502 281.333 C 83.839 283.762,83.239 285.975,83.168 286.250 C 83.098 286.525,82.499 288.737,81.839 291.167 C 81.178 293.596,80.489 296.145,80.306 296.832 C 79.783 298.800,79.760 298.766,79.527 295.667 C 79.428 294.337,79.229 291.975,79.087 290.417 C 78.813 287.428,78.386 282.613,77.830 276.250 C 77.645 274.142,77.384 271.217,77.249 269.750 C 77.114 268.283,76.929 266.183,76.838 265.083 C 76.748 263.983,76.558 261.808,76.418 260.250 C 76.278 258.692,76.012 255.692,75.827 253.583 C 75.375 248.427,74.879 242.841,74.576 239.500 C 74.439 237.987,74.290 236.300,74.245 235.750 C 74.199 235.200,74.016 233.100,73.838 231.083 C 73.659 229.067,73.359 225.654,73.171 223.500 C 72.982 221.346,72.717 218.383,72.582 216.917 C 72.447 215.450,72.263 213.350,72.172 212.250 C 72.081 211.150,71.892 208.975,71.751 207.417 C 71.471 204.307,70.999 198.968,70.490 193.167 C 70.309 191.104,70.050 188.217,69.915 186.750 C 69.781 185.283,69.596 183.183,69.505 182.083 C 69.414 180.983,69.225 178.808,69.085 177.250 C 68.944 175.692,68.679 172.692,68.495 170.583 C 68.312 168.475,68.051 165.550,67.916 164.083 C 67.781 162.617,67.596 160.517,67.505 159.417 C 67.414 158.317,67.225 156.142,67.084 154.583 C 66.794 151.381,66.324 146.074,65.830 140.417 C 65.645 138.308,65.384 135.383,65.249 133.917 C 65.114 132.450,64.929 130.350,64.838 129.250 C 64.748 128.150,64.558 125.975,64.418 124.417 C 64.278 122.858,64.013 119.858,63.829 117.750 C 63.645 115.642,63.384 112.717,63.249 111.250 C 63.114 109.783,62.929 107.683,62.838 106.583 C 62.664 104.472,62.379 101.285,61.825 95.257 C 61.612 92.949,61.408 91.502,61.272 91.340 C 61.152 91.199,58.658 88.346,55.729 85.000 C 52.800 81.654,47.715 75.842,44.429 72.083 C 37.016 63.604,37.778 64.382,37.901 65.417 M177.264 92.000 C 177.177 92.859,177.020 94.369,176.175 102.500 C 175.833 105.787,175.427 109.738,174.821 115.667 C 174.639 117.454,174.341 120.342,174.160 122.083 C 173.979 123.825,173.684 126.675,173.504 128.417 C 173.324 130.158,173.025 133.046,172.840 134.833 C 172.654 136.621,172.353 139.546,172.170 141.333 C 171.429 148.589,171.140 151.394,170.834 154.333 C 169.925 163.059,169.650 165.719,168.821 173.833 C 168.639 175.621,168.341 178.508,168.160 180.250 C 167.979 181.992,167.684 184.842,167.504 186.583 C 167.325 188.325,167.028 191.175,166.846 192.917 C 166.286 198.251,166.124 200.013,166.189 200.075 C 166.222 200.108,170.793 200.093,176.345 200.042 L 186.441 199.950 186.646 198.017 C 186.759 196.953,186.994 194.883,187.170 193.417 C 187.345 191.950,187.643 189.400,187.831 187.750 C 188.020 186.100,188.319 183.512,188.498 182.000 C 188.676 180.487,188.976 177.900,189.164 176.250 C 189.353 174.600,189.653 172.012,189.831 170.500 C 190.009 168.987,190.309 166.400,190.496 164.750 C 190.684 163.100,190.984 160.475,191.163 158.917 C 191.573 155.348,192.064 150.852,192.500 146.667 C 192.687 144.879,192.985 142.029,193.164 140.333 C 193.343 138.637,193.642 135.750,193.829 133.917 C 194.016 132.083,194.316 129.196,194.495 127.500 C 195.066 122.085,195.492 118.005,195.835 114.667 C 196.197 111.159,196.687 106.475,197.083 102.750 C 198.038 93.778,198.240 91.518,198.100 91.378 C 198.030 91.308,193.334 91.212,187.664 91.167 L 177.356 91.083 177.264 92.000 " stroke="none" fill="#fbfbfb" fill-rule="evenodd"></path><path id="path1" d="M35.462 59.277 C 35.421 59.354,35.519 60.692,35.680 62.250 C 35.842 63.808,36.134 66.771,36.329 68.833 C 37.147 77.455,37.333 79.431,37.664 83.000 C 37.856 85.063,38.159 88.287,38.338 90.167 C 38.517 92.046,38.816 95.196,39.002 97.167 C 39.188 99.138,39.486 102.287,39.665 104.167 C 39.844 106.046,40.144 109.233,40.332 111.250 C 40.655 114.721,40.877 117.065,41.657 125.250 C 41.840 127.175,42.144 130.400,42.331 132.417 C 42.717 136.555,43.162 141.266,43.655 146.417 C 43.839 148.342,44.145 151.567,44.334 153.583 C 44.896 159.561,45.317 164.026,45.679 167.833 C 46.275 174.094,46.641 177.978,46.999 181.833 C 47.191 183.896,47.491 187.083,47.667 188.917 C 48.067 193.083,48.950 202.443,49.664 210.083 C 49.990 213.566,50.225 216.052,50.990 224.083 C 51.173 226.008,51.477 229.233,51.665 231.250 C 52.014 235.002,52.409 239.172,52.993 245.292 C 53.175 247.194,53.478 250.400,53.668 252.417 C 54.166 257.715,54.627 262.593,54.998 266.500 C 55.177 268.379,55.478 271.567,55.668 273.583 C 56.387 281.248,56.680 284.357,56.995 287.667 C 57.397 291.887,58.195 300.347,59.000 308.917 C 59.486 314.090,59.962 319.128,60.346 323.167 C 60.533 325.137,60.828 328.250,61.000 330.083 C 61.173 331.917,61.487 335.133,61.698 337.230 L 62.083 341.043 69.250 340.939 C 73.192 340.882,80.065 340.787,84.524 340.729 L 92.631 340.623 92.989 339.353 C 93.186 338.655,93.496 337.521,93.679 336.833 C 93.861 336.146,94.153 335.058,94.328 334.417 C 94.503 333.775,94.804 332.650,94.997 331.917 C 95.189 331.183,95.497 330.021,95.681 329.333 C 96.186 327.437,96.594 325.898,97.004 324.333 C 97.209 323.554,97.509 322.429,97.672 321.833 C 98.047 320.457,98.530 318.641,99.003 316.833 C 99.370 315.431,99.619 314.501,100.319 311.917 C 100.869 309.887,101.645 306.974,102.338 304.333 C 102.542 303.554,102.843 302.429,103.005 301.833 C 103.297 300.762,103.700 299.259,104.347 296.833 C 104.531 296.146,104.831 295.021,105.014 294.333 C 105.197 293.646,105.497 292.521,105.681 291.833 C 105.864 291.146,106.164 290.021,106.347 289.333 C 106.531 288.646,106.819 287.558,106.989 286.917 C 107.159 286.275,107.459 285.150,107.656 284.417 C 108.412 281.602,109.122 278.926,109.670 276.833 C 109.874 276.054,110.172 274.929,110.333 274.333 C 111.469 270.120,111.860 268.656,112.337 266.833 C 112.540 266.054,112.839 264.929,113.000 264.333 C 113.161 263.737,113.462 262.612,113.668 261.833 C 113.874 261.054,114.176 259.929,114.339 259.333 C 114.502 258.737,114.801 257.612,115.004 256.833 C 115.208 256.054,115.505 254.929,115.666 254.333 C 115.827 253.737,116.110 252.688,116.295 252.000 C 116.481 251.313,116.799 250.112,117.003 249.333 C 117.207 248.554,117.507 247.429,117.669 246.833 C 117.832 246.237,118.098 245.238,118.260 244.613 C 118.593 243.332,118.658 243.376,119.080 245.167 C 119.243 245.854,119.511 246.942,119.676 247.583 C 119.841 248.225,120.137 249.425,120.334 250.250 C 120.682 251.716,121.032 253.143,121.661 255.667 C 121.832 256.354,122.130 257.592,122.323 258.417 C 122.517 259.242,122.817 260.479,122.990 261.167 C 123.164 261.854,123.457 263.054,123.641 263.833 C 124.164 266.042,125.317 270.785,125.668 272.167 C 125.842 272.854,126.290 274.692,126.663 276.250 C 127.989 281.781,128.156 282.471,128.994 285.833 C 129.165 286.521,129.465 287.758,129.661 288.583 C 129.856 289.408,130.157 290.646,130.329 291.333 C 130.502 292.021,130.804 293.258,131.000 294.083 C 131.196 294.908,131.496 296.146,131.667 296.833 C 131.837 297.521,132.137 298.758,132.333 299.583 C 132.690 301.081,133.072 302.640,133.662 305.000 C 133.833 305.688,134.133 306.925,134.328 307.750 C 134.523 308.575,134.823 309.813,134.995 310.500 C 135.167 311.188,135.468 312.425,135.665 313.250 C 135.863 314.075,136.163 315.313,136.333 316.000 C 136.504 316.688,136.804 317.925,137.000 318.750 C 137.196 319.575,137.498 320.813,137.670 321.500 C 137.842 322.188,138.290 324.025,138.667 325.583 C 139.043 327.142,139.492 328.979,139.665 329.667 C 139.839 330.354,140.145 331.629,140.346 332.500 C 140.548 333.371,140.842 334.571,141.000 335.167 C 141.159 335.762,141.541 337.319,141.849 338.625 L 142.411 341.000 158.103 341.000 L 173.794 341.000 173.895 340.625 C 173.950 340.419,173.994 339.950,173.993 339.583 C 173.992 339.217,174.141 337.492,174.325 335.750 C 174.510 334.008,174.811 331.046,174.996 329.167 C 175.701 322.003,175.998 318.971,176.329 315.583 C 176.517 313.658,176.822 310.546,177.007 308.667 C 177.192 306.787,177.491 303.750,177.671 301.917 C 178.082 297.741,178.572 292.758,179.007 288.333 C 179.192 286.454,179.495 283.379,179.680 281.500 C 179.865 279.621,180.161 276.621,180.339 274.833 C 180.516 273.046,180.815 269.971,181.003 268.000 C 181.192 266.029,181.454 263.404,181.587 262.167 C 181.720 260.929,181.870 259.392,181.919 258.750 C 181.969 258.108,182.155 256.158,182.333 254.417 C 182.511 252.675,182.810 249.675,182.997 247.750 C 183.185 245.825,183.486 242.750,183.667 240.917 C 183.848 239.083,184.081 236.702,184.185 235.624 L 184.373 233.666 209.978 233.708 L 235.583 233.750 235.583 286.864 L 235.583 339.977 236.917 340.069 C 237.650 340.119,242.075 340.238,246.750 340.334 C 251.425 340.429,256.968 340.556,259.069 340.614 L 262.887 340.721 262.777 332.069 C 262.606 318.611,262.307 254.212,262.365 243.333 L 262.417 233.583 273.333 233.483 C 285.753 233.369,288.517 233.284,295.167 232.814 L 299.917 232.478 303.667 231.389 C 308.230 230.065,309.685 229.636,312.167 228.880 C 315.710 227.802,325.898 222.536,328.417 220.481 C 332.361 217.262,337.293 213.229,338.684 212.083 C 341.085 210.105,349.069 199.365,351.259 195.167 C 352.144 193.471,353.358 191.146,353.957 190.000 C 355.432 187.180,359.611 174.848,360.143 171.744 C 360.526 169.511,360.786 168.010,361.977 161.167 C 362.432 158.554,362.851 155.629,362.910 154.667 C 362.968 153.704,363.123 151.417,363.253 149.583 C 363.932 140.039,363.938 139.374,363.417 131.333 C 363.289 129.362,363.101 126.250,362.999 124.417 C 362.817 121.131,362.752 120.689,361.329 113.167 C 360.298 107.715,358.997 100.786,358.846 99.941 C 358.724 99.260,357.639 96.774,355.244 91.691 L 351.816 84.417 348.506 80.083 L 345.195 75.750 340.806 71.816 C 338.392 69.652,336.168 67.672,335.864 67.416 C 334.702 66.440,321.611 61.870,319.167 61.588 C 311.590 60.713,309.571 60.562,302.250 60.324 C 296.527 60.138,242.412 60.097,234.733 60.273 L 229.882 60.384 229.673 60.961 C 228.936 63.001,226.261 64.029,223.946 63.163 C 222.430 62.596,222.289 61.989,223.410 60.868 C 223.442 60.836,223.772 60.965,224.144 61.155 C 225.536 61.865,227.717 61.235,227.654 60.142 C 227.643 59.970,227.620 59.967,227.555 60.127 C 227.488 60.296,222.045 60.337,200.277 60.333 C 185.320 60.331,170.567 60.330,167.492 60.331 L 161.900 60.333 161.682 60.936 C 160.936 63.001,158.274 64.034,155.946 63.163 C 154.430 62.596,154.289 61.989,155.410 60.868 C 155.442 60.836,155.772 60.965,156.144 61.155 C 157.418 61.805,158.956 61.517,159.485 60.529 C 159.624 60.269,158.942 60.257,149.525 60.356 C 126.624 60.597,36.667 60.668,36.667 60.445 C 36.667 60.168,35.561 59.095,35.462 59.277 M164.708 60.121 C 165.052 60.157,165.615 60.157,165.958 60.121 C 166.302 60.085,166.021 60.056,165.333 60.056 C 164.646 60.056,164.365 60.085,164.708 60.121 M36.782 63.792 C 36.740 63.952,36.705 63.821,36.705 63.500 C 36.705 63.179,36.740 63.048,36.782 63.208 C 36.823 63.369,36.823 63.631,36.782 63.792 M40.002 66.875 C 41.143 68.181,43.099 70.412,44.349 71.833 C 45.598 73.254,47.839 75.804,49.328 77.500 C 50.818 79.196,52.467 81.071,52.995 81.667 C 53.522 82.262,55.684 84.727,57.799 87.144 L 61.644 91.537 61.733 92.560 C 61.781 93.123,61.973 95.308,62.159 97.417 C 62.345 99.525,62.648 102.975,62.833 105.083 C 63.280 110.168,63.775 115.773,64.166 120.167 C 64.342 122.138,64.639 125.494,64.826 127.625 C 65.013 129.756,65.320 133.244,65.507 135.375 C 65.695 137.506,65.992 140.862,66.167 142.833 C 66.650 148.254,67.629 159.338,68.169 165.500 C 68.357 167.654,68.655 171.029,68.831 173.000 C 69.437 179.807,69.831 184.264,70.171 188.167 C 70.358 190.321,70.656 193.696,70.832 195.667 C 71.009 197.637,71.305 200.975,71.492 203.083 C 71.811 206.698,72.018 209.049,72.829 218.250 C 73.015 220.358,73.316 223.771,73.498 225.833 C 73.681 227.896,73.981 231.290,74.165 233.375 C 74.349 235.460,74.651 238.873,74.835 240.958 C 75.720 250.982,75.869 252.661,76.167 256.000 C 76.342 257.971,76.642 261.383,76.833 263.583 C 77.024 265.783,77.324 269.196,77.500 271.167 C 77.676 273.137,77.975 276.512,78.165 278.667 C 78.621 283.830,79.069 288.826,79.526 293.829 L 79.898 297.907 80.178 296.829 C 80.333 296.235,80.624 295.150,80.825 294.417 C 81.258 292.841,81.573 291.676,81.996 290.083 C 82.166 289.442,82.543 288.054,82.835 287.000 C 83.126 285.946,83.470 284.690,83.599 284.208 C 83.728 283.727,83.950 282.902,84.093 282.375 C 84.236 281.848,84.492 280.892,84.662 280.250 C 84.833 279.608,85.210 278.221,85.501 277.167 C 85.792 276.112,86.136 274.856,86.265 274.375 C 86.394 273.894,86.617 273.069,86.760 272.542 C 86.902 272.015,87.159 271.058,87.329 270.417 C 87.499 269.775,87.877 268.387,88.168 267.333 C 88.459 266.279,88.803 265.023,88.932 264.542 C 89.061 264.060,89.283 263.235,89.426 262.708 C 89.569 262.181,89.825 261.225,89.996 260.583 C 90.166 259.942,90.543 258.554,90.835 257.500 C 91.126 256.446,91.470 255.190,91.599 254.708 C 91.728 254.227,91.950 253.402,92.093 252.875 C 92.236 252.348,92.492 251.392,92.663 250.750 C 92.834 250.108,93.363 248.158,93.838 246.417 C 94.313 244.675,94.762 243.025,94.836 242.750 C 95.264 241.146,95.738 239.395,96.505 236.583 C 96.980 234.842,97.429 233.192,97.502 232.917 C 97.885 231.483,98.393 229.602,99.168 226.750 C 99.641 225.008,100.139 223.171,100.275 222.667 C 100.761 220.859,100.984 220.038,101.833 216.917 C 102.307 215.175,102.801 213.356,102.931 212.875 C 103.061 212.394,103.283 211.569,103.426 211.042 C 103.569 210.515,103.825 209.558,103.996 208.917 C 104.166 208.275,104.544 206.887,104.835 205.833 C 105.127 204.779,105.480 203.467,105.619 202.917 C 105.758 202.367,105.922 201.862,105.983 201.795 C 106.297 201.449,138.965 234.565,139.150 235.417 C 139.249 235.875,139.486 236.813,139.676 237.500 C 140.054 238.872,140.554 240.734,141.655 244.875 C 141.831 245.540,142.812 249.196,143.833 253.000 C 144.855 256.804,145.835 260.460,146.012 261.125 C 146.189 261.790,146.483 262.896,146.667 263.583 C 146.850 264.271,147.150 265.396,147.333 266.083 C 147.517 266.771,147.817 267.896,148.000 268.583 C 148.183 269.271,148.483 270.396,148.667 271.083 C 148.850 271.771,149.150 272.896,149.333 273.583 C 149.759 275.179,150.246 276.997,150.561 278.167 C 150.857 279.262,151.375 281.199,151.833 282.917 C 152.459 285.263,153.046 287.452,153.777 290.167 C 154.535 292.980,154.777 293.890,155.164 295.381 C 155.373 296.186,155.567 296.822,155.596 296.793 C 155.666 296.723,155.971 294.295,157.166 284.292 C 157.672 280.062,158.135 276.208,158.494 273.250 C 158.672 271.783,158.970 269.308,159.157 267.750 C 159.512 264.779,159.939 261.224,160.503 256.542 C 161.369 249.340,161.591 247.487,162.505 239.833 C 162.697 238.229,162.905 236.467,162.968 235.917 L 163.083 234.917 172.657 234.874 C 177.922 234.850,182.288 234.888,182.359 234.959 C 182.430 235.030,182.345 236.437,182.171 238.085 C 181.997 239.734,181.697 242.696,181.504 244.667 C 181.311 246.637,181.009 249.713,180.833 251.500 C 180.657 253.287,180.359 256.325,180.172 258.250 C 179.984 260.175,179.679 263.287,179.493 265.167 C 178.907 271.115,178.510 275.146,178.165 278.667 C 177.981 280.546,177.681 283.602,177.498 285.458 C 177.316 287.315,177.017 290.352,176.835 292.208 C 176.653 294.065,176.355 297.083,176.175 298.917 C 175.994 300.750,175.693 303.825,175.505 305.750 C 175.317 307.675,175.012 310.787,174.827 312.667 C 174.209 318.933,173.836 322.720,173.507 326.083 C 173.327 327.917,173.026 330.992,172.837 332.917 C 172.648 334.842,172.438 337.017,172.371 337.750 L 172.250 339.083 158.016 339.083 L 143.782 339.083 143.302 337.083 C 143.037 335.983,142.489 333.733,142.084 332.083 C 141.679 330.433,141.003 327.658,140.582 325.917 C 139.219 320.283,137.300 312.397,136.019 307.167 C 135.559 305.287,134.875 302.475,134.499 300.917 C 133.629 297.309,132.379 292.177,131.334 287.917 C 130.884 286.083,130.208 283.308,129.832 281.750 C 128.951 278.097,127.682 272.878,126.751 269.083 C 126.346 267.433,125.670 264.658,125.249 262.917 C 124.358 259.235,123.128 254.178,122.087 249.917 C 121.684 248.267,120.927 245.154,120.405 243.000 C 118.632 235.679,118.694 235.872,118.452 236.917 C 118.410 237.100,118.174 238.000,117.927 238.917 C 117.500 240.503,117.258 241.407,116.500 244.250 C 116.317 244.938,116.017 246.063,115.833 246.750 C 115.650 247.438,115.350 248.563,115.167 249.250 C 114.983 249.938,114.683 251.063,114.500 251.750 C 114.317 252.437,114.017 253.562,113.833 254.250 C 113.650 254.938,113.350 256.063,113.167 256.750 C 112.983 257.438,112.683 258.563,112.500 259.250 C 112.317 259.938,112.017 261.063,111.833 261.750 C 111.650 262.438,111.350 263.563,111.167 264.250 C 110.983 264.938,110.683 266.063,110.500 266.750 C 110.317 267.438,110.017 268.563,109.833 269.250 C 113.245 256.455,105.088 287.045,108.500 274.250 C 108.317 274.938,108.020 276.047,107.842 276.716 C 107.663 277.384,107.320 278.678,107.080 279.591 C 106.636 281.277,106.218 282.847,105.772 284.500 C 105.195 286.641,104.824 288.030,104.413 289.591 C 103.988 291.206,103.685 292.346,103.000 294.917 C 102.817 295.604,102.517 296.729,102.333 297.417 C 102.150 298.104,101.850 299.229,101.667 299.917 C 101.483 300.604,101.183 301.729,101.000 302.417 C 100.817 303.104,100.517 304.229,100.333 304.917 C 100.150 305.604,99.850 306.729,99.667 307.417 C 99.483 308.104,99.183 309.229,99.000 309.917 C 98.480 311.867,98.071 313.403,97.448 315.750 C 97.131 316.942,96.670 318.667,96.424 319.583 C 96.178 320.500,95.837 321.775,95.666 322.417 C 95.496 323.058,95.097 324.558,94.781 325.750 C 94.464 326.942,94.004 328.667,93.757 329.583 C 93.093 332.058,92.754 333.337,92.092 335.872 C 91.763 337.130,91.427 338.336,91.345 338.552 L 91.196 338.945 82.306 339.056 C 77.417 339.117,71.231 339.166,68.559 339.166 C 63.138 339.167,63.499 339.254,63.501 337.945 C 63.501 337.563,63.352 335.750,63.170 333.917 C 62.988 332.083,62.686 328.971,62.499 327.000 C 62.312 325.029,62.014 321.879,61.835 320.000 C 61.656 318.121,61.356 314.933,61.169 312.917 C 60.981 310.900,60.681 307.712,60.502 305.833 C 60.065 301.232,59.587 296.181,59.172 291.750 C 58.982 289.733,58.681 286.546,58.502 284.667 C 58.065 280.065,57.587 275.014,57.172 270.583 C 56.982 268.567,56.681 265.379,56.502 263.500 C 56.065 258.899,55.587 253.847,55.172 249.417 C 54.982 247.400,54.681 244.213,54.502 242.333 C 54.323 240.454,54.022 237.267,53.833 235.250 C 53.491 231.593,53.140 227.879,52.509 221.250 C 52.326 219.325,52.023 216.100,51.835 214.083 C 51.648 212.067,51.348 208.879,51.169 207.000 C 50.731 202.399,50.254 197.347,49.838 192.917 C 49.649 190.900,49.348 187.713,49.169 185.833 C 48.731 181.232,48.254 176.181,47.838 171.750 C 47.649 169.733,47.348 166.546,47.169 164.667 C 46.731 160.065,46.254 155.014,45.838 150.583 C 45.649 148.567,45.348 145.379,45.169 143.500 C 44.813 139.762,44.333 134.683,43.822 129.250 C 43.641 127.325,43.347 124.212,43.168 122.333 C 42.989 120.454,42.689 117.267,42.502 115.250 C 42.314 113.233,42.014 110.046,41.835 108.167 C 41.656 106.287,41.360 103.175,41.176 101.250 C 40.993 99.325,40.690 96.100,40.502 94.083 C 40.314 92.067,40.014 88.879,39.835 87.000 C 39.656 85.121,39.354 81.933,39.164 79.917 C 38.974 77.900,38.676 74.750,38.502 72.917 C 38.328 71.083,38.104 68.646,38.004 67.500 C 37.904 66.354,37.782 65.210,37.732 64.958 C 37.577 64.183,37.854 64.417,40.002 66.875 M37.282 69.458 C 37.240 69.619,37.205 69.487,37.205 69.167 C 37.205 68.846,37.240 68.715,37.282 68.875 C 37.323 69.035,37.323 69.298,37.282 69.458 M37.833 73.417 C 37.833 73.554,37.758 73.667,37.667 73.667 C 37.575 73.667,37.500 73.554,37.500 73.417 C 37.500 73.279,37.575 73.167,37.667 73.167 C 37.758 73.167,37.833 73.279,37.833 73.417 M38.115 77.958 C 38.073 78.119,38.039 77.987,38.039 77.667 C 38.039 77.346,38.073 77.215,38.115 77.375 C 38.157 77.535,38.157 77.798,38.115 77.958 M38.615 83.625 C 38.573 83.785,38.539 83.654,38.539 83.333 C 38.539 83.012,38.573 82.881,38.615 83.042 C 38.657 83.202,38.657 83.465,38.615 83.625 M115.417 90.335 C 150.170 90.468,163.902 90.611,172.586 90.929 L 175.422 91.033 175.374 91.725 C 175.347 92.105,175.180 93.767,175.002 95.417 C 174.824 97.067,174.528 99.879,174.343 101.667 C 173.390 110.888,173.286 111.900,172.326 121.291 C 172.141 123.102,171.844 125.971,171.668 127.667 C 171.045 133.633,170.667 137.282,170.338 140.500 C 169.355 150.112,169.073 152.840,168.344 159.833 C 168.157 161.621,167.851 164.583,167.664 166.417 C 167.476 168.250,167.178 171.137,167.002 172.833 C 166.826 174.529,166.525 177.454,166.333 179.333 C 165.915 183.423,165.463 187.780,165.012 192.083 C 164.093 200.847,164.124 199.887,164.750 200.020 C 165.025 200.079,152.175 200.136,136.195 200.147 L 107.140 200.167 106.115 199.141 L 105.090 198.116 104.865 198.933 C 104.164 201.483,103.572 203.656,102.994 205.792 C 102.814 206.456,102.509 207.581,102.317 208.292 C 102.125 209.002,101.833 210.071,101.669 210.667 C 101.505 211.262,101.203 212.387,100.999 213.167 C 100.795 213.946,100.492 215.071,100.325 215.667 C 99.906 217.171,99.394 219.036,99.023 220.417 C 98.850 221.058,98.551 222.165,98.359 222.876 C 98.167 223.588,97.856 224.750,97.667 225.460 C 97.478 226.169,97.176 227.294,96.995 227.958 C 96.814 228.623,96.509 229.748,96.316 230.458 C 96.123 231.169,95.829 232.237,95.664 232.833 C 95.498 233.429,95.204 234.517,95.010 235.250 C 94.816 235.983,94.509 237.127,94.328 237.792 C 94.148 238.456,93.842 239.581,93.649 240.292 C 93.456 241.002,93.163 242.071,92.997 242.667 C 92.832 243.262,92.537 244.350,92.343 245.083 C 91.977 246.468,91.569 247.976,91.002 250.042 C 90.819 250.706,90.529 251.775,90.356 252.417 C 90.183 253.058,89.885 254.165,89.693 254.876 C 89.500 255.588,89.189 256.750,89.000 257.460 C 88.811 258.169,88.512 259.275,88.335 259.917 C 87.981 261.199,87.569 262.708,87.017 264.750 C 86.819 265.483,86.509 266.627,86.328 267.292 C 86.148 267.956,85.853 269.044,85.673 269.708 C 85.493 270.373,85.203 271.442,85.029 272.083 C 84.854 272.725,84.549 273.850,84.351 274.583 C 84.152 275.317,83.842 276.460,83.662 277.125 C 83.481 277.790,83.176 278.915,82.984 279.625 C 82.792 280.335,82.499 281.404,82.334 282.000 C 82.170 282.596,81.867 283.721,81.662 284.500 C 81.457 285.279,81.155 286.329,80.991 286.833 L 80.693 287.750 80.682 286.917 C 80.675 286.458,80.524 284.621,80.346 282.833 C 80.168 281.046,79.862 277.708,79.666 275.417 C 79.470 273.125,79.196 270.087,79.059 268.667 C 78.922 267.246,78.748 265.183,78.672 264.083 C 78.597 262.983,78.417 260.883,78.273 259.417 C 78.129 257.950,77.856 254.950,77.667 252.750 C 77.478 250.550,77.179 247.137,77.003 245.167 C 76.827 243.196,76.527 239.821,76.336 237.667 C 76.145 235.512,75.842 232.100,75.663 230.083 C 75.341 226.455,75.001 222.595,74.334 215.000 C 73.983 210.999,73.598 206.665,73.004 200.000 C 72.820 197.938,72.515 194.487,72.327 192.333 C 72.139 190.179,71.870 187.217,71.731 185.750 C 71.591 184.283,71.415 182.183,71.339 181.083 C 71.264 179.983,71.084 177.883,70.940 176.417 C 70.796 174.950,70.523 171.950,70.334 169.750 C 70.144 167.550,69.845 164.137,69.670 162.167 C 69.185 156.736,68.264 146.333,67.674 139.625 C 67.224 134.512,66.717 128.772,66.330 124.417 C 66.150 122.400,65.852 119.025,65.666 116.917 C 63.306 90.068,63.373 90.713,62.938 90.409 C 62.525 90.120,60.266 90.123,115.417 90.335 M197.590 91.109 L 198.930 91.207 198.807 92.312 C 198.739 92.919,198.527 94.767,198.335 96.417 C 197.906 100.112,197.459 103.977,197.007 107.917 C 196.359 113.553,195.981 116.750,195.656 119.333 C 195.477 120.754,195.331 122.277,195.332 122.718 C 195.333 123.159,195.277 123.485,195.208 123.442 C 195.140 123.400,195.110 123.705,195.143 124.120 C 195.177 124.536,195.139 124.836,195.060 124.787 C 194.981 124.738,194.944 125.038,194.977 125.454 C 195.010 125.869,194.972 126.169,194.893 126.120 C 194.815 126.072,194.777 126.372,194.810 126.787 C 194.844 127.209,194.804 127.502,194.720 127.450 C 194.637 127.399,194.598 127.599,194.632 127.894 C 194.667 128.190,194.495 130.153,194.250 132.258 C 194.005 134.362,193.782 136.271,193.756 136.500 C 193.729 136.729,193.656 137.549,193.594 138.323 C 193.532 139.096,193.443 139.791,193.396 139.867 C 193.349 139.943,193.282 140.323,193.247 140.711 C 193.064 142.735,192.871 144.646,192.762 145.500 C 192.680 146.135,192.516 147.614,192.152 151.000 C 191.501 157.047,191.161 160.124,190.826 163.000 C 190.639 164.604,190.344 167.154,190.169 168.667 C 189.995 170.179,189.695 172.767,189.502 174.417 C 189.310 176.067,189.010 178.654,188.836 180.167 C 188.449 183.518,187.960 187.746,187.497 191.750 C 186.921 196.728,186.656 198.893,186.562 199.375 C 186.496 199.719,186.539 199.833,186.737 199.833 C 186.882 199.833,187.000 199.907,187.000 199.998 C 187.000 200.103,183.143 200.178,176.167 200.206 C 170.208 200.230,165.333 200.194,165.333 200.125 C 165.333 200.056,165.479 200.000,165.656 200.000 C 166.028 200.000,165.984 200.250,166.496 195.167 C 166.685 193.287,166.984 190.362,167.162 188.667 C 167.339 186.971,167.641 184.046,167.833 182.167 C 168.177 178.807,168.481 175.853,169.165 169.250 C 170.049 160.716,170.204 159.219,170.501 156.333 C 170.675 154.637,170.975 151.712,171.167 149.833 C 171.359 147.954,171.661 145.029,171.838 143.333 C 172.015 141.637,172.314 138.750,172.502 136.917 C 172.690 135.083,172.988 132.196,173.164 130.500 C 173.340 128.804,173.641 125.879,173.833 124.000 C 174.177 120.640,174.481 117.686,175.165 111.083 C 175.355 109.250,175.662 106.287,175.847 104.500 C 176.031 102.712,176.324 99.900,176.497 98.250 C 176.670 96.600,176.901 94.293,177.012 93.122 L 177.213 90.995 186.731 91.003 C 191.967 91.008,196.853 91.055,197.590 91.109 M233.125 91.436 L 235.833 91.535 235.833 108.476 C 235.833 117.793,235.783 142.235,235.722 162.792 L 235.611 200.167 211.951 200.167 L 188.291 200.167 188.399 199.489 C 188.459 199.117,188.547 198.348,188.596 197.781 C 188.645 197.214,188.828 195.588,189.003 194.167 C 189.178 192.746,189.478 190.196,189.670 188.500 C 189.861 186.804,190.161 184.217,190.335 182.750 C 190.509 181.283,190.806 178.733,190.994 177.083 C 191.183 175.433,191.490 172.771,191.676 171.167 C 191.862 169.563,192.157 167.012,192.332 165.500 C 192.507 163.987,192.807 161.400,192.999 159.750 C 193.865 152.299,194.452 147.227,195.661 136.750 C 195.852 135.100,196.153 132.512,196.331 131.000 C 196.509 129.487,196.809 126.900,196.998 125.250 C 197.187 123.600,197.487 121.013,197.665 119.500 C 197.843 117.987,198.146 115.362,198.337 113.667 C 198.529 111.971,198.827 109.383,199.001 107.917 C 199.175 106.450,199.474 103.900,199.665 102.250 C 199.856 100.600,200.156 98.050,200.333 96.583 C 200.509 95.117,200.702 93.289,200.762 92.522 L 200.871 91.127 215.644 91.232 C 223.769 91.289,231.635 91.381,233.125 91.436 M39.448 92.125 C 39.406 92.285,39.372 92.154,39.372 91.833 C 39.372 91.513,39.406 91.381,39.448 91.542 C 39.490 91.702,39.490 91.965,39.448 92.125 M62.115 92.125 C 62.073 92.285,62.039 92.154,62.039 91.833 C 62.039 91.513,62.073 91.381,62.115 91.542 C 62.157 91.702,62.157 91.965,62.115 92.125 M283.250 91.504 C 303.651 91.717,302.533 91.579,311.121 94.938 C 313.392 95.826,316.112 96.887,317.167 97.294 C 318.221 97.702,319.275 98.134,319.510 98.255 C 320.023 98.521,327.562 106.290,327.718 106.714 C 327.778 106.877,328.987 109.727,330.405 113.047 L 332.984 119.083 333.571 122.192 C 335.248 131.062,335.871 139.381,335.243 144.493 C 335.102 145.643,334.837 147.821,334.654 149.333 C 333.585 158.183,333.932 156.418,330.561 170.157 C 330.189 171.675,329.919 172.354,329.238 173.490 C 328.768 174.275,327.179 176.942,325.707 179.417 L 323.030 183.917 318.855 188.270 C 314.864 192.432,314.608 192.665,313.048 193.544 C 306.085 197.472,302.282 198.858,295.917 199.786 C 293.452 200.145,261.612 200.324,261.958 199.976 C 262.124 199.809,262.167 188.701,262.167 145.550 L 262.167 91.333 264.542 91.333 C 265.848 91.333,274.267 91.409,283.250 91.504 M39.948 97.792 C 39.906 97.952,39.872 97.821,39.872 97.500 C 39.872 97.179,39.906 97.048,39.948 97.208 C 39.990 97.369,39.990 97.631,39.948 97.792 M40.115 99.292 C 40.073 99.452,40.039 99.321,40.039 99.000 C 40.039 98.679,40.073 98.548,40.115 98.708 C 40.157 98.869,40.157 99.131,40.115 99.292 M40.615 104.958 C 40.573 105.119,40.539 104.987,40.539 104.667 C 40.539 104.346,40.573 104.215,40.615 104.375 C 40.657 104.535,40.657 104.798,40.615 104.958 M63.282 105.458 C 63.240 105.619,63.205 105.487,63.205 105.167 C 63.205 104.846,63.240 104.715,63.282 104.875 C 63.323 105.035,63.323 105.298,63.282 105.458 M40.782 106.292 C 40.740 106.452,40.705 106.321,40.705 106.000 C 40.705 105.679,40.740 105.548,40.782 105.708 C 40.823 105.869,40.823 106.131,40.782 106.292 M63.448 106.958 C 63.406 107.119,63.372 106.987,63.372 106.667 C 63.372 106.346,63.406 106.215,63.448 106.375 C 63.490 106.535,63.490 106.798,63.448 106.958 M41.282 111.958 C 41.240 112.119,41.205 111.987,41.205 111.667 C 41.205 111.346,41.240 111.215,41.282 111.375 C 41.323 111.535,41.323 111.798,41.282 111.958 M41.448 113.458 C 41.406 113.619,41.372 113.487,41.372 113.167 C 41.372 112.846,41.406 112.715,41.448 112.875 C 41.490 113.035,41.490 113.298,41.448 113.458 M41.948 119.125 C 41.906 119.285,41.872 119.154,41.872 118.833 C 41.872 118.513,41.906 118.381,41.948 118.542 C 41.990 118.702,41.990 118.965,41.948 119.125 M64.615 120.292 C 64.573 120.452,64.539 120.321,64.539 120.000 C 64.539 119.679,64.573 119.548,64.615 119.708 C 64.657 119.869,64.657 120.131,64.615 120.292 M64.782 121.792 C 64.740 121.952,64.705 121.821,64.705 121.500 C 64.705 121.179,64.740 121.048,64.782 121.208 C 64.823 121.369,64.823 121.631,64.782 121.792 M42.782 127.625 C 42.740 127.785,42.705 127.654,42.705 127.333 C 42.705 127.013,42.740 126.881,42.782 127.042 C 42.823 127.202,42.823 127.465,42.782 127.625 M65.282 127.792 C 65.240 127.952,65.205 127.821,65.205 127.500 C 65.205 127.179,65.240 127.048,65.282 127.208 C 65.323 127.369,65.323 127.631,65.282 127.792 M65.448 129.292 C 65.406 129.452,65.372 129.321,65.372 129.000 C 65.372 128.679,65.406 128.548,65.448 128.708 C 65.490 128.869,65.490 129.131,65.448 129.292 M43.282 133.292 C 43.240 133.452,43.205 133.321,43.205 133.000 C 43.205 132.679,43.240 132.548,43.282 132.708 C 43.323 132.869,43.323 133.131,43.282 133.292 M65.948 135.125 C 65.906 135.285,65.872 135.154,65.872 134.833 C 65.872 134.512,65.906 134.381,65.948 134.542 C 65.990 134.702,65.990 134.965,65.948 135.125 M66.115 136.625 C 66.073 136.785,66.039 136.654,66.039 136.333 C 66.039 136.012,66.073 135.881,66.115 136.042 C 66.157 136.202,66.157 136.465,66.115 136.625 M44.115 141.792 C 44.073 141.952,44.039 141.821,44.039 141.500 C 44.039 141.179,44.073 141.048,44.115 141.208 C 44.157 141.369,44.157 141.631,44.115 141.792 M66.615 142.625 C 66.573 142.785,66.539 142.654,66.539 142.333 C 66.539 142.012,66.573 141.881,66.615 142.042 C 66.657 142.202,66.657 142.465,66.615 142.625 M66.782 144.125 C 66.740 144.285,66.705 144.154,66.705 143.833 C 66.705 143.512,66.740 143.381,66.782 143.542 C 66.823 143.702,66.823 143.965,66.782 144.125 M44.615 147.458 C 44.573 147.619,44.539 147.487,44.539 147.167 C 44.539 146.846,44.573 146.715,44.615 146.875 C 44.657 147.035,44.657 147.298,44.615 147.458 M67.282 149.958 C 67.240 150.119,67.205 149.987,67.205 149.667 C 67.205 149.346,67.240 149.215,67.282 149.375 C 67.323 149.535,67.323 149.798,67.282 149.958 M67.448 151.458 C 67.406 151.619,67.372 151.487,67.372 151.167 C 67.372 150.846,67.406 150.715,67.448 150.875 C 67.490 151.035,67.490 151.298,67.448 151.458 M45.448 155.958 C 45.406 156.119,45.372 155.987,45.372 155.667 C 45.372 155.346,45.406 155.215,45.448 155.375 C 45.490 155.535,45.490 155.798,45.448 155.958 M67.948 157.458 C 67.906 157.619,67.872 157.487,67.872 157.167 C 67.872 156.846,67.906 156.715,67.948 156.875 C 67.990 157.035,67.990 157.298,67.948 157.458 M68.115 158.958 C 68.073 159.119,68.039 158.987,68.039 158.667 C 68.039 158.346,68.073 158.215,68.115 158.375 C 68.157 158.535,68.157 158.798,68.115 158.958 M45.948 161.625 C 45.906 161.785,45.872 161.654,45.872 161.333 C 45.872 161.012,45.906 160.881,45.948 161.042 C 45.990 161.202,45.990 161.465,45.948 161.625 M68.615 164.958 C 68.573 165.119,68.539 164.987,68.539 164.667 C 68.539 164.346,68.573 164.215,68.615 164.375 C 68.657 164.535,68.657 164.798,68.615 164.958 M46.615 168.792 C 46.573 168.952,46.539 168.821,46.539 168.500 C 46.539 168.179,46.573 168.048,46.615 168.208 C 46.657 168.369,46.657 168.631,46.615 168.792 M46.782 170.125 C 46.740 170.285,46.705 170.154,46.705 169.833 C 46.705 169.512,46.740 169.381,46.782 169.542 C 46.823 169.702,46.823 169.965,46.782 170.125 M69.282 172.292 C 69.240 172.452,69.205 172.321,69.205 172.000 C 69.205 171.679,69.240 171.548,69.282 171.708 C 69.323 171.869,69.323 172.131,69.282 172.292 M69.448 173.792 C 69.406 173.952,69.372 173.821,69.372 173.500 C 69.372 173.179,69.406 173.048,69.448 173.208 C 69.490 173.369,69.490 173.631,69.448 173.792 M47.282 175.792 C 47.240 175.952,47.205 175.821,47.205 175.500 C 47.205 175.179,47.240 175.048,47.282 175.208 C 47.323 175.369,47.323 175.631,47.282 175.792 M47.448 177.292 C 47.406 177.452,47.372 177.321,47.372 177.000 C 47.372 176.679,47.406 176.548,47.448 176.708 C 47.490 176.869,47.490 177.131,47.448 177.292 M69.948 179.792 C 69.906 179.952,69.872 179.821,69.872 179.500 C 69.872 179.179,69.906 179.048,69.948 179.208 C 69.990 179.369,69.990 179.631,69.948 179.792 M70.115 181.292 C 70.073 181.452,70.039 181.321,70.039 181.000 C 70.039 180.679,70.073 180.548,70.115 180.708 C 70.157 180.869,70.157 181.131,70.115 181.292 M47.948 182.958 C 47.906 183.119,47.872 182.987,47.872 182.667 C 47.872 182.346,47.906 182.215,47.948 182.375 C 47.990 182.535,47.990 182.798,47.948 182.958 M70.500 183.917 C 70.500 184.054,70.425 184.167,70.333 184.167 C 70.242 184.167,70.167 184.054,70.167 183.917 C 70.167 183.779,70.242 183.667,70.333 183.667 C 70.425 183.667,70.500 183.779,70.500 183.917 M70.615 187.125 C 70.573 187.285,70.539 187.154,70.539 186.833 C 70.539 186.512,70.573 186.381,70.615 186.542 C 70.657 186.702,70.657 186.965,70.615 187.125 M70.782 188.625 C 70.740 188.785,70.705 188.654,70.705 188.333 C 70.705 188.012,70.740 187.881,70.782 188.042 C 70.823 188.202,70.823 188.465,70.782 188.625 M48.782 191.458 C 48.740 191.619,48.705 191.487,48.705 191.167 C 48.705 190.846,48.740 190.715,48.782 190.875 C 48.823 191.035,48.823 191.298,48.782 191.458 M71.282 194.625 C 71.240 194.785,71.205 194.654,71.205 194.333 C 71.205 194.012,71.240 193.881,71.282 194.042 C 71.323 194.202,71.323 194.465,71.282 194.625 M71.448 196.125 C 71.406 196.285,71.372 196.154,71.372 195.833 C 71.372 195.512,71.406 195.381,71.448 195.542 C 71.490 195.702,71.490 195.965,71.448 196.125 M49.282 197.125 C 49.240 197.285,49.205 197.154,49.205 196.833 C 49.205 196.512,49.240 196.381,49.282 196.542 C 49.323 196.702,49.323 196.965,49.282 197.125 M49.833 201.083 C 49.833 201.221,49.758 201.333,49.667 201.333 C 49.575 201.333,49.500 201.221,49.500 201.083 C 49.500 200.946,49.575 200.833,49.667 200.833 C 49.758 200.833,49.833 200.946,49.833 201.083 M72.115 203.458 C 72.073 203.619,72.039 203.487,72.039 203.167 C 72.039 202.846,72.073 202.715,72.115 202.875 C 72.157 203.035,72.157 203.298,72.115 203.458 M50.115 205.625 C 50.073 205.785,50.039 205.654,50.039 205.333 C 50.039 205.012,50.073 204.881,50.115 205.042 C 50.157 205.202,50.157 205.465,50.115 205.625 M72.615 209.458 C 72.573 209.619,72.539 209.487,72.539 209.167 C 72.539 208.846,72.573 208.715,72.615 208.875 C 72.657 209.035,72.657 209.298,72.615 209.458 M72.782 210.958 C 72.740 211.119,72.705 210.987,72.705 210.667 C 72.705 210.346,72.740 210.215,72.782 210.375 C 72.823 210.535,72.823 210.798,72.782 210.958 M50.615 211.292 C 50.573 211.452,50.539 211.321,50.539 211.000 C 50.539 210.679,50.573 210.548,50.615 210.708 C 50.657 210.869,50.657 211.131,50.615 211.292 M122.001 216.284 C 124.155 218.457,125.732 220.088,125.507 219.909 C 124.724 219.286,117.844 212.333,118.010 212.333 C 118.052 212.333,119.848 214.111,122.001 216.284 M73.282 216.958 C 73.240 217.119,73.205 216.987,73.205 216.667 C 73.205 216.346,73.240 216.215,73.282 216.375 C 73.323 216.535,73.323 216.798,73.282 216.958 M73.448 218.458 C 73.406 218.619,73.372 218.487,73.372 218.167 C 73.372 217.846,73.406 217.715,73.448 217.875 C 73.490 218.035,73.490 218.298,73.448 218.458 M51.448 219.792 C 51.406 219.952,51.372 219.821,51.372 219.500 C 51.372 219.179,51.406 219.048,51.448 219.208 C 51.490 219.369,51.490 219.631,51.448 219.792 M73.833 221.083 C 73.833 221.221,73.758 221.333,73.667 221.333 C 73.575 221.333,73.500 221.221,73.500 221.083 C 73.500 220.946,73.575 220.833,73.667 220.833 C 73.758 220.833,73.833 220.946,73.833 221.083 M73.948 224.292 C 73.906 224.452,73.872 224.321,73.872 224.000 C 73.872 223.679,73.906 223.548,73.948 223.708 C 73.990 223.869,73.990 224.131,73.948 224.292 M51.948 225.458 C 51.906 225.619,51.872 225.487,51.872 225.167 C 51.872 224.846,51.906 224.715,51.948 224.875 C 51.990 225.035,51.990 225.298,51.948 225.458 M74.115 225.792 C 74.073 225.952,74.039 225.821,74.039 225.500 C 74.039 225.179,74.073 225.048,74.115 225.208 C 74.157 225.369,74.157 225.631,74.115 225.792 M52.115 226.958 C 52.073 227.119,52.039 226.987,52.039 226.667 C 52.039 226.346,52.073 226.215,52.115 226.375 C 52.157 226.535,52.157 226.798,52.115 226.958 M74.615 231.792 C 74.573 231.952,74.539 231.821,74.539 231.500 C 74.539 231.179,74.573 231.048,74.615 231.208 C 74.657 231.369,74.657 231.631,74.615 231.792 M52.615 232.625 C 52.573 232.785,52.539 232.654,52.539 232.333 C 52.539 232.012,52.573 231.881,52.615 232.042 C 52.657 232.202,52.657 232.465,52.615 232.625 M74.782 233.292 C 74.740 233.452,74.705 233.321,74.705 233.000 C 74.705 232.679,74.740 232.548,74.782 232.708 C 74.823 232.869,74.823 233.131,74.782 233.292 M52.782 233.958 C 52.740 234.119,52.705 233.987,52.705 233.667 C 52.705 233.346,52.740 233.215,52.782 233.375 C 52.823 233.535,52.823 233.798,52.782 233.958 M161.410 234.208 C 161.205 235.813,160.636 240.449,160.332 243.000 C 160.141 244.604,159.840 247.117,159.663 248.583 C 159.486 250.050,159.188 252.525,159.002 254.083 C 158.815 255.642,158.517 258.117,158.339 259.583 C 158.162 261.050,157.860 263.563,157.668 265.167 C 157.477 266.771,157.175 269.283,156.998 270.750 C 156.821 272.217,156.519 274.729,156.327 276.333 C 156.135 277.938,155.837 280.375,155.665 281.750 C 155.494 283.125,155.308 284.782,155.252 285.433 C 155.197 286.083,155.092 286.833,155.018 287.099 L 154.885 287.583 154.765 287.000 C 154.644 286.413,154.229 284.837,153.667 282.833 C 153.346 281.689,152.940 280.168,152.332 277.833 C 152.129 277.054,151.829 275.929,151.664 275.333 C 151.296 273.996,150.774 272.067,150.333 270.417 C 150.150 269.729,149.850 268.604,149.667 267.917 C 149.483 267.229,149.183 266.104,149.000 265.417 C 148.817 264.729,148.519 263.623,148.338 262.958 C 148.158 262.294,147.853 261.150,147.661 260.417 C 147.470 259.683,147.167 258.540,146.990 257.875 C 146.812 257.210,146.517 256.104,146.333 255.417 C 146.150 254.729,145.852 253.623,145.672 252.958 C 145.491 252.294,145.186 251.150,144.995 250.417 C 144.803 249.683,144.503 248.558,144.328 247.917 C 144.153 247.275,143.853 246.150,143.661 245.417 C 143.470 244.683,143.170 243.558,142.995 242.917 C 142.820 242.275,142.516 241.150,142.320 240.417 C 141.538 237.486,140.866 235.019,140.561 233.958 C 140.482 233.683,141.057 233.667,150.978 233.667 L 161.479 233.667 161.410 234.208 M75.167 235.917 C 75.167 236.054,75.092 236.167,75.000 236.167 C 74.908 236.167,74.833 236.054,74.833 235.917 C 74.833 235.779,74.908 235.667,75.000 235.667 C 75.092 235.667,75.167 235.779,75.167 235.917 M183.282 237.125 C 183.240 237.285,183.205 237.154,183.205 236.833 C 183.205 236.512,183.240 236.381,183.282 236.542 C 183.323 236.702,183.323 236.965,183.282 237.125 M75.282 239.125 C 75.240 239.285,75.205 239.154,75.205 238.833 C 75.205 238.512,75.240 238.381,75.282 238.542 C 75.323 238.702,75.323 238.965,75.282 239.125 M53.282 239.625 C 53.240 239.785,53.205 239.654,53.205 239.333 C 53.205 239.012,53.240 238.881,53.282 239.042 C 53.323 239.202,53.323 239.465,53.282 239.625 M75.448 240.625 C 75.406 240.785,75.372 240.654,75.372 240.333 C 75.372 240.012,75.406 239.881,75.448 240.042 C 75.490 240.202,75.490 240.465,75.448 240.625 M53.448 241.125 C 53.406 241.285,53.372 241.154,53.372 240.833 C 53.372 240.512,53.406 240.381,53.448 240.542 C 53.490 240.702,53.490 240.965,53.448 241.125 M182.782 242.292 C 182.740 242.452,182.705 242.321,182.705 242.000 C 182.705 241.679,182.740 241.548,182.782 241.708 C 182.823 241.869,182.823 242.131,182.782 242.292 M75.948 246.625 C 75.906 246.785,75.872 246.654,75.872 246.333 C 75.872 246.012,75.906 245.881,75.948 246.042 C 75.990 246.202,75.990 246.465,75.948 246.625 M53.948 246.792 C 53.906 246.952,53.872 246.821,53.872 246.500 C 53.872 246.179,53.906 246.048,53.948 246.208 C 53.990 246.369,53.990 246.631,53.948 246.792 M76.115 248.125 C 76.073 248.285,76.039 248.154,76.039 247.833 C 76.039 247.512,76.073 247.381,76.115 247.542 C 76.157 247.702,76.157 247.965,76.115 248.125 M76.615 254.125 C 76.573 254.285,76.539 254.154,76.539 253.833 C 76.539 253.512,76.573 253.381,76.615 253.542 C 76.657 253.702,76.657 253.965,76.615 254.125 M54.782 255.292 C 54.740 255.452,54.705 255.321,54.705 255.000 C 54.705 254.679,54.740 254.548,54.782 254.708 C 54.823 254.869,54.823 255.131,54.782 255.292 M181.282 256.458 C 181.240 256.619,181.205 256.487,181.205 256.167 C 181.205 255.846,181.240 255.715,181.282 255.875 C 181.323 256.035,181.323 256.298,181.282 256.458 M55.282 260.958 C 55.240 261.119,55.205 260.987,55.205 260.667 C 55.205 260.346,55.240 260.215,55.282 260.375 C 55.323 260.535,55.323 260.798,55.282 260.958 M77.282 261.458 C 77.240 261.619,77.205 261.487,77.205 261.167 C 77.205 260.846,77.240 260.715,77.282 260.875 C 77.323 261.035,77.323 261.298,77.282 261.458 M180.782 261.625 C 180.740 261.785,180.705 261.654,180.705 261.333 C 180.705 261.012,180.740 260.881,180.782 261.042 C 180.823 261.202,180.823 261.465,180.782 261.625 M77.448 262.958 C 77.406 263.119,77.372 262.987,77.372 262.667 C 77.372 262.346,77.406 262.215,77.448 262.375 C 77.490 262.535,77.490 262.798,77.448 262.958 M55.833 264.917 C 55.833 265.054,55.758 265.167,55.667 265.167 C 55.575 265.167,55.500 265.054,55.500 264.917 C 55.500 264.779,55.575 264.667,55.667 264.667 C 55.758 264.667,55.833 264.779,55.833 264.917 M77.948 268.958 C 77.906 269.119,77.872 268.987,77.872 268.667 C 77.872 268.346,77.906 268.215,77.948 268.375 C 77.990 268.535,77.990 268.798,77.948 268.958 M56.115 269.458 C 56.073 269.619,56.039 269.487,56.039 269.167 C 56.039 268.846,56.073 268.715,56.115 268.875 C 56.157 269.035,56.157 269.298,56.115 269.458 M78.115 270.458 C 78.073 270.619,78.039 270.487,78.039 270.167 C 78.039 269.846,78.073 269.715,78.115 269.875 C 78.157 270.035,78.157 270.298,78.115 270.458 M78.500 273.083 C 78.500 273.221,78.425 273.333,78.333 273.333 C 78.242 273.333,78.167 273.221,78.167 273.083 C 78.167 272.946,78.242 272.833,78.333 272.833 C 78.425 272.833,78.500 272.946,78.500 273.083 M56.615 275.125 C 56.573 275.285,56.539 275.154,56.539 274.833 C 56.539 274.512,56.573 274.381,56.615 274.542 C 56.657 274.702,56.657 274.965,56.615 275.125 M78.615 276.292 C 78.573 276.452,78.539 276.321,78.539 276.000 C 78.539 275.679,78.573 275.548,78.615 275.708 C 78.657 275.869,78.657 276.131,78.615 276.292 M150.810 276.500 C 150.810 276.658,150.757 276.627,150.667 276.417 C 150.588 276.233,150.523 275.971,150.523 275.833 C 150.523 275.676,150.576 275.707,150.667 275.917 C 150.745 276.100,150.810 276.362,150.810 276.500 M78.782 277.792 C 78.740 277.952,78.705 277.821,78.705 277.500 C 78.705 277.179,78.740 277.048,78.782 277.208 C 78.823 277.369,78.823 277.631,78.782 277.792 M178.782 280.958 C 178.740 281.119,178.705 280.987,178.705 280.667 C 178.705 280.346,178.740 280.215,178.782 280.375 C 178.823 280.535,178.823 280.798,178.782 280.958 M57.448 283.625 C 57.406 283.785,57.372 283.654,57.372 283.333 C 57.372 283.012,57.406 282.881,57.448 283.042 C 57.490 283.202,57.490 283.465,57.448 283.625 M79.282 283.792 C 79.240 283.952,79.205 283.821,79.205 283.500 C 79.205 283.179,79.240 283.048,79.282 283.208 C 79.323 283.369,79.323 283.631,79.282 283.792 M79.448 285.292 C 79.406 285.452,79.372 285.321,79.372 285.000 C 79.372 284.679,79.406 284.548,79.448 284.708 C 79.490 284.869,79.490 285.131,79.448 285.292 M57.948 289.292 C 57.906 289.452,57.872 289.321,57.872 289.000 C 57.872 288.679,57.906 288.548,57.948 288.708 C 57.990 288.869,57.990 289.131,57.948 289.292 M58.115 290.792 C 58.073 290.952,58.039 290.821,58.039 290.500 C 58.039 290.179,58.073 290.048,58.115 290.208 C 58.157 290.369,58.157 290.631,58.115 290.792 M79.948 291.125 C 79.906 291.285,79.872 291.154,79.872 290.833 C 79.872 290.512,79.906 290.381,79.948 290.542 C 79.990 290.702,79.990 290.965,79.948 291.125 M80.115 292.625 C 80.073 292.785,80.039 292.654,80.039 292.333 C 80.039 292.012,80.073 291.881,80.115 292.042 C 80.157 292.202,80.157 292.465,80.115 292.625 M58.615 296.458 C 58.573 296.619,58.539 296.487,58.539 296.167 C 58.539 295.846,58.573 295.715,58.615 295.875 C 58.657 296.035,58.657 296.298,58.615 296.458 M58.782 297.792 C 58.740 297.952,58.705 297.821,58.705 297.500 C 58.705 297.179,58.740 297.048,58.782 297.208 C 58.823 297.369,58.823 297.631,58.782 297.792 M102.738 298.405 C 102.677 298.649,102.594 298.817,102.555 298.777 C 102.516 298.738,102.534 298.506,102.595 298.262 C 102.657 298.018,102.739 297.850,102.778 297.889 C 102.817 297.929,102.799 298.161,102.738 298.405 M59.448 304.958 C 59.406 305.119,59.372 304.987,59.372 304.667 C 59.372 304.346,59.406 304.215,59.448 304.375 C 59.490 304.535,59.490 304.798,59.448 304.958 M59.948 310.625 C 59.906 310.785,59.872 310.654,59.872 310.333 C 59.872 310.012,59.906 309.881,59.948 310.042 C 59.990 310.202,59.990 310.465,59.948 310.625 M60.782 319.125 C 60.740 319.285,60.705 319.154,60.705 318.833 C 60.705 318.512,60.740 318.381,60.782 318.542 C 60.823 318.702,60.823 318.965,60.782 319.125 M174.615 320.958 C 174.573 321.119,174.539 320.987,174.539 320.667 C 174.539 320.346,174.573 320.215,174.615 320.375 C 174.657 320.535,174.657 320.798,174.615 320.958 M61.282 324.792 C 61.240 324.952,61.205 324.821,61.205 324.500 C 61.205 324.179,61.240 324.048,61.282 324.208 C 61.323 324.369,61.323 324.631,61.282 324.792 M62.115 333.292 C 62.073 333.452,62.039 333.321,62.039 333.000 C 62.039 332.679,62.073 332.548,62.115 332.708 C 62.157 332.869,62.157 333.131,62.115 333.292 M62.615 338.958 C 62.573 339.119,62.539 338.987,62.539 338.667 C 62.539 338.346,62.573 338.215,62.615 338.375 C 62.657 338.535,62.657 338.798,62.615 338.958 M88.875 339.290 C 88.210 339.322,87.123 339.322,86.458 339.290 C 85.794 339.259,86.337 339.233,87.667 339.233 C 88.996 339.233,89.540 339.259,88.875 339.290 M81.868 339.457 C 81.199 339.489,80.149 339.489,79.534 339.457 C 78.920 339.425,79.467 339.399,80.750 339.399 C 82.033 339.399,82.536 339.426,81.868 339.457 M168.583 339.545 C 170.875 339.569,166.061 339.607,157.885 339.628 C 149.709 339.649,142.985 339.610,142.942 339.542 C 142.873 339.429,157.865 339.431,168.583 339.545 M67.833 339.667 C 67.833 339.758,67.458 339.833,67.000 339.833 C 66.542 339.833,66.167 339.758,66.167 339.667 C 66.167 339.575,66.542 339.500,67.000 339.500 C 67.458 339.500,67.833 339.575,67.833 339.667 M74.792 339.623 C 74.265 339.656,73.402 339.656,72.875 339.623 C 72.348 339.590,72.779 339.563,73.833 339.563 C 74.887 339.563,75.319 339.590,74.792 339.623 " stroke="none" fill="#043464" fill-rule="evenodd"></path><path id="path2" d="M67.688 39.442 C 67.596 39.795,67.473 40.383,67.415 40.750 C 67.357 41.117,67.170 42.092,67.000 42.917 C 66.831 43.742,66.538 45.186,66.350 46.126 C 66.162 47.066,65.858 48.585,65.674 49.502 C 65.491 50.418,65.195 51.899,65.016 52.793 C 64.837 53.686,64.528 55.242,64.330 56.250 C 64.131 57.258,63.871 58.517,63.752 59.046 L 63.535 60.009 65.971 59.963 L 68.407 59.917 68.538 59.167 C 68.661 58.459,69.116 56.144,69.569 53.917 L 69.772 52.917 72.472 52.804 C 78.784 52.542,81.919 49.834,81.893 44.667 C 81.870 40.221,79.862 39.009,72.302 38.879 L 67.855 38.802 67.688 39.442 M124.942 39.109 C 124.892 39.278,124.804 39.717,124.747 40.083 C 124.689 40.450,124.503 41.425,124.334 42.250 C 124.164 43.075,123.871 44.519,123.683 45.459 C 123.495 46.399,123.191 47.918,123.008 48.835 C 122.824 49.752,122.528 51.233,122.349 52.126 C 122.170 53.019,121.862 54.575,121.663 55.583 C 121.465 56.592,121.197 57.882,121.068 58.451 C 120.685 60.141,120.507 60.016,123.207 59.963 L 125.580 59.917 125.794 58.833 C 125.911 58.237,126.155 57.000,126.336 56.083 C 126.517 55.167,126.724 54.079,126.796 53.667 L 126.926 52.917 129.619 52.811 C 135.174 52.593,137.979 50.722,138.915 46.610 C 139.778 42.821,138.293 40.127,134.833 39.207 C 133.258 38.788,125.060 38.707,124.942 39.109 M240.275 39.109 C 240.225 39.278,240.137 39.717,240.080 40.083 C 240.023 40.450,239.837 41.425,239.667 42.250 C 239.497 43.075,239.204 44.519,239.016 45.459 C 238.828 46.399,238.524 47.918,238.341 48.835 C 238.158 49.752,237.861 51.233,237.683 52.126 C 237.504 53.019,237.195 54.575,236.996 55.583 C 236.798 56.592,236.530 57.882,236.401 58.451 C 236.018 60.141,235.841 60.016,238.540 59.963 L 240.913 59.917 241.127 58.833 C 241.244 58.237,241.489 57.000,241.669 56.083 C 241.850 55.167,242.057 54.079,242.129 53.667 L 242.260 52.917 244.952 52.811 C 250.507 52.593,253.312 50.722,254.248 46.610 C 255.111 42.821,253.626 40.127,250.167 39.207 C 248.592 38.788,240.394 38.707,240.275 39.109 M75.872 43.061 C 77.624 43.926,77.639 46.748,75.899 48.108 C 75.066 48.759,74.059 49.000,72.176 49.000 L 70.667 49.000 70.667 48.566 C 70.667 48.327,70.776 47.708,70.909 47.191 C 71.042 46.673,71.232 45.725,71.333 45.083 C 71.433 44.442,71.591 43.629,71.684 43.277 L 71.854 42.637 73.552 42.696 C 74.772 42.738,75.425 42.841,75.872 43.061 M133.083 43.100 C 135.357 44.292,134.486 48.066,131.770 48.793 C 131.344 48.907,130.279 49.000,129.404 49.000 L 127.813 49.000 127.925 48.208 C 127.986 47.773,128.178 46.795,128.352 46.035 C 128.525 45.275,128.667 44.488,128.668 44.285 C 128.668 44.083,128.748 43.629,128.846 43.277 L 129.024 42.637 130.720 42.694 C 132.042 42.738,132.564 42.827,133.083 43.100 M248.417 43.100 C 250.690 44.292,249.820 48.066,247.104 48.793 C 246.677 48.907,245.613 49.000,244.737 49.000 L 243.146 49.000 243.258 48.208 C 243.320 47.773,243.512 46.795,243.685 46.035 C 243.858 45.275,244.000 44.488,244.001 44.285 C 244.001 44.083,244.082 43.629,244.180 43.277 L 244.357 42.637 246.054 42.694 C 247.376 42.738,247.897 42.827,248.417 43.100 M211.055 47.899 C 209.900 48.892,210.877 50.651,212.375 50.275 C 213.493 49.995,213.922 48.523,213.080 47.860 C 212.466 47.378,211.642 47.394,211.055 47.899 M298.513 47.931 C 297.385 48.880,298.166 50.510,299.637 50.275 C 300.901 50.074,301.475 48.564,300.561 47.845 C 299.953 47.367,299.143 47.401,298.513 47.931 M280.747 47.899 C 279.964 48.240,279.199 49.236,278.876 50.338 C 278.597 51.285,278.558 51.333,278.049 51.333 C 277.561 51.333,277.506 51.387,277.415 51.958 C 277.359 52.302,277.280 52.752,277.237 52.958 C 277.171 53.282,277.230 53.333,277.665 53.333 C 278.248 53.333,278.248 53.428,277.666 56.167 C 277.501 56.946,277.273 58.033,277.161 58.583 C 277.049 59.133,276.920 59.680,276.875 59.799 C 276.811 59.967,277.100 60.003,278.186 59.965 L 279.581 59.917 279.794 58.833 C 279.911 58.237,280.151 57.038,280.328 56.167 C 280.504 55.296,280.694 54.302,280.749 53.958 C 280.848 53.336,280.852 53.333,281.652 53.333 C 282.452 53.333,282.457 53.330,282.560 52.708 C 282.772 51.423,282.736 51.333,282.000 51.333 C 281.243 51.333,281.167 51.139,281.598 50.305 C 281.846 49.826,281.910 49.799,282.604 49.877 C 283.396 49.966,283.517 49.854,284.003 48.576 C 284.298 47.800,282.048 47.332,280.747 47.899 M108.500 47.967 C 107.068 48.180,106.873 50.267,108.250 50.643 L 108.750 50.779 108.067 51.431 C 107.691 51.790,107.208 52.202,106.994 52.348 C 106.014 53.012,107.052 53.902,108.152 53.341 C 110.782 51.999,111.068 47.585,108.500 47.967 M293.417 48.625 C 293.360 49.060,293.168 50.110,292.990 50.958 C 291.499 58.068,291.404 58.671,291.682 59.252 C 292.066 60.052,293.347 60.404,294.628 60.061 C 295.075 59.941,294.999 58.410,294.529 58.065 C 294.312 57.906,294.306 57.736,294.487 56.815 C 294.822 55.110,295.341 52.537,295.677 50.917 C 295.848 50.092,296.036 49.060,296.096 48.625 L 296.205 47.833 294.862 47.833 L 293.520 47.833 293.417 48.625 M94.163 49.094 C 94.073 49.329,94.000 49.608,94.000 49.714 C 94.000 50.512,93.437 51.333,92.890 51.333 C 92.252 51.333,92.000 51.738,92.000 52.761 C 92.000 53.277,92.046 53.333,92.469 53.333 L 92.938 53.333 92.720 54.609 C 92.600 55.311,92.426 56.155,92.335 56.484 C 91.559 59.276,93.091 60.807,95.989 60.138 L 96.838 59.942 96.729 59.346 C 96.511 58.152,96.403 58.010,95.792 58.109 C 94.910 58.252,94.718 57.892,94.993 56.613 C 95.114 56.046,95.274 55.224,95.348 54.784 C 95.595 53.316,95.579 53.333,96.664 53.333 L 97.639 53.333 97.820 52.492 C 97.919 52.029,98.000 51.579,98.000 51.492 C 98.000 51.405,97.560 51.333,97.021 51.333 L 96.043 51.333 96.332 50.089 C 96.676 48.608,96.716 48.667,95.385 48.667 C 94.401 48.667,94.313 48.697,94.163 49.094 M272.919 49.270 C 272.780 49.602,272.667 49.966,272.667 50.079 C 272.667 50.830,272.291 51.333,271.730 51.333 C 271.112 51.333,270.966 51.539,270.742 52.732 C 270.630 53.329,270.634 53.333,271.209 53.333 L 271.789 53.333 271.585 54.292 C 270.481 59.493,270.876 60.360,274.233 60.106 C 275.822 59.986,275.723 60.078,275.441 58.983 C 275.212 58.096,275.201 58.084,274.633 58.135 C 273.527 58.234,273.493 57.911,274.233 54.333 L 274.423 53.417 275.442 53.368 C 276.552 53.314,276.667 53.169,276.667 51.813 C 276.667 51.344,276.647 51.333,275.765 51.333 L 274.863 51.333 275.092 50.375 C 275.500 48.671,275.497 48.667,274.252 48.667 L 273.171 48.667 272.919 49.270 M85.608 51.338 C 83.127 52.082,81.346 56.426,82.490 58.945 C 83.197 60.504,85.162 60.775,86.792 59.538 L 87.333 59.127 87.333 59.655 L 87.333 60.183 88.363 60.133 L 89.392 60.083 89.704 58.583 C 90.041 56.963,90.544 54.469,90.829 53.000 C 90.927 52.496,91.052 51.915,91.106 51.708 C 91.232 51.234,89.138 51.117,88.877 51.583 C 88.755 51.801,88.651 51.790,88.083 51.500 C 87.406 51.155,86.432 51.091,85.608 51.338 M101.348 51.278 C 97.137 52.173,96.418 59.330,100.456 60.163 C 102.632 60.612,105.318 59.553,104.250 58.667 C 104.112 58.553,103.999 58.375,103.997 58.271 C 103.992 57.834,103.702 57.596,103.441 57.813 C 102.617 58.497,100.761 58.129,100.386 57.208 L 100.166 56.667 102.577 56.667 C 105.299 56.667,105.199 56.716,105.407 55.285 C 105.843 52.276,104.215 50.669,101.348 51.278 M112.324 51.315 C 109.498 52.238,109.409 54.933,112.146 56.667 C 113.437 57.485,113.606 57.846,112.844 58.162 C 112.220 58.421,111.465 58.256,110.833 57.724 L 110.340 57.309 109.673 57.863 C 108.846 58.550,108.844 58.654,109.650 59.382 C 112.232 61.714,117.078 59.223,115.583 56.332 C 115.322 55.828,113.932 54.667,113.588 54.667 C 113.342 54.667,112.667 53.961,112.667 53.703 C 112.667 53.085,114.204 53.064,114.757 53.675 C 115.047 53.995,116.500 52.993,116.500 52.473 C 116.500 51.722,113.566 50.909,112.324 51.315 M144.333 51.353 C 144.104 51.444,143.628 51.795,143.275 52.134 L 142.632 52.750 142.748 52.042 L 142.863 51.333 141.776 51.333 C 140.882 51.333,140.675 51.385,140.610 51.625 C 140.491 52.063,140.078 54.024,139.671 56.083 C 139.472 57.092,139.213 58.384,139.096 58.956 C 138.837 60.221,138.785 60.167,140.271 60.167 L 141.487 60.167 141.678 59.458 C 141.784 59.069,141.930 58.337,142.005 57.833 C 142.473 54.662,143.282 53.409,144.787 53.529 C 145.179 53.560,145.500 53.577,145.500 53.567 C 145.500 53.557,145.679 53.055,145.898 52.452 C 146.234 51.524,146.258 51.340,146.051 51.261 C 145.683 51.119,144.804 51.167,144.333 51.353 M149.148 51.386 C 146.201 52.489,144.756 56.513,146.408 59.016 C 147.492 60.658,150.928 60.580,152.536 58.876 C 155.866 55.347,153.361 49.809,149.148 51.386 M158.275 51.338 C 155.090 52.292,153.718 58.231,156.366 59.600 C 157.001 59.928,158.123 59.884,158.977 59.496 C 159.869 59.092,159.880 59.091,159.754 59.487 C 159.698 59.663,159.620 59.981,159.581 60.195 C 159.361 61.381,157.569 61.882,156.144 61.155 C 155.772 60.965,155.442 60.836,155.410 60.868 C 154.289 61.989,154.430 62.596,155.946 63.163 C 158.352 64.064,160.715 63.110,161.721 60.833 C 162.116 59.938,162.261 59.346,163.003 55.583 C 163.202 54.575,163.470 53.285,163.599 52.716 C 163.926 51.273,163.962 51.333,162.756 51.333 C 161.835 51.333,161.651 51.384,161.493 51.680 C 161.329 51.985,161.283 51.996,161.112 51.771 C 160.693 51.221,159.349 51.016,158.275 51.338 M169.242 51.401 C 168.962 51.523,168.521 51.874,168.262 52.182 L 167.791 52.742 167.910 52.038 L 168.029 51.333 166.860 51.333 L 165.691 51.333 165.498 52.292 C 165.393 52.819,165.157 54.000,164.974 54.917 C 164.791 55.833,164.497 57.258,164.320 58.083 C 163.877 60.147,163.802 60.000,165.292 60.000 L 166.583 60.000 166.953 58.292 C 167.157 57.352,167.368 56.283,167.423 55.917 C 167.633 54.511,168.775 53.426,169.941 53.527 C 170.532 53.578,171.492 52.006,171.255 51.375 C 171.152 51.100,169.896 51.116,169.242 51.401 M174.275 51.338 C 171.194 52.261,169.506 58.666,172.000 59.966 C 172.742 60.353,174.674 60.139,175.393 59.590 L 176.000 59.127 176.000 59.564 C 176.000 59.988,176.029 60.000,177.046 60.000 L 178.092 60.000 178.385 58.542 C 178.547 57.740,178.823 56.371,178.998 55.500 C 179.174 54.629,179.398 53.504,179.496 53.000 C 179.594 52.496,179.719 51.915,179.773 51.708 C 179.898 51.234,177.804 51.117,177.543 51.583 C 177.422 51.801,177.318 51.790,176.750 51.500 C 176.073 51.155,175.098 51.091,174.275 51.338 M185.463 51.323 C 185.213 51.403,184.801 51.633,184.546 51.835 L 184.083 52.200 184.031 51.767 C 183.980 51.347,183.941 51.333,182.834 51.333 L 181.691 51.333 181.498 52.292 C 181.393 52.819,181.157 54.000,180.974 54.917 C 180.791 55.833,180.497 57.258,180.320 58.083 C 179.877 60.147,179.802 60.000,181.295 60.000 L 182.590 60.000 182.949 58.292 C 183.146 57.352,183.398 56.119,183.508 55.551 C 183.811 53.990,185.019 52.945,185.714 53.640 L 186.052 53.978 185.677 55.781 C 185.471 56.772,185.197 58.049,185.068 58.618 C 184.939 59.186,184.833 59.730,184.833 59.826 C 184.833 59.932,185.346 60.000,186.150 60.000 L 187.467 60.000 187.718 58.792 C 187.856 58.127,188.096 56.946,188.251 56.167 C 188.573 54.554,188.798 54.118,189.551 53.659 C 190.859 52.862,191.060 53.635,190.335 56.667 C 190.171 57.354,189.994 58.258,189.942 58.674 C 189.891 59.091,189.799 59.563,189.737 59.723 C 189.636 59.988,189.751 60.010,191.020 59.965 L 192.414 59.917 192.551 59.083 C 192.627 58.625,192.831 57.612,193.006 56.833 C 193.753 53.499,193.609 51.834,192.533 51.385 C 191.620 51.004,190.363 51.182,189.427 51.827 L 188.673 52.345 188.198 51.814 C 187.681 51.236,186.433 51.012,185.463 51.323 M199.396 51.486 C 199.017 51.658,198.657 51.881,198.594 51.983 C 198.395 52.305,198.167 52.181,198.167 51.750 C 198.167 51.205,196.089 51.089,195.943 51.625 C 195.824 52.063,195.411 54.024,195.004 56.083 C 194.805 57.092,194.545 58.388,194.427 58.965 L 194.213 60.013 195.562 59.965 L 196.911 59.917 197.113 58.917 C 198.065 54.218,198.025 54.343,198.800 53.781 C 200.128 52.819,200.398 53.803,199.681 57.000 C 199.507 57.779,199.315 58.773,199.255 59.208 L 199.146 60.000 200.480 60.000 L 201.813 60.000 201.925 59.208 C 201.986 58.773,202.178 57.795,202.352 57.035 C 202.525 56.275,202.667 55.499,202.667 55.311 C 202.667 54.619,203.855 53.333,204.494 53.333 C 205.222 53.333,205.188 54.232,204.319 57.952 C 203.820 60.091,203.777 60.000,205.297 60.000 L 206.595 60.000 206.981 58.125 C 207.193 57.094,207.472 55.748,207.600 55.134 C 208.325 51.666,206.353 49.963,203.743 51.802 C 202.847 52.434,202.794 52.441,202.581 51.961 C 202.222 51.150,200.652 50.916,199.396 51.486 M218.754 51.280 C 218.573 51.331,218.161 51.553,217.838 51.773 L 217.250 52.174 217.197 51.754 C 217.147 51.350,217.099 51.333,215.996 51.333 L 214.848 51.333 214.749 51.958 C 214.654 52.554,214.347 54.103,213.668 57.417 C 213.499 58.242,213.318 59.163,213.266 59.465 L 213.172 60.013 214.544 59.965 L 215.917 59.917 215.962 59.417 C 215.987 59.142,216.152 58.279,216.328 57.500 C 216.505 56.721,216.695 55.730,216.750 55.299 C 216.914 54.031,218.374 52.966,219.038 53.631 L 219.396 53.989 219.041 55.619 C 218.473 58.235,218.162 59.741,218.165 59.875 C 218.166 59.944,218.754 60.000,219.473 60.000 L 220.779 60.000 221.063 58.625 C 221.220 57.869,221.496 56.575,221.676 55.750 C 222.479 52.092,221.455 50.525,218.754 51.280 M226.275 51.338 C 223.090 52.292,221.718 58.231,224.366 59.600 C 225.002 59.929,226.124 59.883,226.983 59.493 C 227.862 59.095,227.853 59.089,227.666 59.921 C 227.338 61.386,225.712 61.955,224.144 61.155 C 223.772 60.965,223.442 60.836,223.410 60.868 C 222.289 61.989,222.430 62.596,223.946 63.163 C 226.352 64.064,228.715 63.110,229.721 60.833 C 230.116 59.938,230.261 59.346,231.003 55.583 C 231.202 54.575,231.470 53.285,231.599 52.716 C 231.926 51.273,231.962 51.333,230.756 51.333 C 229.835 51.333,229.651 51.384,229.493 51.680 C 229.329 51.985,229.283 51.996,229.112 51.771 C 228.693 51.221,227.349 51.016,226.275 51.338 M258.250 51.321 C 254.836 52.144,253.365 57.985,256.118 59.788 C 256.847 60.265,259.631 60.212,260.313 59.708 C 260.592 59.502,260.865 59.333,260.921 59.333 C 260.976 59.333,261.223 59.097,261.469 58.807 C 264.705 55.005,262.663 50.257,258.250 51.321 M269.000 51.353 C 268.771 51.444,268.294 51.795,267.941 52.134 L 267.299 52.750 267.414 52.042 L 267.529 51.333 266.443 51.333 C 265.549 51.333,265.342 51.385,265.277 51.625 C 265.158 52.063,264.745 54.024,264.338 56.083 C 264.138 57.092,263.879 58.388,263.761 58.965 L 263.546 60.013 264.895 59.965 L 266.244 59.917 266.449 58.917 C 266.562 58.367,266.785 57.242,266.946 56.417 C 267.330 54.446,268.205 53.430,269.436 53.528 C 269.838 53.560,270.167 53.577,270.167 53.567 C 270.167 53.557,270.346 53.055,270.565 52.452 C 270.901 51.524,270.925 51.340,270.718 51.261 C 270.350 51.119,269.470 51.167,269.000 51.353 M285.625 51.393 C 281.693 52.866,280.982 59.577,284.704 60.088 C 287.215 60.434,288.887 59.603,289.979 57.465 C 291.911 53.688,289.283 50.024,285.625 51.393 M304.393 51.326 C 301.188 52.090,299.616 57.018,301.824 59.384 L 302.456 60.062 303.968 60.134 C 306.412 60.251,308.105 59.054,308.838 56.691 C 309.979 53.014,307.890 50.492,304.393 51.326 M210.082 51.958 C 209.987 52.554,209.680 54.103,209.001 57.417 C 208.832 58.242,208.651 59.163,208.600 59.465 L 208.506 60.013 209.878 59.965 L 211.250 59.917 211.351 59.167 C 211.407 58.754,211.580 57.817,211.736 57.083 C 212.427 53.829,212.652 52.704,212.741 52.042 L 212.837 51.333 211.510 51.333 L 210.182 51.333 210.082 51.958 M297.498 52.292 C 297.393 52.819,297.157 54.000,296.974 54.917 C 296.791 55.833,296.497 57.258,296.320 58.083 C 295.877 60.147,295.802 60.000,297.295 60.000 L 298.590 60.000 298.964 58.375 C 299.169 57.481,299.336 56.622,299.335 56.466 C 299.334 56.311,299.448 55.748,299.588 55.216 C 299.727 54.685,299.914 53.800,300.002 53.250 C 300.091 52.700,300.210 52.044,300.268 51.792 L 300.372 51.333 299.031 51.333 L 297.691 51.333 297.498 52.292 M87.645 53.644 L 88.040 53.948 87.674 55.516 C 86.955 58.595,84.409 59.171,84.921 56.139 C 85.280 54.017,86.581 52.826,87.645 53.644 M103.161 53.656 C 103.624 54.520,103.443 54.667,101.917 54.667 C 100.295 54.667,100.335 54.699,101.017 53.922 C 101.641 53.212,102.843 53.062,103.161 53.656 M151.029 53.609 C 151.702 54.219,151.284 56.930,150.399 57.686 C 149.360 58.573,148.499 58.054,148.501 56.542 C 148.503 54.235,149.913 52.599,151.029 53.609 M160.338 53.637 L 160.713 53.941 160.423 55.262 C 159.932 57.499,158.130 58.562,157.751 56.838 C 157.323 54.888,159.127 52.656,160.338 53.637 M176.312 53.644 L 176.707 53.948 176.341 55.516 C 175.622 58.595,173.076 59.171,173.588 56.139 C 173.946 54.017,175.247 52.826,176.312 53.644 M228.338 53.637 L 228.713 53.941 228.423 55.262 C 227.932 57.499,226.130 58.562,225.751 56.838 C 225.323 54.888,227.127 52.656,228.338 53.637 M260.079 53.825 C 260.757 55.136,259.865 57.770,258.645 58.059 C 257.052 58.437,256.857 55.323,258.373 53.708 C 258.909 53.137,259.753 53.195,260.079 53.825 M287.577 53.660 C 288.607 54.797,287.436 58.056,285.998 58.056 C 285.318 58.056,285.012 57.601,285.006 56.583 C 284.994 54.299,286.552 52.528,287.577 53.660 M306.214 53.817 C 307.004 55.155,305.907 58.012,304.589 58.049 C 303.808 58.072,303.512 57.660,303.505 56.545 C 303.491 54.217,305.347 52.349,306.214 53.817 M188.292 91.122 C 188.681 91.157,189.319 91.157,189.708 91.122 C 190.098 91.087,189.779 91.058,189.000 91.058 C 188.221 91.058,187.902 91.087,188.292 91.122 M197.709 97.250 C 197.711 97.617,197.745 97.747,197.785 97.540 C 197.824 97.332,197.823 97.032,197.781 96.873 C 197.739 96.714,197.707 96.883,197.709 97.250 M197.042 103.583 C 197.044 103.950,197.078 104.080,197.118 103.873 C 197.158 103.666,197.156 103.366,197.115 103.206 C 197.073 103.047,197.040 103.217,197.042 103.583 M196.375 110.083 C 196.377 110.450,196.411 110.580,196.451 110.373 C 196.491 110.166,196.490 109.866,196.448 109.706 C 196.406 109.547,196.374 109.717,196.375 110.083 M195.709 116.417 C 195.711 116.783,195.745 116.914,195.785 116.706 C 195.824 116.499,195.823 116.199,195.781 116.040 C 195.739 115.880,195.707 116.050,195.709 116.417 M195.039 122.833 C 195.039 123.154,195.073 123.285,195.115 123.125 C 195.157 122.965,195.157 122.702,195.115 122.542 C 195.073 122.381,195.039 122.513,195.039 122.833 M194.375 129.250 C 194.377 129.617,194.411 129.747,194.451 129.540 C 194.491 129.332,194.490 129.032,194.448 128.873 C 194.406 128.714,194.374 128.883,194.375 129.250 M193.709 135.583 C 193.711 135.950,193.745 136.080,193.785 135.873 C 193.824 135.666,193.823 135.366,193.781 135.206 C 193.739 135.047,193.707 135.217,193.709 135.583 M193.039 142.000 C 193.039 142.321,193.073 142.452,193.115 142.292 C 193.157 142.131,193.157 141.869,193.115 141.708 C 193.073 141.548,193.039 141.679,193.039 142.000 " stroke="none" fill="#636364" fill-rule="evenodd"></path><path id="path3" d="M291.892 59.787 C 291.986 59.944,291.404 60.003,289.382 60.042 L 286.750 60.092 289.653 60.130 C 291.249 60.150,292.524 60.145,292.486 60.120 C 292.448 60.094,292.271 59.962,292.093 59.828 C 291.902 59.684,291.820 59.667,291.892 59.787 M155.667 60.008 C 152.518 60.101,140.576 60.161,112.250 60.225 C 111.883 60.226,109.558 60.218,107.083 60.208 C 104.608 60.198,100.333 60.208,97.583 60.230 C 94.833 60.252,80.002 60.285,64.625 60.302 C 45.984 60.323,36.667 60.389,36.667 60.501 C 36.667 60.892,159.418 60.454,159.568 60.063 C 159.617 59.937,159.640 59.847,159.620 59.863 C 159.600 59.880,157.821 59.945,155.667 60.008 M185.389 60.000 C 179.048 60.046,173.805 60.140,173.736 60.208 C 173.667 60.277,185.728 60.333,200.538 60.333 C 221.925 60.333,227.481 60.290,227.544 60.125 C 227.632 59.896,207.855 59.838,185.389 60.000 M233.042 59.962 C 230.906 59.994,230.000 60.064,230.000 60.197 C 230.000 60.337,231.152 60.358,234.375 60.277 C 236.781 60.217,242.875 60.161,247.917 60.154 C 252.958 60.146,257.005 60.108,256.909 60.068 C 256.703 59.982,237.433 59.897,233.042 59.962 M259.574 60.022 C 259.304 60.080,262.077 60.136,265.736 60.147 C 269.395 60.158,272.349 60.126,272.300 60.077 C 272.171 59.949,260.159 59.896,259.574 60.022 M277.083 60.007 C 275.504 60.068,276.340 60.099,279.667 60.101 C 284.377 60.105,284.911 60.055,281.167 59.961 C 280.204 59.936,278.367 59.957,277.083 60.007 M162.000 60.205 C 162.000 60.276,164.494 60.327,167.542 60.319 C 171.121 60.310,172.906 60.251,172.583 60.154 C 171.984 59.974,162.000 60.022,162.000 60.205 M298.167 60.184 C 310.935 60.660,311.389 60.690,319.167 61.588 C 321.611 61.870,334.702 66.440,335.864 67.416 C 336.168 67.672,338.392 69.652,340.806 71.816 L 345.195 75.750 348.506 80.083 L 351.816 84.417 355.244 91.691 C 357.639 96.774,358.724 99.260,358.846 99.941 C 358.997 100.786,360.298 107.715,361.329 113.167 C 362.752 120.689,362.817 121.131,362.999 124.417 C 363.101 126.250,363.289 129.362,363.417 131.333 C 363.938 139.374,363.932 140.039,363.253 149.583 C 363.123 151.417,362.968 153.704,362.910 154.667 C 362.851 155.629,362.432 158.554,361.977 161.167 C 360.786 168.010,360.526 169.511,360.143 171.744 C 359.611 174.848,355.432 187.180,353.957 190.000 C 353.358 191.146,352.144 193.471,351.259 195.167 C 349.069 199.365,341.085 210.105,338.684 212.083 C 337.293 213.229,332.361 217.262,328.417 220.481 C 325.898 222.536,315.710 227.802,312.167 228.880 C 309.685 229.636,308.230 230.065,303.667 231.389 L 299.917 232.478 295.167 232.814 C 288.517 233.284,285.753 233.369,273.333 233.483 L 262.417 233.583 262.365 243.333 C 262.307 254.212,262.606 318.611,262.777 332.069 L 262.887 340.721 259.069 340.614 C 256.968 340.556,251.425 340.429,246.750 340.334 C 242.075 340.238,237.650 340.119,236.917 340.069 L 235.583 339.977 235.583 286.864 L 235.583 233.750 209.958 233.708 C 192.904 233.680,184.333 233.722,184.333 233.833 C 184.333 233.944,192.891 234.000,209.833 234.000 L 235.333 234.000 235.333 287.141 L 235.333 340.282 238.125 340.397 C 239.660 340.460,244.854 340.581,249.667 340.667 C 254.479 340.752,259.487 340.873,260.796 340.935 L 263.175 341.049 263.081 334.816 C 262.864 320.472,262.666 284.820,262.667 260.208 L 262.667 233.833 270.125 233.837 C 283.722 233.844,299.099 233.104,301.625 232.322 C 302.942 231.915,304.032 231.591,308.250 230.355 C 308.892 230.167,309.942 229.859,310.583 229.671 C 311.225 229.483,312.275 229.172,312.917 228.979 C 314.037 228.643,316.102 227.656,323.167 224.079 C 326.226 222.530,331.055 219.106,333.208 216.958 C 333.368 216.798,333.566 216.667,333.646 216.667 C 333.727 216.667,333.896 216.527,334.021 216.357 C 334.147 216.187,335.570 214.990,337.183 213.699 C 339.846 211.566,342.000 209.400,342.000 208.856 C 342.000 208.767,342.065 208.669,342.145 208.639 C 342.339 208.565,344.000 206.355,344.000 206.172 C 344.000 206.093,344.066 206.003,344.146 205.972 C 344.439 205.861,349.938 198.389,350.443 197.417 C 350.729 196.867,351.410 195.554,351.957 194.500 C 354.169 190.238,354.952 188.734,355.125 188.417 C 355.225 188.233,355.452 187.671,355.629 187.167 C 355.806 186.662,356.082 185.875,356.243 185.417 C 356.404 184.958,356.594 184.358,356.667 184.083 C 356.739 183.808,356.930 183.208,357.091 182.750 C 357.251 182.292,357.511 181.542,357.667 181.083 C 357.823 180.625,358.082 179.875,358.243 179.417 C 358.404 178.958,358.594 178.358,358.667 178.083 C 358.739 177.808,358.930 177.208,359.091 176.750 C 359.251 176.292,359.514 175.542,359.674 175.083 C 359.958 174.273,360.256 172.795,361.003 168.500 C 361.202 167.354,361.504 165.629,361.673 164.667 C 361.843 163.704,362.135 162.017,362.322 160.917 C 362.510 159.817,362.775 158.279,362.912 157.500 C 363.050 156.721,363.206 155.108,363.259 153.917 C 363.312 152.725,363.508 149.875,363.695 147.583 C 364.135 142.177,364.134 136.832,363.694 130.917 C 363.509 128.442,363.315 125.254,363.262 123.833 C 363.209 122.412,363.050 120.650,362.908 119.917 C 362.766 119.183,362.501 117.796,362.320 116.833 C 362.138 115.871,361.842 114.370,361.661 113.498 C 361.481 112.627,361.333 111.765,361.333 111.583 C 361.333 111.402,361.185 110.540,361.004 109.668 C 360.823 108.797,360.518 107.258,360.326 106.250 C 360.135 105.242,359.838 103.704,359.667 102.833 C 359.497 101.962,359.307 100.875,359.245 100.417 C 359.097 99.306,358.791 98.439,357.837 96.430 C 357.398 95.506,356.686 94.000,356.253 93.083 C 355.821 92.167,355.146 90.742,354.753 89.917 C 354.361 89.092,353.611 87.517,353.088 86.417 C 352.140 84.425,351.070 82.667,350.806 82.667 C 350.729 82.667,350.667 82.587,350.667 82.489 C 350.667 82.391,350.348 81.917,349.958 81.436 C 349.569 80.955,349.100 80.354,348.917 80.100 C 348.733 79.847,348.471 79.502,348.333 79.333 C 348.196 79.165,347.933 78.822,347.750 78.572 C 346.655 77.076,345.287 75.451,344.589 74.816 C 344.147 74.413,343.580 73.896,343.330 73.667 C 342.280 72.704,341.623 72.111,339.250 69.987 C 337.875 68.757,336.505 67.529,336.205 67.258 C 335.641 66.749,335.081 66.496,332.667 65.663 C 330.296 64.845,329.057 64.388,328.837 64.252 C 328.722 64.181,328.392 64.062,328.105 63.988 C 327.818 63.914,327.058 63.657,326.417 63.417 C 322.161 61.821,320.608 61.333,319.782 61.333 C 319.340 61.333,317.802 61.189,316.364 61.012 C 310.699 60.316,304.491 59.983,298.000 60.028 L 294.583 60.051 298.167 60.184 M62.833 90.317 C 62.971 90.394,82.096 90.506,105.333 90.565 C 144.377 90.664,159.075 90.797,170.750 91.155 C 173.225 91.231,175.313 91.235,175.390 91.165 C 175.835 90.757,156.805 90.493,115.417 90.335 C 66.578 90.147,62.528 90.146,62.833 90.317 M193.217 91.124 C 194.023 91.155,195.298 91.155,196.050 91.124 C 196.802 91.093,196.142 91.068,194.583 91.068 C 193.025 91.068,192.410 91.094,193.217 91.124 M198.379 91.542 C 198.365 91.748,198.234 93.004,198.088 94.333 C 197.942 95.662,197.679 98.138,197.503 99.833 C 197.090 103.814,196.476 109.701,195.488 119.167 C 195.302 120.954,194.997 123.770,194.810 125.424 C 194.624 127.079,194.504 128.654,194.544 128.924 C 194.607 129.350,194.620 129.330,194.642 128.773 C 194.655 128.419,194.813 126.882,194.992 125.357 C 195.455 121.410,195.985 116.588,196.084 115.417 C 196.131 114.867,196.205 114.154,196.249 113.833 C 196.293 113.513,196.328 113.039,196.328 112.781 C 196.327 112.524,196.372 112.240,196.427 112.151 C 196.537 111.971,196.702 110.200,196.680 109.417 C 196.673 109.142,196.822 107.829,197.012 106.500 C 197.201 105.171,197.347 103.821,197.334 103.500 C 197.322 103.179,197.464 101.567,197.650 99.917 C 197.836 98.267,198.119 95.725,198.279 94.269 C 198.462 92.604,198.654 91.536,198.797 91.394 C 198.988 91.202,198.975 91.167,198.714 91.167 C 198.511 91.167,198.395 91.296,198.379 91.542 M205.667 91.345 C 208.371 91.424,216.190 91.538,223.042 91.598 L 235.500 91.707 235.500 119.992 C 235.500 135.550,235.450 159.878,235.389 174.056 L 235.278 199.833 211.806 199.833 C 196.269 199.833,188.333 199.890,188.333 200.000 C 188.333 200.110,196.324 200.167,211.972 200.167 L 235.611 200.167 235.722 162.792 C 235.783 142.235,235.833 117.793,235.833 108.476 L 235.833 91.535 233.125 91.436 C 231.635 91.381,223.742 91.306,215.583 91.268 C 204.891 91.219,202.123 91.240,205.667 91.345 M262.167 145.550 C 262.167 188.701,262.124 199.809,261.958 199.976 C 261.612 200.324,293.452 200.145,295.917 199.786 C 302.282 198.858,306.085 197.472,313.048 193.544 C 314.608 192.665,314.864 192.432,318.855 188.270 L 323.030 183.917 325.707 179.417 C 327.179 176.942,328.768 174.275,329.238 173.490 C 329.919 172.354,330.189 171.675,330.561 170.157 C 333.932 156.418,333.585 158.183,334.654 149.333 C 334.837 147.821,335.102 145.643,335.243 144.493 C 335.871 139.381,335.248 131.062,333.571 122.192 L 332.984 119.083 330.405 113.047 C 328.987 109.727,327.778 106.877,327.718 106.714 C 327.562 106.290,320.023 98.521,319.510 98.255 C 319.275 98.134,318.221 97.702,317.167 97.294 C 316.112 96.887,313.392 95.826,311.121 94.938 C 306.434 93.105,303.859 92.316,301.333 91.937 C 299.762 91.701,277.180 91.331,264.542 91.333 L 262.167 91.333 262.167 145.550 M285.167 91.841 C 302.383 92.032,302.719 92.060,306.920 93.678 C 307.380 93.855,307.830 94.003,307.920 94.006 C 308.010 94.009,308.383 94.156,308.750 94.333 C 309.117 94.510,309.508 94.658,309.621 94.661 C 309.733 94.664,310.145 94.809,310.537 94.982 C 310.929 95.156,311.662 95.465,312.167 95.668 C 312.671 95.872,313.421 96.176,313.833 96.343 C 314.246 96.510,315.108 96.844,315.750 97.085 C 316.392 97.326,317.153 97.631,317.442 97.762 C 317.731 97.893,318.052 98.000,318.157 98.000 C 318.653 98.000,319.842 98.817,320.828 99.834 C 321.427 100.452,323.091 102.166,324.526 103.643 C 326.094 105.258,327.267 106.612,327.467 107.039 C 327.650 107.430,328.150 108.575,328.580 109.583 C 329.009 110.592,329.461 111.642,329.584 111.917 C 329.707 112.192,330.159 113.242,330.588 114.250 C 331.017 115.258,331.656 116.758,332.008 117.583 C 333.384 120.806,334.694 129.178,335.194 137.949 C 335.373 141.090,335.362 141.502,335.023 144.116 C 334.823 145.656,334.506 148.192,334.318 149.750 C 333.552 156.083,333.306 157.809,332.994 159.042 C 332.456 161.165,332.045 162.829,331.665 164.417 C 331.182 166.439,330.701 168.342,330.317 169.750 C 330.142 170.392,329.999 171.049,329.999 171.210 C 330.000 171.457,329.253 172.848,327.958 175.012 C 327.235 176.221,327.030 176.570,326.187 178.031 C 325.693 178.885,325.120 179.846,324.913 180.167 C 324.528 180.762,323.928 181.789,323.354 182.836 C 323.178 183.158,322.854 183.608,322.635 183.836 C 322.416 184.063,320.740 185.825,318.910 187.749 C 317.080 189.674,315.321 191.517,315.000 191.846 C 314.679 192.175,314.004 192.672,313.500 192.952 C 312.996 193.231,312.208 193.668,311.750 193.922 C 305.584 197.346,301.032 198.881,294.995 199.574 C 293.116 199.790,290.204 199.833,277.536 199.833 L 262.333 199.833 262.333 145.656 L 262.333 91.479 266.125 91.575 C 268.210 91.628,276.779 91.748,285.167 91.841 M194.372 130.333 C 194.372 130.654,194.406 130.785,194.448 130.625 C 194.490 130.465,194.490 130.202,194.448 130.042 C 194.406 129.881,194.372 130.012,194.372 130.333 M194.209 131.750 C 194.211 132.117,194.245 132.247,194.285 132.040 C 194.324 131.832,194.323 131.532,194.281 131.373 C 194.239 131.214,194.207 131.383,194.209 131.750 M193.922 133.755 C 193.856 134.453,193.838 135.060,193.881 135.103 C 193.924 135.146,194.013 134.610,194.078 133.912 C 194.144 133.213,194.162 132.607,194.119 132.563 C 194.076 132.520,193.987 133.056,193.922 133.755 M193.372 139.333 C 193.372 139.654,193.406 139.785,193.448 139.625 C 193.490 139.465,193.490 139.202,193.448 139.042 C 193.406 138.881,193.372 139.012,193.372 139.333 M106.868 199.958 C 107.005 200.124,113.062 200.167,136.132 200.167 C 152.131 200.167,165.166 200.110,165.097 200.042 C 164.862 199.806,106.673 199.723,106.868 199.958 M140.500 233.833 C 140.500 233.943,144.111 234.000,151.000 234.000 C 157.889 234.000,161.500 233.943,161.500 233.833 C 161.500 233.724,157.889 233.667,151.000 233.667 C 144.111 233.667,140.500 233.724,140.500 233.833 " stroke="none" fill="#040910" fill-rule="evenodd"></path><path id="path4" d="M184.628 200.121 C 184.928 200.158,185.378 200.157,185.628 200.119 C 185.878 200.081,185.633 200.051,185.083 200.052 C 184.533 200.053,184.328 200.084,184.628 200.121 M124.583 220.333 C 126.231 221.983,127.617 223.333,127.663 223.333 C 127.709 223.333,126.398 221.983,124.750 220.333 C 123.102 218.683,121.716 217.333,121.670 217.333 C 121.624 217.333,122.935 218.683,124.583 220.333 M90.083 338.833 L 88.917 338.941 90.032 338.971 C 90.645 338.987,91.193 338.925,91.250 338.833 C 91.307 338.742,91.330 338.680,91.302 338.696 C 91.273 338.712,90.725 338.774,90.083 338.833 M69.798 339.124 C 70.375 339.156,71.275 339.156,71.798 339.123 C 72.322 339.090,71.850 339.063,70.750 339.064 C 69.650 339.064,69.222 339.091,69.798 339.124 M87.208 339.286 C 87.460 339.324,87.873 339.324,88.125 339.286 C 88.377 339.248,88.171 339.217,87.667 339.217 C 87.162 339.217,86.956 339.248,87.208 339.286 M80.295 339.454 C 80.594 339.491,81.044 339.490,81.295 339.452 C 81.545 339.414,81.300 339.384,80.750 339.385 C 80.200 339.386,79.995 339.417,80.295 339.454 " stroke="none" fill="#607f9e" fill-rule="evenodd"></path><path id="path5" d="M37.500 73.417 C 37.500 73.554,37.575 73.667,37.667 73.667 C 37.758 73.667,37.833 73.554,37.833 73.417 C 37.833 73.279,37.758 73.167,37.667 73.167 C 37.575 73.167,37.500 73.279,37.500 73.417 M70.167 183.917 C 70.167 184.054,70.242 184.167,70.333 184.167 C 70.425 184.167,70.500 184.054,70.500 183.917 C 70.500 183.779,70.425 183.667,70.333 183.667 C 70.242 183.667,70.167 183.779,70.167 183.917 M186.417 200.000 L 185.917 200.127 186.458 200.147 C 186.756 200.158,187.000 200.092,187.000 200.000 C 187.000 199.908,186.981 199.842,186.958 199.853 C 186.935 199.864,186.692 199.930,186.417 200.000 M49.500 201.083 C 49.500 201.221,49.575 201.333,49.667 201.333 C 49.758 201.333,49.833 201.221,49.833 201.083 C 49.833 200.946,49.758 200.833,49.667 200.833 C 49.575 200.833,49.500 200.946,49.500 201.083 M118.509 212.946 C 119.622 214.135,125.103 219.587,125.507 219.909 C 125.732 220.088,124.155 218.457,122.001 216.284 C 119.848 214.111,118.052 212.333,118.010 212.333 C 117.969 212.333,118.193 212.609,118.509 212.946 M73.500 221.083 C 73.500 221.221,73.575 221.333,73.667 221.333 C 73.758 221.333,73.833 221.221,73.833 221.083 C 73.833 220.946,73.758 220.833,73.667 220.833 C 73.575 220.833,73.500 220.946,73.500 221.083 M134.167 229.917 C 136.686 232.438,138.785 234.500,138.831 234.500 C 138.877 234.500,136.853 232.438,134.333 229.917 C 131.814 227.396,129.715 225.333,129.669 225.333 C 129.623 225.333,131.647 227.396,134.167 229.917 M163.077 235.010 C 163.016 235.108,163.012 235.234,163.067 235.289 C 163.122 235.344,163.167 235.301,163.167 235.194 C 163.167 234.790,182.295 234.930,182.386 235.336 C 182.448 235.615,182.457 235.608,182.439 235.294 L 182.417 234.917 172.802 234.874 C 166.084 234.844,163.155 234.885,163.077 235.010 M74.833 235.917 C 74.833 236.054,74.908 236.167,75.000 236.167 C 75.092 236.167,75.167 236.054,75.167 235.917 C 75.167 235.779,75.092 235.667,75.000 235.667 C 74.908 235.667,74.833 235.779,74.833 235.917 M55.500 264.917 C 55.500 265.054,55.575 265.167,55.667 265.167 C 55.758 265.167,55.833 265.054,55.833 264.917 C 55.833 264.779,55.758 264.667,55.667 264.667 C 55.575 264.667,55.500 264.779,55.500 264.917 M78.167 273.083 C 78.167 273.221,78.242 273.333,78.333 273.333 C 78.425 273.333,78.500 273.221,78.500 273.083 C 78.500 272.946,78.425 272.833,78.333 272.833 C 78.242 272.833,78.167 272.946,78.167 273.083 M74.292 339.124 C 75.231 339.154,76.769 339.154,77.708 339.124 C 78.648 339.095,77.879 339.070,76.000 339.070 C 74.121 339.070,73.352 339.095,74.292 339.124 M85.711 339.286 C 85.964 339.325,86.339 339.324,86.544 339.284 C 86.749 339.244,86.542 339.213,86.083 339.214 C 85.625 339.216,85.457 339.248,85.711 339.286 M88.877 339.286 C 89.131 339.325,89.506 339.324,89.711 339.284 C 89.916 339.244,89.708 339.213,89.250 339.214 C 88.792 339.216,88.624 339.248,88.877 339.286 M78.792 339.451 C 78.998 339.491,79.335 339.491,79.542 339.451 C 79.748 339.411,79.579 339.379,79.167 339.379 C 78.754 339.379,78.585 339.411,78.792 339.451 M81.958 339.451 C 82.165 339.491,82.502 339.491,82.708 339.451 C 82.915 339.411,82.746 339.379,82.333 339.379 C 81.921 339.379,81.752 339.411,81.958 339.451 M142.942 339.542 C 142.985 339.610,149.709 339.649,157.885 339.628 C 166.061 339.607,170.875 339.569,168.583 339.545 C 157.865 339.431,142.873 339.429,142.942 339.542 M66.167 339.667 C 66.167 339.758,66.542 339.833,67.000 339.833 C 67.458 339.833,67.833 339.758,67.833 339.667 C 67.833 339.575,67.458 339.500,67.000 339.500 C 66.542 339.500,66.167 339.575,66.167 339.667 M72.875 339.623 C 73.402 339.656,74.265 339.656,74.792 339.623 C 75.319 339.590,74.887 339.563,73.833 339.563 C 72.779 339.563,72.348 339.590,72.875 339.623 " stroke="none" fill="#3c648c" fill-rule="evenodd"></path><path id="path6" d="M178.297 91.123 C 178.782 91.157,179.532 91.156,179.964 91.122 C 180.396 91.088,180.000 91.060,179.083 91.061 C 178.167 91.061,177.813 91.089,178.297 91.123 M197.331 91.285 C 197.742 91.324,198.141 91.445,198.218 91.553 C 198.315 91.689,198.338 91.673,198.291 91.500 C 198.244 91.324,197.981 91.245,197.404 91.232 L 196.583 91.214 197.331 91.285 M173.948 200.125 C 175.523 200.152,178.148 200.152,179.781 200.125 C 181.414 200.097,180.125 200.075,176.917 200.075 C 173.708 200.075,172.372 200.097,173.948 200.125 M109.750 205.500 C 111.857 207.608,113.618 209.333,113.664 209.333 C 113.710 209.333,112.024 207.608,109.917 205.500 C 107.810 203.392,106.049 201.667,106.003 201.667 C 105.957 201.667,107.643 203.392,109.750 205.500 M63.813 339.047 C 63.886 339.119,64.801 339.156,65.847 339.130 L 67.750 339.082 65.716 338.999 C 64.597 338.954,63.741 338.975,63.813 339.047 M82.135 338.958 C 83.263 338.987,85.063 338.987,86.135 338.958 C 87.206 338.929,86.283 338.905,84.083 338.905 C 81.883 338.905,81.006 338.929,82.135 338.958 M150.875 339.125 C 154.794 339.150,161.206 339.150,165.125 339.125 C 169.044 339.100,165.837 339.080,158.000 339.080 C 150.162 339.080,146.956 339.100,150.875 339.125 " stroke="none" fill="#7c9cb4" fill-rule="evenodd"></path><path id="path7" d="M182.208 91.124 C 183.102 91.154,184.565 91.154,185.458 91.124 C 186.352 91.094,185.621 91.070,183.833 91.070 C 182.046 91.070,181.315 91.094,182.208 91.124 M195.539 117.667 C 195.539 117.987,195.573 118.119,195.615 117.958 C 195.657 117.798,195.657 117.535,195.615 117.375 C 195.573 117.215,195.539 117.346,195.539 117.667 " stroke="none" fill="#848c94" fill-rule="evenodd"></path><path id="path8" d="M183.044 200.120 C 183.297 200.158,183.672 200.157,183.877 200.117 C 184.082 200.078,183.875 200.046,183.417 200.048 C 182.958 200.049,182.791 200.081,183.044 200.120 M88.208 338.948 C 88.369 338.990,88.631 338.990,88.792 338.948 C 88.952 338.906,88.821 338.872,88.500 338.872 C 88.179 338.872,88.048 338.906,88.208 338.948 M67.960 339.118 C 68.168 339.158,68.468 339.156,68.627 339.115 C 68.786 339.073,68.617 339.040,68.250 339.042 C 67.883 339.044,67.753 339.078,67.960 339.118 " stroke="none" fill="#7c94b4" fill-rule="evenodd"></path></g></svg>